G04 #@! TF.FileFunction,Copper,L2,Bot,Signal*
%FSLAX46Y46*%
G04 Gerber Fmt 4.6, Leading zero omitted, Abs format (unit mm)*
G04 Created by KiCad (PCBNEW (2015-01-16 BZR 5376)-product) date 1/29/2016 4:56:34 PM*
%MOMM*%
G01*
G04 APERTURE LIST*
%ADD10C,0.150000*%
%ADD11C,0.254000*%
%ADD12C,2.000000*%
%ADD13C,4.800600*%
%ADD14R,4.800600X4.800600*%
%ADD15R,2.300000X2.300000*%
%ADD16C,2.500000*%
%ADD17O,1.651000X4.000000*%
%ADD18R,1.800000X1.800000*%
%ADD19C,1.800000*%
%ADD20O,1.930400X3.860800*%
%ADD21R,1.574800X2.286000*%
%ADD22O,1.574800X2.286000*%
%ADD23R,1.500000X1.500000*%
%ADD24O,1.500000X2.000000*%
%ADD25C,2.499360*%
%ADD26C,4.064000*%
%ADD27R,3.000000X3.000000*%
%ADD28C,1.500000*%
%ADD29C,0.889000*%
%ADD30C,0.889000*%
%ADD31C,0.508000*%
%ADD32C,0.635000*%
%ADD33C,0.762000*%
%ADD34C,0.381000*%
%ADD35C,0.304800*%
G04 APERTURE END LIST*
D10*
X188000000Y-105000000D02*
G75*
G03X193000000Y-100000000I0J5000000D01*
G01*
X107500000Y-105000000D02*
X188000000Y-105000000D01*
X102500000Y-42500000D02*
X102500000Y-100000000D01*
X188000000Y-37500000D02*
X107500000Y-37500000D01*
X193000000Y-100000000D02*
X193000000Y-42500000D01*
X102500000Y-100000000D02*
G75*
G03X107500000Y-105000000I5000000J0D01*
G01*
X193000000Y-42500000D02*
G75*
G03X188000000Y-37500000I-5000000J0D01*
G01*
X107500000Y-37500000D02*
G75*
G03X102500000Y-42500000I0J-5000000D01*
G01*
D11*
X186526714Y-40035238D02*
X186381571Y-40083619D01*
X186139667Y-40083619D01*
X186042905Y-40035238D01*
X185994524Y-39986857D01*
X185946143Y-39890095D01*
X185946143Y-39793333D01*
X185994524Y-39696571D01*
X186042905Y-39648190D01*
X186139667Y-39599810D01*
X186333190Y-39551429D01*
X186429952Y-39503048D01*
X186478333Y-39454667D01*
X186526714Y-39357905D01*
X186526714Y-39261143D01*
X186478333Y-39164381D01*
X186429952Y-39116000D01*
X186333190Y-39067619D01*
X186091286Y-39067619D01*
X185946143Y-39116000D01*
X185317190Y-39067619D02*
X185123667Y-39067619D01*
X185026905Y-39116000D01*
X184930143Y-39212762D01*
X184881762Y-39406286D01*
X184881762Y-39744952D01*
X184930143Y-39938476D01*
X185026905Y-40035238D01*
X185123667Y-40083619D01*
X185317190Y-40083619D01*
X185413952Y-40035238D01*
X185510714Y-39938476D01*
X185559095Y-39744952D01*
X185559095Y-39406286D01*
X185510714Y-39212762D01*
X185413952Y-39116000D01*
X185317190Y-39067619D01*
X183962524Y-40083619D02*
X184446333Y-40083619D01*
X184446333Y-39067619D01*
X183623857Y-40083619D02*
X183623857Y-39067619D01*
X183381952Y-39067619D01*
X183236810Y-39116000D01*
X183140048Y-39212762D01*
X183091667Y-39309524D01*
X183043286Y-39503048D01*
X183043286Y-39648190D01*
X183091667Y-39841714D01*
X183140048Y-39938476D01*
X183236810Y-40035238D01*
X183381952Y-40083619D01*
X183623857Y-40083619D01*
X186526714Y-40035238D02*
X186381571Y-40083619D01*
X186139667Y-40083619D01*
X186042905Y-40035238D01*
X185994524Y-39986857D01*
X185946143Y-39890095D01*
X185946143Y-39793333D01*
X185994524Y-39696571D01*
X186042905Y-39648190D01*
X186139667Y-39599810D01*
X186333190Y-39551429D01*
X186429952Y-39503048D01*
X186478333Y-39454667D01*
X186526714Y-39357905D01*
X186526714Y-39261143D01*
X186478333Y-39164381D01*
X186429952Y-39116000D01*
X186333190Y-39067619D01*
X186091286Y-39067619D01*
X185946143Y-39116000D01*
X185317190Y-39067619D02*
X185123667Y-39067619D01*
X185026905Y-39116000D01*
X184930143Y-39212762D01*
X184881762Y-39406286D01*
X184881762Y-39744952D01*
X184930143Y-39938476D01*
X185026905Y-40035238D01*
X185123667Y-40083619D01*
X185317190Y-40083619D01*
X185413952Y-40035238D01*
X185510714Y-39938476D01*
X185559095Y-39744952D01*
X185559095Y-39406286D01*
X185510714Y-39212762D01*
X185413952Y-39116000D01*
X185317190Y-39067619D01*
X183962524Y-40083619D02*
X184446333Y-40083619D01*
X184446333Y-39067619D01*
X183623857Y-40083619D02*
X183623857Y-39067619D01*
X183381952Y-39067619D01*
X183236810Y-39116000D01*
X183140048Y-39212762D01*
X183091667Y-39309524D01*
X183043286Y-39503048D01*
X183043286Y-39648190D01*
X183091667Y-39841714D01*
X183140048Y-39938476D01*
X183236810Y-40035238D01*
X183381952Y-40083619D01*
X183623857Y-40083619D01*
D12*
X171450000Y-89535000D03*
X176530000Y-89535000D03*
D13*
X105664000Y-89408000D03*
D14*
X111760000Y-89408000D03*
D13*
X107950000Y-94488000D03*
D15*
X117396000Y-100584000D03*
D16*
X120396000Y-100584000D03*
X123396000Y-100584000D03*
D17*
X125796040Y-100584000D03*
X114995960Y-100584000D03*
D18*
X130048000Y-103124000D03*
D19*
X130048000Y-100584000D03*
X130048000Y-98044000D03*
D18*
X132588000Y-103124000D03*
D19*
X132588000Y-100584000D03*
X132588000Y-98044000D03*
D18*
X135128000Y-103124000D03*
D19*
X135128000Y-100584000D03*
X135128000Y-98044000D03*
D20*
X116967000Y-50038000D03*
X119507000Y-50038000D03*
X122047000Y-50038000D03*
X124587000Y-50038000D03*
X127127000Y-50038000D03*
X129667000Y-50038000D03*
X132207000Y-50038000D03*
X134747000Y-50038000D03*
X137287000Y-50038000D03*
X139827000Y-50038000D03*
X142367000Y-50038000D03*
X144907000Y-50038000D03*
X147447000Y-50038000D03*
X149987000Y-50038000D03*
X152527000Y-50038000D03*
X155067000Y-50038000D03*
D21*
X125095000Y-79756000D03*
D22*
X127635000Y-79756000D03*
X130175000Y-79756000D03*
X132715000Y-79756000D03*
X135255000Y-79756000D03*
X137795000Y-79756000D03*
X140335000Y-79756000D03*
X142875000Y-79756000D03*
X145415000Y-79756000D03*
X147955000Y-79756000D03*
X150495000Y-79756000D03*
X153035000Y-79756000D03*
X155575000Y-79756000D03*
X158115000Y-79756000D03*
X160655000Y-79756000D03*
X163195000Y-79756000D03*
X165735000Y-79756000D03*
X168275000Y-79756000D03*
X170815000Y-79756000D03*
X173355000Y-79756000D03*
X173355000Y-64516000D03*
X170815000Y-64516000D03*
X168275000Y-64516000D03*
X165735000Y-64516000D03*
X163195000Y-64516000D03*
X160655000Y-64516000D03*
X158115000Y-64516000D03*
X155575000Y-64516000D03*
X153035000Y-64516000D03*
X150495000Y-64516000D03*
X147955000Y-64516000D03*
X145415000Y-64516000D03*
X142875000Y-64516000D03*
X140335000Y-64516000D03*
X137795000Y-64516000D03*
X135255000Y-64516000D03*
X132715000Y-64516000D03*
X130175000Y-64516000D03*
X127635000Y-64516000D03*
X125095000Y-64516000D03*
D23*
X140335000Y-102870000D03*
D24*
X142875000Y-102870000D03*
X145415000Y-102870000D03*
X147955000Y-102870000D03*
X150495000Y-102870000D03*
X153035000Y-102870000D03*
X155575000Y-102870000D03*
X158115000Y-102870000D03*
D23*
X163195000Y-39370000D03*
D24*
X165735000Y-39370000D03*
X168275000Y-39370000D03*
X170815000Y-39370000D03*
X173355000Y-39370000D03*
X175895000Y-39370000D03*
X178435000Y-39370000D03*
X180975000Y-39370000D03*
D23*
X140335000Y-39370000D03*
D24*
X142875000Y-39370000D03*
X145415000Y-39370000D03*
X147955000Y-39370000D03*
X150495000Y-39370000D03*
X153035000Y-39370000D03*
X155575000Y-39370000D03*
X158115000Y-39370000D03*
D23*
X163195000Y-102870000D03*
D24*
X165735000Y-102870000D03*
X168275000Y-102870000D03*
X170815000Y-102870000D03*
X173355000Y-102870000D03*
X175895000Y-102870000D03*
X178435000Y-102870000D03*
X180975000Y-102870000D03*
D19*
X113030000Y-78740000D03*
X110490000Y-78740000D03*
X113030000Y-76200000D03*
X110490000Y-76200000D03*
X113030000Y-73660000D03*
X110490000Y-73660000D03*
X113030000Y-71120000D03*
X110490000Y-71120000D03*
X113030000Y-68580000D03*
X110490000Y-68580000D03*
D25*
X134071360Y-85384640D03*
X136570720Y-90424000D03*
X131572000Y-90424000D03*
X145247360Y-85384640D03*
X147746720Y-90424000D03*
X142748000Y-90424000D03*
D12*
X186309000Y-89408000D03*
X191389000Y-89408000D03*
X161163000Y-73152000D03*
X156083000Y-73152000D03*
D26*
X107000000Y-101000000D03*
X107000000Y-42000000D03*
X189000000Y-42000000D03*
X189000000Y-101000000D03*
D12*
X161290000Y-89535000D03*
X166370000Y-89535000D03*
D27*
X107985000Y-49150000D03*
X104685000Y-49150000D03*
X107985000Y-58800000D03*
X104685000Y-58800000D03*
D28*
X182753000Y-76517500D03*
X138239500Y-67119500D03*
X106997500Y-72009000D03*
X120967500Y-70548500D03*
X116967000Y-62865000D03*
X174752000Y-55372000D03*
X179324000Y-61785500D03*
X181229000Y-61912500D03*
X183197500Y-61912500D03*
X123444000Y-92202000D03*
X117475000Y-71628000D03*
X118999000Y-67437000D03*
X160274000Y-99822000D03*
X173736000Y-87884000D03*
X131635500Y-67945000D03*
X135509000Y-71945500D03*
X138303000Y-70993000D03*
X113411000Y-42862500D03*
X116332000Y-45339000D03*
X106045000Y-53784500D03*
X176276000Y-96329500D03*
X123444000Y-89281000D03*
X137795000Y-99060000D03*
D29*
X159194500Y-97663000D03*
D28*
X130937000Y-55118000D03*
X119126000Y-65151000D03*
X114935000Y-64389000D03*
X133985000Y-82677000D03*
X122809000Y-81661000D03*
X110744000Y-59055000D03*
X113030000Y-53213000D03*
X110744000Y-57277000D03*
X111760000Y-54610000D03*
D30*
X177228500Y-70993000D02*
X182753000Y-76517500D01*
X142113000Y-70993000D02*
X177228500Y-70993000D01*
X138239500Y-67119500D02*
X142113000Y-70993000D01*
X119507000Y-50038000D02*
X119507000Y-45529500D01*
X106997500Y-66230500D02*
X106997500Y-72009000D01*
X114998500Y-58229500D02*
X106997500Y-66230500D01*
X114998500Y-52260500D02*
X114998500Y-58229500D01*
X112966500Y-50228500D02*
X114998500Y-52260500D01*
X112966500Y-46418500D02*
X112966500Y-50228500D01*
X115570000Y-43815000D02*
X112966500Y-46418500D01*
X117792500Y-43815000D02*
X115570000Y-43815000D01*
X119507000Y-45529500D02*
X117792500Y-43815000D01*
X116967000Y-62865000D02*
X116967000Y-61658500D01*
X119507000Y-59118500D02*
X119507000Y-50038000D01*
X116967000Y-61658500D02*
X119507000Y-59118500D01*
X120967500Y-70548500D02*
X121158000Y-70739000D01*
X121158000Y-70739000D02*
X121158000Y-75374500D01*
X121158000Y-75374500D02*
X114554000Y-81978500D01*
X114554000Y-81978500D02*
X111506000Y-81978500D01*
X111506000Y-81978500D02*
X110490000Y-80962500D01*
X110490000Y-80962500D02*
X110490000Y-78740000D01*
X145415000Y-64516000D02*
X145415000Y-66548000D01*
X150495000Y-66548000D02*
X150495000Y-64516000D01*
X149225000Y-67818000D02*
X150495000Y-66548000D01*
X146685000Y-67818000D02*
X149225000Y-67818000D01*
X145415000Y-66548000D02*
X146685000Y-67818000D01*
X135128000Y-103124000D02*
X135128000Y-100584000D01*
X135128000Y-100584000D02*
X135128000Y-98044000D01*
D31*
X173355000Y-98806000D02*
X168910000Y-94361000D01*
X168910000Y-94361000D02*
X168910000Y-84963000D01*
X168910000Y-84963000D02*
X168275000Y-84328000D01*
X168275000Y-84328000D02*
X168275000Y-79756000D01*
X173355000Y-102870000D02*
X173355000Y-98806000D01*
D32*
X160655000Y-63119000D02*
X161544000Y-62230000D01*
X161544000Y-62230000D02*
X166878000Y-62230000D01*
X166878000Y-62230000D02*
X173736000Y-55372000D01*
X173736000Y-55372000D02*
X174752000Y-55372000D01*
X160655000Y-64516000D02*
X160655000Y-63119000D01*
D33*
X142367000Y-47879000D02*
X148336000Y-41910000D01*
X148336000Y-41910000D02*
X149606000Y-41910000D01*
X149606000Y-41910000D02*
X150495000Y-41021000D01*
X150495000Y-41021000D02*
X150495000Y-39370000D01*
X142367000Y-50038000D02*
X142367000Y-47879000D01*
D31*
X158115000Y-64516000D02*
X158115000Y-65278000D01*
D33*
X144907000Y-48006000D02*
X149606000Y-43307000D01*
X149606000Y-43307000D02*
X151892000Y-43307000D01*
X151892000Y-43307000D02*
X153035000Y-42164000D01*
X153035000Y-42164000D02*
X153035000Y-39370000D01*
X144907000Y-50038000D02*
X144907000Y-48006000D01*
D31*
X158115000Y-66675000D02*
X159258000Y-67818000D01*
X159258000Y-67818000D02*
X176022000Y-67818000D01*
X176022000Y-67818000D02*
X179324000Y-64516000D01*
X179324000Y-64516000D02*
X179324000Y-61785500D01*
X158115000Y-64516000D02*
X158115000Y-66675000D01*
X155575000Y-64516000D02*
X155575000Y-65532000D01*
D33*
X147447000Y-48006000D02*
X150749000Y-44704000D01*
X150749000Y-44704000D02*
X153543000Y-44704000D01*
X153543000Y-44704000D02*
X155575000Y-42672000D01*
X155575000Y-42672000D02*
X155575000Y-39370000D01*
X147447000Y-50038000D02*
X147447000Y-48006000D01*
D31*
X155575000Y-67183000D02*
X157226000Y-68834000D01*
X157226000Y-68834000D02*
X177292000Y-68834000D01*
X177292000Y-68834000D02*
X181229000Y-64897000D01*
X181229000Y-64897000D02*
X181229000Y-61912500D01*
X155575000Y-64516000D02*
X155575000Y-67183000D01*
X153035000Y-64516000D02*
X153035000Y-65786000D01*
D33*
X149987000Y-48006000D02*
X152019000Y-45974000D01*
X152019000Y-45974000D02*
X155575000Y-45974000D01*
X155575000Y-45974000D02*
X158115000Y-43434000D01*
X158115000Y-43434000D02*
X158115000Y-39370000D01*
X149987000Y-50038000D02*
X149987000Y-48006000D01*
D31*
X183197500Y-65405000D02*
X183197500Y-61912500D01*
X179387500Y-69215000D02*
X183197500Y-65405000D01*
X153035000Y-66675000D02*
X156210000Y-69850000D01*
X156210000Y-69850000D02*
X178752500Y-69850000D01*
X178752500Y-69850000D02*
X179387500Y-69215000D01*
X153035000Y-64516000D02*
X153035000Y-66675000D01*
D30*
X130048000Y-103124000D02*
X130048000Y-100584000D01*
X130048000Y-100584000D02*
X130048000Y-98044000D01*
X120396000Y-98869500D02*
X122364500Y-96901000D01*
X120396000Y-100584000D02*
X120396000Y-98869500D01*
X122491500Y-96774000D02*
X122364500Y-96901000D01*
X123444000Y-95821500D02*
X122491500Y-96774000D01*
X123444000Y-92202000D02*
X123444000Y-95821500D01*
X127508000Y-98044000D02*
X126238000Y-96774000D01*
X126238000Y-96774000D02*
X122491500Y-96774000D01*
X130048000Y-98044000D02*
X127508000Y-98044000D01*
D32*
X130175000Y-79756000D02*
X130175000Y-73025000D01*
X129667000Y-56642000D02*
X129667000Y-50038000D01*
X123444000Y-62865000D02*
X129667000Y-56642000D01*
X123444000Y-66294000D02*
X123444000Y-62865000D01*
X130175000Y-73025000D02*
X123444000Y-66294000D01*
D31*
X145415000Y-100965000D02*
X138049000Y-93599000D01*
X138049000Y-93599000D02*
X130048000Y-93599000D01*
X130048000Y-93599000D02*
X127508000Y-91059000D01*
X127508000Y-91059000D02*
X127508000Y-85217000D01*
X127508000Y-85217000D02*
X130175000Y-82550000D01*
X130175000Y-82550000D02*
X130175000Y-79756000D01*
X145415000Y-102870000D02*
X145415000Y-100965000D01*
X140208000Y-79883000D02*
X140335000Y-79756000D01*
X155575000Y-100965000D02*
X153543000Y-98933000D01*
X153543000Y-98933000D02*
X148463000Y-98933000D01*
X148463000Y-98933000D02*
X140208000Y-90678000D01*
X140208000Y-90678000D02*
X140208000Y-79883000D01*
X155575000Y-102870000D02*
X155575000Y-100965000D01*
X153035000Y-100965000D02*
X152019000Y-99949000D01*
X152019000Y-99949000D02*
X148209000Y-99949000D01*
X148209000Y-99949000D02*
X139319000Y-91059000D01*
X139319000Y-91059000D02*
X139319000Y-83947000D01*
X139319000Y-83947000D02*
X137795000Y-82423000D01*
X137795000Y-82423000D02*
X137795000Y-79756000D01*
X153035000Y-102870000D02*
X153035000Y-100965000D01*
D32*
X127635000Y-79756000D02*
X127635000Y-72136000D01*
X127127000Y-57658000D02*
X127127000Y-50038000D01*
X122428000Y-62357000D02*
X127127000Y-57658000D01*
X122428000Y-66929000D02*
X122428000Y-62357000D01*
X127635000Y-72136000D02*
X122428000Y-66929000D01*
D31*
X142875000Y-99568000D02*
X137858500Y-94551500D01*
X137858500Y-94551500D02*
X129857500Y-94551500D01*
X129857500Y-94551500D02*
X126492000Y-91186000D01*
X126492000Y-91186000D02*
X126492000Y-83693000D01*
X126492000Y-83693000D02*
X127635000Y-82550000D01*
X127635000Y-82550000D02*
X127635000Y-79756000D01*
X142875000Y-102870000D02*
X142875000Y-99568000D01*
D32*
X125095000Y-79756000D02*
X125095000Y-71056500D01*
X124587000Y-58801000D02*
X124587000Y-50038000D01*
X121539000Y-61849000D02*
X124587000Y-58801000D01*
X121539000Y-67500500D02*
X121539000Y-61849000D01*
X125095000Y-71056500D02*
X121539000Y-67500500D01*
D31*
X140335000Y-98298000D02*
X137287000Y-95250000D01*
X137287000Y-95250000D02*
X129540000Y-95250000D01*
X129540000Y-95250000D02*
X125603000Y-91313000D01*
X125603000Y-91313000D02*
X125603000Y-82931000D01*
X140335000Y-102870000D02*
X140335000Y-98298000D01*
X125603000Y-82423000D02*
X125095000Y-81915000D01*
X125095000Y-81915000D02*
X125095000Y-79756000D01*
X125603000Y-82931000D02*
X125603000Y-82423000D01*
X168275000Y-97853500D02*
X166370000Y-95948500D01*
X166370000Y-95948500D02*
X166370000Y-89535000D01*
X168275000Y-102870000D02*
X168275000Y-97853500D01*
X166370000Y-87122000D02*
X163195000Y-83947000D01*
X163195000Y-83947000D02*
X163195000Y-79756000D01*
X166370000Y-89535000D02*
X166370000Y-87122000D01*
X165735000Y-83629500D02*
X165735000Y-79756000D01*
X167894000Y-85788500D02*
X165735000Y-83629500D01*
X167894000Y-95059500D02*
X167894000Y-85788500D01*
X170815000Y-97980500D02*
X167894000Y-95059500D01*
X170815000Y-102870000D02*
X170815000Y-97980500D01*
D32*
X116967000Y-71120000D02*
X113030000Y-71120000D01*
X117475000Y-71628000D02*
X116967000Y-71120000D01*
D31*
X158115000Y-101473000D02*
X150368000Y-93726000D01*
X150368000Y-93726000D02*
X150368000Y-86106000D01*
X150368000Y-86106000D02*
X147320000Y-83058000D01*
X147320000Y-83058000D02*
X144399000Y-83058000D01*
X144399000Y-83058000D02*
X142875000Y-81534000D01*
X142875000Y-81534000D02*
X142875000Y-79756000D01*
X158115000Y-102870000D02*
X158115000Y-101473000D01*
D34*
X118364000Y-73787000D02*
X113157000Y-73787000D01*
X119380000Y-72771000D02*
X118364000Y-73787000D01*
X119380000Y-67818000D02*
X119380000Y-72771000D01*
X118999000Y-67437000D02*
X119380000Y-67818000D01*
X113157000Y-73787000D02*
X113030000Y-73660000D01*
D32*
X177165000Y-86233000D02*
X183134000Y-86233000D01*
X173736000Y-87884000D02*
X175387000Y-86233000D01*
X175387000Y-86233000D02*
X177165000Y-86233000D01*
X148844000Y-81915000D02*
X152019000Y-85090000D01*
X146304000Y-81915000D02*
X148844000Y-81915000D01*
X145415000Y-81026000D02*
X146304000Y-81915000D01*
X145415000Y-79756000D02*
X145415000Y-81026000D01*
X183134000Y-86233000D02*
X186309000Y-89408000D01*
X158305500Y-99822000D02*
X152019000Y-93535500D01*
X152019000Y-93535500D02*
X152019000Y-85090000D01*
X160274000Y-99822000D02*
X158305500Y-99822000D01*
D31*
X133350000Y-73088500D02*
X133350000Y-69659500D01*
X133350000Y-69659500D02*
X131635500Y-67945000D01*
X145415000Y-79756000D02*
X145415000Y-77914500D01*
X137795000Y-77533500D02*
X136144000Y-75882500D01*
X145034000Y-77533500D02*
X137795000Y-77533500D01*
X145415000Y-77914500D02*
X145034000Y-77533500D01*
X136144000Y-75882500D02*
X133350000Y-73088500D01*
D32*
X119380000Y-67818000D02*
X118999000Y-67437000D01*
X119380000Y-72771000D02*
X119380000Y-67818000D01*
X118491000Y-73660000D02*
X119380000Y-72771000D01*
X113030000Y-73660000D02*
X118491000Y-73660000D01*
D34*
X158115000Y-78740000D02*
X158115000Y-79756000D01*
D31*
X163195000Y-98933000D02*
X158115000Y-93853000D01*
X163195000Y-102870000D02*
X163195000Y-98933000D01*
X158115000Y-93853000D02*
X158115000Y-79756000D01*
D32*
X135509000Y-72009000D02*
X138811000Y-75311000D01*
X138811000Y-75311000D02*
X151003000Y-75311000D01*
X151003000Y-75311000D02*
X152400000Y-76708000D01*
X152400000Y-76708000D02*
X156845000Y-76708000D01*
X156845000Y-76708000D02*
X158115000Y-77978000D01*
X158115000Y-77978000D02*
X158115000Y-79756000D01*
X135509000Y-71945500D02*
X135509000Y-72009000D01*
D31*
X165735000Y-98552000D02*
X159385000Y-92202000D01*
X165735000Y-102870000D02*
X165735000Y-98552000D01*
X160655000Y-82042000D02*
X160655000Y-79756000D01*
X159385000Y-83312000D02*
X160655000Y-82042000D01*
X159385000Y-92202000D02*
X159385000Y-83312000D01*
D32*
X160655000Y-76581000D02*
X159512000Y-75438000D01*
X159512000Y-75438000D02*
X154559000Y-75438000D01*
X154559000Y-75438000D02*
X152527000Y-73406000D01*
X152527000Y-73406000D02*
X140716000Y-73406000D01*
X140716000Y-73406000D02*
X138303000Y-70993000D01*
X160655000Y-79756000D02*
X160655000Y-76581000D01*
D33*
X116967000Y-50038000D02*
X116967000Y-45974000D01*
X108648500Y-53784500D02*
X106045000Y-53784500D01*
X110871000Y-51562000D02*
X108648500Y-53784500D01*
X110871000Y-45402500D02*
X110871000Y-51562000D01*
X113411000Y-42862500D02*
X110871000Y-45402500D01*
X116967000Y-45974000D02*
X116332000Y-45339000D01*
D30*
X116967000Y-50038000D02*
X116967000Y-59055000D01*
X116967000Y-59055000D02*
X113855500Y-62166500D01*
X110490000Y-68580000D02*
X110490000Y-65532000D01*
X110490000Y-65532000D02*
X113855500Y-62166500D01*
X107950000Y-94488000D02*
X105664000Y-92202000D01*
X105664000Y-92202000D02*
X105664000Y-89408000D01*
X110490000Y-76200000D02*
X106680000Y-76200000D01*
X105410000Y-78105000D02*
X105410000Y-77470000D01*
X105410000Y-77470000D02*
X106680000Y-76200000D01*
X105410000Y-86487000D02*
X105410000Y-89154000D01*
X105410000Y-78105000D02*
X105410000Y-86487000D01*
X105664000Y-89408000D02*
X105410000Y-89154000D01*
X176276000Y-96329500D02*
X171450000Y-91503500D01*
X171450000Y-91503500D02*
X171450000Y-89535000D01*
X132588000Y-103124000D02*
X132588000Y-100584000D01*
X132588000Y-100584000D02*
X132588000Y-98044000D01*
X105664000Y-89408000D02*
X105664000Y-92202000D01*
X110490000Y-76200000D02*
X110490000Y-73660000D01*
X110490000Y-73660000D02*
X110490000Y-71120000D01*
X110490000Y-71120000D02*
X110490000Y-68580000D01*
X118999000Y-84836000D02*
X107061000Y-84836000D01*
X123444000Y-89281000D02*
X118999000Y-84836000D01*
X107061000Y-84836000D02*
X105410000Y-86487000D01*
X131572000Y-96393000D02*
X127889000Y-96393000D01*
X127889000Y-96393000D02*
X125603000Y-94107000D01*
X125603000Y-93726000D02*
X125603000Y-93599000D01*
X125603000Y-94107000D02*
X125603000Y-93726000D01*
X132588000Y-97409000D02*
X131572000Y-96393000D01*
D33*
X125603000Y-92710000D02*
X124714000Y-91821000D01*
X124714000Y-91821000D02*
X124714000Y-90551000D01*
X124714000Y-90551000D02*
X123444000Y-89281000D01*
X125603000Y-93726000D02*
X125603000Y-92710000D01*
X133731000Y-96266000D02*
X136398000Y-96266000D01*
X136398000Y-96266000D02*
X137795000Y-97663000D01*
X137795000Y-97663000D02*
X137795000Y-99060000D01*
X132588000Y-97409000D02*
X133731000Y-96266000D01*
X132588000Y-98044000D02*
X132588000Y-97409000D01*
D30*
X150495000Y-81153000D02*
X153955750Y-84613750D01*
X150495000Y-79756000D02*
X150495000Y-81153000D01*
X153955750Y-92424250D02*
X159194500Y-97663000D01*
X153955750Y-84613750D02*
X153955750Y-92424250D01*
D31*
X130937000Y-55118000D02*
X133159500Y-52895500D01*
X133159500Y-52895500D02*
X154305000Y-52895500D01*
X154305000Y-52895500D02*
X155067000Y-52133500D01*
X155067000Y-52133500D02*
X155067000Y-50038000D01*
D34*
X115697000Y-65151000D02*
X119126000Y-65151000D01*
X114935000Y-64389000D02*
X115697000Y-65151000D01*
D31*
X147955000Y-102235000D02*
X138303000Y-92583000D01*
X138303000Y-92583000D02*
X130302000Y-92583000D01*
X130302000Y-92583000D02*
X128524000Y-90805000D01*
X128524000Y-90805000D02*
X128524000Y-86487000D01*
X128524000Y-86487000D02*
X132715000Y-82296000D01*
X132715000Y-82296000D02*
X132715000Y-79756000D01*
X147955000Y-102870000D02*
X147955000Y-102235000D01*
X150495000Y-101600000D02*
X149860000Y-100965000D01*
X149860000Y-100965000D02*
X147955000Y-100965000D01*
X147955000Y-100965000D02*
X138430000Y-91440000D01*
X138430000Y-91440000D02*
X138430000Y-85344000D01*
X138430000Y-85344000D02*
X135255000Y-82169000D01*
X135255000Y-82169000D02*
X135255000Y-79756000D01*
X150495000Y-102870000D02*
X150495000Y-101600000D01*
X175895000Y-99822000D02*
X169926000Y-93853000D01*
X169926000Y-93853000D02*
X169926000Y-83375500D01*
X169926000Y-83375500D02*
X170815000Y-82486500D01*
X170815000Y-82486500D02*
X170815000Y-79756000D01*
X175895000Y-102870000D02*
X175895000Y-99822000D01*
D32*
X178435000Y-102870000D02*
X178435000Y-102489000D01*
X178435000Y-102489000D02*
X188341000Y-92583000D01*
X181991000Y-79756000D02*
X173355000Y-79756000D01*
X188341000Y-86106000D02*
X181991000Y-79756000D01*
X188341000Y-92583000D02*
X188341000Y-86106000D01*
X185991500Y-69088000D02*
X185991500Y-71056500D01*
X185991500Y-71056500D02*
X186690000Y-71755000D01*
X180975000Y-102870000D02*
X180975000Y-101981000D01*
X180975000Y-101981000D02*
X189611000Y-93345000D01*
X189611000Y-93345000D02*
X189611000Y-74676000D01*
X189611000Y-74676000D02*
X186690000Y-71755000D01*
D31*
X173355000Y-60642500D02*
X174879000Y-59118500D01*
X174879000Y-59118500D02*
X183515000Y-59118500D01*
X183515000Y-59118500D02*
X185991500Y-61595000D01*
X185991500Y-61595000D02*
X185991500Y-69088000D01*
X173355000Y-64516000D02*
X173355000Y-60642500D01*
D33*
X142875000Y-64516000D02*
X142875000Y-63627000D01*
D32*
X180975000Y-46101000D02*
X166116000Y-60960000D01*
X166116000Y-60960000D02*
X145034000Y-60960000D01*
X145034000Y-60960000D02*
X142875000Y-63119000D01*
X142875000Y-63119000D02*
X142875000Y-64516000D01*
X180975000Y-39370000D02*
X180975000Y-46101000D01*
X140335000Y-62611000D02*
X143002000Y-59944000D01*
X143002000Y-59944000D02*
X165608000Y-59944000D01*
X165608000Y-59944000D02*
X178435000Y-47117000D01*
X178435000Y-47117000D02*
X178435000Y-39370000D01*
X140335000Y-64516000D02*
X140335000Y-62611000D01*
D33*
X137795000Y-64516000D02*
X137795000Y-63627000D01*
D32*
X175895000Y-48133000D02*
X165100000Y-58928000D01*
X165100000Y-58928000D02*
X141478000Y-58928000D01*
X141478000Y-58928000D02*
X137795000Y-62611000D01*
X137795000Y-62611000D02*
X137795000Y-64516000D01*
X175895000Y-39370000D02*
X175895000Y-48133000D01*
X135255000Y-62611000D02*
X139954000Y-57912000D01*
X139954000Y-57912000D02*
X164592000Y-57912000D01*
X164592000Y-57912000D02*
X173355000Y-49149000D01*
X173355000Y-49149000D02*
X173355000Y-39370000D01*
X135255000Y-64516000D02*
X135255000Y-62611000D01*
X170815000Y-50165000D02*
X164084000Y-56896000D01*
X164084000Y-56896000D02*
X137668000Y-56896000D01*
X137668000Y-56896000D02*
X132715000Y-61849000D01*
X132715000Y-61849000D02*
X132715000Y-64516000D01*
X170815000Y-39370000D02*
X170815000Y-50165000D01*
X130175000Y-62103000D02*
X136398000Y-55880000D01*
X136398000Y-55880000D02*
X163576000Y-55880000D01*
X163576000Y-55880000D02*
X168275000Y-51181000D01*
X168275000Y-51181000D02*
X168275000Y-39370000D01*
X130175000Y-64516000D02*
X130175000Y-62103000D01*
X165735000Y-52197000D02*
X163068000Y-54864000D01*
X163068000Y-54864000D02*
X134620000Y-54864000D01*
X134620000Y-54864000D02*
X127635000Y-61849000D01*
X127635000Y-61849000D02*
X127635000Y-64516000D01*
X165735000Y-39370000D02*
X165735000Y-52197000D01*
X125095000Y-66103500D02*
X125095000Y-64516000D01*
X126809500Y-67818000D02*
X125095000Y-66103500D01*
X128905000Y-67818000D02*
X126809500Y-67818000D01*
X131445000Y-70358000D02*
X128905000Y-67818000D01*
D34*
X133985000Y-82677000D02*
X133985000Y-77724000D01*
D31*
X133985000Y-82677000D02*
X133985000Y-82804000D01*
D32*
X125095000Y-62865000D02*
X134112000Y-53848000D01*
X125095000Y-64516000D02*
X125095000Y-62865000D01*
X163195000Y-53213000D02*
X163195000Y-39370000D01*
X162560000Y-53848000D02*
X163195000Y-53213000D01*
X134112000Y-53848000D02*
X162560000Y-53848000D01*
D31*
X131445000Y-73596500D02*
X133985000Y-76136500D01*
X133985000Y-76136500D02*
X133985000Y-77724000D01*
X131445000Y-70358000D02*
X131445000Y-73596500D01*
D30*
X117396000Y-95044000D02*
X117396000Y-100584000D01*
X111760000Y-89408000D02*
X117396000Y-95044000D01*
D32*
X122047000Y-50038000D02*
X122047000Y-52832000D01*
X122428000Y-81661000D02*
X122809000Y-81661000D01*
X121412000Y-80645000D02*
X122428000Y-81661000D01*
X121412000Y-78105000D02*
X121412000Y-80645000D01*
X123698000Y-75819000D02*
X121412000Y-78105000D01*
X123698000Y-71120000D02*
X123698000Y-75819000D01*
X120523000Y-67945000D02*
X123698000Y-71120000D01*
X120523000Y-61468000D02*
X120523000Y-67945000D01*
X123317000Y-58674000D02*
X120523000Y-61468000D01*
X123317000Y-54102000D02*
X123317000Y-58674000D01*
X122047000Y-52832000D02*
X123317000Y-54102000D01*
D35*
X110744000Y-59055000D02*
X113030000Y-56769000D01*
X113030000Y-56769000D02*
X113030000Y-53213000D01*
X110744000Y-57277000D02*
X111760000Y-56261000D01*
X111760000Y-56261000D02*
X111760000Y-54610000D01*
M02*
