M48
;DRILL file {kicad (2015-01-16 BZR 5376)-product} date 1/29/2016 4:56:42 PM
;FORMAT={-:-/ absolute / metric / decimal}
FMAT,2
METRIC,TZ
T1C0.635
T2C0.762
T3C0.800
T4C0.813
T5C0.900
T6C0.998
T7C1.016
T8C1.199
T9C1.200
%
G90
G05
M71
T1
X159.195Y-97.663
T2
X156.083Y-73.152
X161.163Y-73.152
T3
X106.045Y-53.784
X106.997Y-72.009
X110.744Y-57.277
X110.744Y-59.055
X111.76Y-54.61
X113.03Y-53.213
X113.411Y-42.862
X114.935Y-64.389
X116.332Y-45.339
X116.967Y-62.865
X117.475Y-71.628
X118.999Y-67.437
X119.126Y-65.151
X120.968Y-70.548
X122.809Y-81.661
X123.444Y-89.281
X123.444Y-92.202
X130.937Y-55.118
X131.636Y-67.945
X133.985Y-82.677
X135.509Y-71.945
X137.795Y-99.06
X138.239Y-67.12
X138.303Y-70.993
X160.274Y-99.822
X173.736Y-87.884
X174.752Y-55.372
X176.276Y-96.329
X179.324Y-61.785
X181.229Y-61.912
X182.753Y-76.517
X183.197Y-61.912
T4
X125.095Y-64.516
X125.095Y-79.756
X127.635Y-64.516
X127.635Y-79.756
X130.048Y-98.044
X130.048Y-100.584
X130.048Y-103.124
X130.175Y-64.516
X130.175Y-79.756
X132.588Y-98.044
X132.588Y-100.584
X132.588Y-103.124
X132.715Y-64.516
X132.715Y-79.756
X135.128Y-98.044
X135.128Y-100.584
X135.128Y-103.124
X135.255Y-64.516
X135.255Y-79.756
X137.795Y-64.516
X137.795Y-79.756
X140.335Y-39.37
X140.335Y-64.516
X140.335Y-79.756
X140.335Y-102.87
X142.875Y-39.37
X142.875Y-64.516
X142.875Y-79.756
X142.875Y-102.87
X145.415Y-39.37
X145.415Y-64.516
X145.415Y-79.756
X145.415Y-102.87
X147.955Y-39.37
X147.955Y-64.516
X147.955Y-79.756
X147.955Y-102.87
X150.495Y-39.37
X150.495Y-64.516
X150.495Y-79.756
X150.495Y-102.87
X153.035Y-39.37
X153.035Y-64.516
X153.035Y-79.756
X153.035Y-102.87
X155.575Y-39.37
X155.575Y-64.516
X155.575Y-79.756
X155.575Y-102.87
X158.115Y-39.37
X158.115Y-64.516
X158.115Y-79.756
X158.115Y-102.87
X160.655Y-64.516
X160.655Y-79.756
X161.29Y-89.535
X163.195Y-39.37
X163.195Y-64.516
X163.195Y-79.756
X163.195Y-102.87
X165.735Y-39.37
X165.735Y-64.516
X165.735Y-79.756
X165.735Y-102.87
X166.37Y-89.535
X168.275Y-39.37
X168.275Y-64.516
X168.275Y-79.756
X168.275Y-102.87
X170.815Y-39.37
X170.815Y-64.516
X170.815Y-79.756
X170.815Y-102.87
X171.45Y-89.535
X173.355Y-39.37
X173.355Y-64.516
X173.355Y-79.756
X173.355Y-102.87
X175.895Y-39.37
X175.895Y-102.87
X176.53Y-89.535
X178.435Y-39.37
X178.435Y-102.87
X180.975Y-39.37
X180.975Y-102.87
X186.309Y-89.408
X191.389Y-89.408
T6
X110.49Y-68.58
X110.49Y-71.12
X110.49Y-73.66
X110.49Y-76.2
X110.49Y-78.74
X113.03Y-68.58
X113.03Y-71.12
X113.03Y-73.66
X113.03Y-76.2
X113.03Y-78.74
X116.967Y-50.038
X119.507Y-50.038
X122.047Y-50.038
X124.587Y-50.038
X127.127Y-50.038
X129.667Y-50.038
X132.207Y-50.038
X134.747Y-50.038
X137.287Y-50.038
X139.827Y-50.038
X142.367Y-50.038
X144.907Y-50.038
X147.447Y-50.038
X149.987Y-50.038
X152.527Y-50.038
X155.067Y-50.038
T7
X117.396Y-100.584
X120.396Y-100.584
X123.396Y-100.584
T8
X131.572Y-90.424
X134.071Y-85.385
X136.571Y-90.424
X142.748Y-90.424
X145.247Y-85.385
X147.747Y-90.424
T5
X104.285Y-49.15G85X105.085Y-49.15
G05
X104.285Y-58.8G85X105.085Y-58.8
G05
X107.585Y-49.15G85X108.385Y-49.15
G05
X107.585Y-58.8G85X108.385Y-58.8
G05
T7
X114.996Y-99.592G85X114.996Y-101.576
G05
X125.796Y-99.592G85X125.796Y-101.576
G05
T9
X105.664Y-88.508G85X105.664Y-90.308
G05
X107.05Y-94.488G85X108.85Y-94.488
G05
X111.76Y-88.508G85X111.76Y-90.308
G05
T0
M30
