G04 #@! TF.FileFunction,Legend,Top*
%FSLAX46Y46*%
G04 Gerber Fmt 4.6, Leading zero omitted, Abs format (unit mm)*
G04 Created by KiCad (PCBNEW (2015-01-16 BZR 5376)-product) date 1/29/2016 4:56:34 PM*
%MOMM*%
G01*
G04 APERTURE LIST*
%ADD10C,0.150000*%
%ADD11C,0.254000*%
%ADD12C,0.317500*%
%ADD13C,0.444500*%
%ADD14C,0.381000*%
%ADD15C,0.304800*%
%ADD16C,0.127000*%
%ADD17C,0.063500*%
%ADD18C,0.050800*%
%ADD19C,0.200660*%
G04 APERTURE END LIST*
D10*
D11*
X187119381Y-85041619D02*
X186780715Y-84557810D01*
X186538810Y-85041619D02*
X186538810Y-84025619D01*
X186925857Y-84025619D01*
X187022619Y-84074000D01*
X187071000Y-84122381D01*
X187119381Y-84219143D01*
X187119381Y-84364286D01*
X187071000Y-84461048D01*
X187022619Y-84509429D01*
X186925857Y-84557810D01*
X186538810Y-84557810D01*
X187554810Y-84509429D02*
X187893476Y-84509429D01*
X188038619Y-85041619D02*
X187554810Y-85041619D01*
X187554810Y-84025619D01*
X188038619Y-84025619D01*
X188425667Y-84993238D02*
X188570810Y-85041619D01*
X188812714Y-85041619D01*
X188909476Y-84993238D01*
X188957857Y-84944857D01*
X189006238Y-84848095D01*
X189006238Y-84751333D01*
X188957857Y-84654571D01*
X188909476Y-84606190D01*
X188812714Y-84557810D01*
X188619191Y-84509429D01*
X188522429Y-84461048D01*
X188474048Y-84412667D01*
X188425667Y-84315905D01*
X188425667Y-84219143D01*
X188474048Y-84122381D01*
X188522429Y-84074000D01*
X188619191Y-84025619D01*
X188861095Y-84025619D01*
X189006238Y-84074000D01*
X189441667Y-84509429D02*
X189780333Y-84509429D01*
X189925476Y-85041619D02*
X189441667Y-85041619D01*
X189441667Y-84025619D01*
X189925476Y-84025619D01*
X190215762Y-84025619D02*
X190796333Y-84025619D01*
X190506048Y-85041619D02*
X190506048Y-84025619D01*
X172762334Y-85120238D02*
X172907477Y-85168619D01*
X173149381Y-85168619D01*
X173246143Y-85120238D01*
X173294524Y-85071857D01*
X173342905Y-84975095D01*
X173342905Y-84878333D01*
X173294524Y-84781571D01*
X173246143Y-84733190D01*
X173149381Y-84684810D01*
X172955858Y-84636429D01*
X172859096Y-84588048D01*
X172810715Y-84539667D01*
X172762334Y-84442905D01*
X172762334Y-84346143D01*
X172810715Y-84249381D01*
X172859096Y-84201000D01*
X172955858Y-84152619D01*
X173197762Y-84152619D01*
X173342905Y-84201000D01*
X173681572Y-84152619D02*
X173923477Y-85168619D01*
X174117000Y-84442905D01*
X174310524Y-85168619D01*
X174552429Y-84152619D01*
X174891096Y-84249381D02*
X174939477Y-84201000D01*
X175036239Y-84152619D01*
X175278143Y-84152619D01*
X175374905Y-84201000D01*
X175423286Y-84249381D01*
X175471667Y-84346143D01*
X175471667Y-84442905D01*
X175423286Y-84588048D01*
X174842715Y-85168619D01*
X175471667Y-85168619D01*
X162475334Y-85120238D02*
X162620477Y-85168619D01*
X162862381Y-85168619D01*
X162959143Y-85120238D01*
X163007524Y-85071857D01*
X163055905Y-84975095D01*
X163055905Y-84878333D01*
X163007524Y-84781571D01*
X162959143Y-84733190D01*
X162862381Y-84684810D01*
X162668858Y-84636429D01*
X162572096Y-84588048D01*
X162523715Y-84539667D01*
X162475334Y-84442905D01*
X162475334Y-84346143D01*
X162523715Y-84249381D01*
X162572096Y-84201000D01*
X162668858Y-84152619D01*
X162910762Y-84152619D01*
X163055905Y-84201000D01*
X163394572Y-84152619D02*
X163636477Y-85168619D01*
X163830000Y-84442905D01*
X164023524Y-85168619D01*
X164265429Y-84152619D01*
X165184667Y-85168619D02*
X164604096Y-85168619D01*
X164894382Y-85168619D02*
X164894382Y-84152619D01*
X164797620Y-84297762D01*
X164700858Y-84394524D01*
X164604096Y-84442905D01*
X158193619Y-89020952D02*
X158193619Y-89504761D01*
X157177619Y-89504761D01*
X157661429Y-88682285D02*
X157661429Y-88343619D01*
X158193619Y-88198476D02*
X158193619Y-88682285D01*
X157177619Y-88682285D01*
X157177619Y-88198476D01*
X158193619Y-87763047D02*
X157177619Y-87763047D01*
X157177619Y-87521142D01*
X157226000Y-87376000D01*
X157322762Y-87279238D01*
X157419524Y-87230857D01*
X157613048Y-87182476D01*
X157758190Y-87182476D01*
X157951714Y-87230857D01*
X158048476Y-87279238D01*
X158145238Y-87376000D01*
X158193619Y-87521142D01*
X158193619Y-87763047D01*
X157274381Y-86795428D02*
X157226000Y-86747047D01*
X157177619Y-86650285D01*
X157177619Y-86408381D01*
X157226000Y-86311619D01*
X157274381Y-86263238D01*
X157371143Y-86214857D01*
X157467905Y-86214857D01*
X157613048Y-86263238D01*
X158193619Y-86843809D01*
X158193619Y-86214857D01*
X153621619Y-88893952D02*
X153621619Y-89377761D01*
X152605619Y-89377761D01*
X153089429Y-88555285D02*
X153089429Y-88216619D01*
X153621619Y-88071476D02*
X153621619Y-88555285D01*
X152605619Y-88555285D01*
X152605619Y-88071476D01*
X153621619Y-87636047D02*
X152605619Y-87636047D01*
X152605619Y-87394142D01*
X152654000Y-87249000D01*
X152750762Y-87152238D01*
X152847524Y-87103857D01*
X153041048Y-87055476D01*
X153186190Y-87055476D01*
X153379714Y-87103857D01*
X153476476Y-87152238D01*
X153573238Y-87249000D01*
X153621619Y-87394142D01*
X153621619Y-87636047D01*
X153621619Y-86087857D02*
X153621619Y-86668428D01*
X153621619Y-86378142D02*
X152605619Y-86378142D01*
X152750762Y-86474904D01*
X152847524Y-86571666D01*
X152895905Y-86668428D01*
D10*
X188000000Y-105000000D02*
G75*
G03X193000000Y-100000000I0J5000000D01*
G01*
D11*
X133156476Y-93169619D02*
X132672667Y-93169619D01*
X132672667Y-92153619D01*
X134075714Y-93072857D02*
X134027333Y-93121238D01*
X133882190Y-93169619D01*
X133785428Y-93169619D01*
X133640286Y-93121238D01*
X133543524Y-93024476D01*
X133495143Y-92927714D01*
X133446762Y-92734190D01*
X133446762Y-92589048D01*
X133495143Y-92395524D01*
X133543524Y-92298762D01*
X133640286Y-92202000D01*
X133785428Y-92153619D01*
X133882190Y-92153619D01*
X134027333Y-92202000D01*
X134075714Y-92250381D01*
X134511143Y-93169619D02*
X134511143Y-92153619D01*
X134753048Y-92153619D01*
X134898190Y-92202000D01*
X134994952Y-92298762D01*
X135043333Y-92395524D01*
X135091714Y-92589048D01*
X135091714Y-92734190D01*
X135043333Y-92927714D01*
X134994952Y-93024476D01*
X134898190Y-93121238D01*
X134753048Y-93169619D01*
X134511143Y-93169619D01*
X143546286Y-92879333D02*
X144030095Y-92879333D01*
X143449524Y-93169619D02*
X143788191Y-92153619D01*
X144126857Y-93169619D01*
X144465524Y-93169619D02*
X144465524Y-92153619D01*
X144707429Y-92153619D01*
X144852571Y-92202000D01*
X144949333Y-92298762D01*
X144997714Y-92395524D01*
X145046095Y-92589048D01*
X145046095Y-92734190D01*
X144997714Y-92927714D01*
X144949333Y-93024476D01*
X144852571Y-93121238D01*
X144707429Y-93169619D01*
X144465524Y-93169619D01*
X146062095Y-93072857D02*
X146013714Y-93121238D01*
X145868571Y-93169619D01*
X145771809Y-93169619D01*
X145626667Y-93121238D01*
X145529905Y-93024476D01*
X145481524Y-92927714D01*
X145433143Y-92734190D01*
X145433143Y-92589048D01*
X145481524Y-92395524D01*
X145529905Y-92298762D01*
X145626667Y-92202000D01*
X145771809Y-92153619D01*
X145868571Y-92153619D01*
X146013714Y-92202000D01*
X146062095Y-92250381D01*
X146691048Y-92153619D02*
X146787809Y-92153619D01*
X146884571Y-92202000D01*
X146932952Y-92250381D01*
X146981333Y-92347143D01*
X147029714Y-92540667D01*
X147029714Y-92782571D01*
X146981333Y-92976095D01*
X146932952Y-93072857D01*
X146884571Y-93121238D01*
X146787809Y-93169619D01*
X146691048Y-93169619D01*
X146594286Y-93121238D01*
X146545905Y-93072857D01*
X146497524Y-92976095D01*
X146449143Y-92782571D01*
X146449143Y-92540667D01*
X146497524Y-92347143D01*
X146545905Y-92250381D01*
X146594286Y-92202000D01*
X146691048Y-92153619D01*
D12*
X179620333Y-50612524D02*
X179559857Y-50673000D01*
X179378429Y-50793952D01*
X179257476Y-50854429D01*
X179076048Y-50914905D01*
X178773667Y-50975381D01*
X178531762Y-50975381D01*
X178229381Y-50914905D01*
X178047952Y-50854429D01*
X177927000Y-50793952D01*
X177745571Y-50673000D01*
X177685095Y-50612524D01*
X178773667Y-50189190D02*
X178773667Y-49584428D01*
X179136524Y-50310143D02*
X177866524Y-49886809D01*
X179136524Y-49463476D01*
X179136524Y-49040143D02*
X177866524Y-49040143D01*
X177866524Y-48737762D01*
X177927000Y-48556334D01*
X178047952Y-48435381D01*
X178168905Y-48374905D01*
X178410810Y-48314429D01*
X178592238Y-48314429D01*
X178834143Y-48374905D01*
X178955095Y-48435381D01*
X179076048Y-48556334D01*
X179136524Y-48737762D01*
X179136524Y-49040143D01*
X179015571Y-47044429D02*
X179076048Y-47104905D01*
X179136524Y-47286334D01*
X179136524Y-47407286D01*
X179076048Y-47588714D01*
X178955095Y-47709667D01*
X178834143Y-47770143D01*
X178592238Y-47830619D01*
X178410810Y-47830619D01*
X178168905Y-47770143D01*
X178047952Y-47709667D01*
X177927000Y-47588714D01*
X177866524Y-47407286D01*
X177866524Y-47286334D01*
X177927000Y-47104905D01*
X177987476Y-47044429D01*
X177866524Y-45955857D02*
X177866524Y-46197762D01*
X177927000Y-46318714D01*
X177987476Y-46379191D01*
X178168905Y-46500143D01*
X178410810Y-46560619D01*
X178894619Y-46560619D01*
X179015571Y-46500143D01*
X179076048Y-46439667D01*
X179136524Y-46318714D01*
X179136524Y-46076810D01*
X179076048Y-45955857D01*
X179015571Y-45895381D01*
X178894619Y-45834905D01*
X178592238Y-45834905D01*
X178471286Y-45895381D01*
X178410810Y-45955857D01*
X178350333Y-46076810D01*
X178350333Y-46318714D01*
X178410810Y-46439667D01*
X178471286Y-46500143D01*
X178592238Y-46560619D01*
X179620333Y-45411571D02*
X179559857Y-45351095D01*
X179378429Y-45230143D01*
X179257476Y-45169667D01*
X179076048Y-45109190D01*
X178773667Y-45048714D01*
X178531762Y-45048714D01*
X178229381Y-45109190D01*
X178047952Y-45169667D01*
X177927000Y-45230143D01*
X177745571Y-45351095D01*
X177685095Y-45411571D01*
X179136524Y-44443952D02*
X177866524Y-44443952D01*
X177866524Y-43960143D01*
X177927000Y-43839190D01*
X177987476Y-43778714D01*
X178108429Y-43718238D01*
X178289857Y-43718238D01*
X178410810Y-43778714D01*
X178471286Y-43839190D01*
X178531762Y-43960143D01*
X178531762Y-44443952D01*
X178773667Y-43234428D02*
X178773667Y-42629666D01*
X179136524Y-43355381D02*
X177866524Y-42932047D01*
X179136524Y-42508714D01*
X177866524Y-41541095D02*
X177866524Y-41783000D01*
X177927000Y-41903952D01*
X177987476Y-41964429D01*
X178168905Y-42085381D01*
X178410810Y-42145857D01*
X178894619Y-42145857D01*
X179015571Y-42085381D01*
X179076048Y-42024905D01*
X179136524Y-41903952D01*
X179136524Y-41662048D01*
X179076048Y-41541095D01*
X179015571Y-41480619D01*
X178894619Y-41420143D01*
X178592238Y-41420143D01*
X178471286Y-41480619D01*
X178410810Y-41541095D01*
X178350333Y-41662048D01*
X178350333Y-41903952D01*
X178410810Y-42024905D01*
X178471286Y-42085381D01*
X178592238Y-42145857D01*
D10*
X107500000Y-105000000D02*
X188000000Y-105000000D01*
X102500000Y-42500000D02*
X102500000Y-100000000D01*
X188000000Y-37500000D02*
X107500000Y-37500000D01*
X193000000Y-100000000D02*
X193000000Y-42500000D01*
X102500000Y-100000000D02*
G75*
G03X107500000Y-105000000I5000000J0D01*
G01*
X193000000Y-42500000D02*
G75*
G03X188000000Y-37500000I-5000000J0D01*
G01*
X107500000Y-37500000D02*
G75*
G03X102500000Y-42500000I0J-5000000D01*
G01*
D12*
X182160333Y-50612524D02*
X182099857Y-50673000D01*
X181918429Y-50793952D01*
X181797476Y-50854429D01*
X181616048Y-50914905D01*
X181313667Y-50975381D01*
X181071762Y-50975381D01*
X180769381Y-50914905D01*
X180587952Y-50854429D01*
X180467000Y-50793952D01*
X180285571Y-50673000D01*
X180225095Y-50612524D01*
X181313667Y-50189190D02*
X181313667Y-49584428D01*
X181676524Y-50310143D02*
X180406524Y-49886809D01*
X181676524Y-49463476D01*
X181676524Y-49040143D02*
X180406524Y-49040143D01*
X180406524Y-48737762D01*
X180467000Y-48556334D01*
X180587952Y-48435381D01*
X180708905Y-48374905D01*
X180950810Y-48314429D01*
X181132238Y-48314429D01*
X181374143Y-48374905D01*
X181495095Y-48435381D01*
X181616048Y-48556334D01*
X181676524Y-48737762D01*
X181676524Y-49040143D01*
X181555571Y-47044429D02*
X181616048Y-47104905D01*
X181676524Y-47286334D01*
X181676524Y-47407286D01*
X181616048Y-47588714D01*
X181495095Y-47709667D01*
X181374143Y-47770143D01*
X181132238Y-47830619D01*
X180950810Y-47830619D01*
X180708905Y-47770143D01*
X180587952Y-47709667D01*
X180467000Y-47588714D01*
X180406524Y-47407286D01*
X180406524Y-47286334D01*
X180467000Y-47104905D01*
X180527476Y-47044429D01*
X180406524Y-46621095D02*
X180406524Y-45774429D01*
X181676524Y-46318714D01*
X182160333Y-45411571D02*
X182099857Y-45351095D01*
X181918429Y-45230143D01*
X181797476Y-45169667D01*
X181616048Y-45109190D01*
X181313667Y-45048714D01*
X181071762Y-45048714D01*
X180769381Y-45109190D01*
X180587952Y-45169667D01*
X180467000Y-45230143D01*
X180285571Y-45351095D01*
X180225095Y-45411571D01*
X181676524Y-44443952D02*
X180406524Y-44443952D01*
X180406524Y-43960143D01*
X180467000Y-43839190D01*
X180527476Y-43778714D01*
X180648429Y-43718238D01*
X180829857Y-43718238D01*
X180950810Y-43778714D01*
X181011286Y-43839190D01*
X181071762Y-43960143D01*
X181071762Y-44443952D01*
X181313667Y-43234428D02*
X181313667Y-42629666D01*
X181676524Y-43355381D02*
X180406524Y-42932047D01*
X181676524Y-42508714D01*
X180406524Y-42206333D02*
X180406524Y-41359667D01*
X181676524Y-41903952D01*
X177080333Y-50612524D02*
X177019857Y-50673000D01*
X176838429Y-50793952D01*
X176717476Y-50854429D01*
X176536048Y-50914905D01*
X176233667Y-50975381D01*
X175991762Y-50975381D01*
X175689381Y-50914905D01*
X175507952Y-50854429D01*
X175387000Y-50793952D01*
X175205571Y-50673000D01*
X175145095Y-50612524D01*
X176233667Y-50189190D02*
X176233667Y-49584428D01*
X176596524Y-50310143D02*
X175326524Y-49886809D01*
X176596524Y-49463476D01*
X176596524Y-49040143D02*
X175326524Y-49040143D01*
X175326524Y-48737762D01*
X175387000Y-48556334D01*
X175507952Y-48435381D01*
X175628905Y-48374905D01*
X175870810Y-48314429D01*
X176052238Y-48314429D01*
X176294143Y-48374905D01*
X176415095Y-48435381D01*
X176536048Y-48556334D01*
X176596524Y-48737762D01*
X176596524Y-49040143D01*
X176475571Y-47044429D02*
X176536048Y-47104905D01*
X176596524Y-47286334D01*
X176596524Y-47407286D01*
X176536048Y-47588714D01*
X176415095Y-47709667D01*
X176294143Y-47770143D01*
X176052238Y-47830619D01*
X175870810Y-47830619D01*
X175628905Y-47770143D01*
X175507952Y-47709667D01*
X175387000Y-47588714D01*
X175326524Y-47407286D01*
X175326524Y-47286334D01*
X175387000Y-47104905D01*
X175447476Y-47044429D01*
X175326524Y-45895381D02*
X175326524Y-46500143D01*
X175931286Y-46560619D01*
X175870810Y-46500143D01*
X175810333Y-46379191D01*
X175810333Y-46076810D01*
X175870810Y-45955857D01*
X175931286Y-45895381D01*
X176052238Y-45834905D01*
X176354619Y-45834905D01*
X176475571Y-45895381D01*
X176536048Y-45955857D01*
X176596524Y-46076810D01*
X176596524Y-46379191D01*
X176536048Y-46500143D01*
X176475571Y-46560619D01*
X177080333Y-45411571D02*
X177019857Y-45351095D01*
X176838429Y-45230143D01*
X176717476Y-45169667D01*
X176536048Y-45109190D01*
X176233667Y-45048714D01*
X175991762Y-45048714D01*
X175689381Y-45109190D01*
X175507952Y-45169667D01*
X175387000Y-45230143D01*
X175205571Y-45351095D01*
X175145095Y-45411571D01*
X176596524Y-44443952D02*
X175326524Y-44443952D01*
X175326524Y-43960143D01*
X175387000Y-43839190D01*
X175447476Y-43778714D01*
X175568429Y-43718238D01*
X175749857Y-43718238D01*
X175870810Y-43778714D01*
X175931286Y-43839190D01*
X175991762Y-43960143D01*
X175991762Y-44443952D01*
X176233667Y-43234428D02*
X176233667Y-42629666D01*
X176596524Y-43355381D02*
X175326524Y-42932047D01*
X176596524Y-42508714D01*
X175326524Y-41480619D02*
X175326524Y-42085381D01*
X175931286Y-42145857D01*
X175870810Y-42085381D01*
X175810333Y-41964429D01*
X175810333Y-41662048D01*
X175870810Y-41541095D01*
X175931286Y-41480619D01*
X176052238Y-41420143D01*
X176354619Y-41420143D01*
X176475571Y-41480619D01*
X176536048Y-41541095D01*
X176596524Y-41662048D01*
X176596524Y-41964429D01*
X176536048Y-42085381D01*
X176475571Y-42145857D01*
X174540333Y-50612524D02*
X174479857Y-50673000D01*
X174298429Y-50793952D01*
X174177476Y-50854429D01*
X173996048Y-50914905D01*
X173693667Y-50975381D01*
X173451762Y-50975381D01*
X173149381Y-50914905D01*
X172967952Y-50854429D01*
X172847000Y-50793952D01*
X172665571Y-50673000D01*
X172605095Y-50612524D01*
X173693667Y-50189190D02*
X173693667Y-49584428D01*
X174056524Y-50310143D02*
X172786524Y-49886809D01*
X174056524Y-49463476D01*
X174056524Y-49040143D02*
X172786524Y-49040143D01*
X172786524Y-48737762D01*
X172847000Y-48556334D01*
X172967952Y-48435381D01*
X173088905Y-48374905D01*
X173330810Y-48314429D01*
X173512238Y-48314429D01*
X173754143Y-48374905D01*
X173875095Y-48435381D01*
X173996048Y-48556334D01*
X174056524Y-48737762D01*
X174056524Y-49040143D01*
X173935571Y-47044429D02*
X173996048Y-47104905D01*
X174056524Y-47286334D01*
X174056524Y-47407286D01*
X173996048Y-47588714D01*
X173875095Y-47709667D01*
X173754143Y-47770143D01*
X173512238Y-47830619D01*
X173330810Y-47830619D01*
X173088905Y-47770143D01*
X172967952Y-47709667D01*
X172847000Y-47588714D01*
X172786524Y-47407286D01*
X172786524Y-47286334D01*
X172847000Y-47104905D01*
X172907476Y-47044429D01*
X173209857Y-45955857D02*
X174056524Y-45955857D01*
X172726048Y-46258238D02*
X173633190Y-46560619D01*
X173633190Y-45774429D01*
X174540333Y-45411571D02*
X174479857Y-45351095D01*
X174298429Y-45230143D01*
X174177476Y-45169667D01*
X173996048Y-45109190D01*
X173693667Y-45048714D01*
X173451762Y-45048714D01*
X173149381Y-45109190D01*
X172967952Y-45169667D01*
X172847000Y-45230143D01*
X172665571Y-45351095D01*
X172605095Y-45411571D01*
X174056524Y-44443952D02*
X172786524Y-44443952D01*
X172786524Y-43960143D01*
X172847000Y-43839190D01*
X172907476Y-43778714D01*
X173028429Y-43718238D01*
X173209857Y-43718238D01*
X173330810Y-43778714D01*
X173391286Y-43839190D01*
X173451762Y-43960143D01*
X173451762Y-44443952D01*
X173693667Y-43234428D02*
X173693667Y-42629666D01*
X174056524Y-43355381D02*
X172786524Y-42932047D01*
X174056524Y-42508714D01*
X173209857Y-41541095D02*
X174056524Y-41541095D01*
X172726048Y-41843476D02*
X173633190Y-42145857D01*
X173633190Y-41359667D01*
X172000333Y-50612524D02*
X171939857Y-50673000D01*
X171758429Y-50793952D01*
X171637476Y-50854429D01*
X171456048Y-50914905D01*
X171153667Y-50975381D01*
X170911762Y-50975381D01*
X170609381Y-50914905D01*
X170427952Y-50854429D01*
X170307000Y-50793952D01*
X170125571Y-50673000D01*
X170065095Y-50612524D01*
X171153667Y-50189190D02*
X171153667Y-49584428D01*
X171516524Y-50310143D02*
X170246524Y-49886809D01*
X171516524Y-49463476D01*
X171516524Y-49040143D02*
X170246524Y-49040143D01*
X170246524Y-48737762D01*
X170307000Y-48556334D01*
X170427952Y-48435381D01*
X170548905Y-48374905D01*
X170790810Y-48314429D01*
X170972238Y-48314429D01*
X171214143Y-48374905D01*
X171335095Y-48435381D01*
X171456048Y-48556334D01*
X171516524Y-48737762D01*
X171516524Y-49040143D01*
X171395571Y-47044429D02*
X171456048Y-47104905D01*
X171516524Y-47286334D01*
X171516524Y-47407286D01*
X171456048Y-47588714D01*
X171335095Y-47709667D01*
X171214143Y-47770143D01*
X170972238Y-47830619D01*
X170790810Y-47830619D01*
X170548905Y-47770143D01*
X170427952Y-47709667D01*
X170307000Y-47588714D01*
X170246524Y-47407286D01*
X170246524Y-47286334D01*
X170307000Y-47104905D01*
X170367476Y-47044429D01*
X170246524Y-46621095D02*
X170246524Y-45834905D01*
X170730333Y-46258238D01*
X170730333Y-46076810D01*
X170790810Y-45955857D01*
X170851286Y-45895381D01*
X170972238Y-45834905D01*
X171274619Y-45834905D01*
X171395571Y-45895381D01*
X171456048Y-45955857D01*
X171516524Y-46076810D01*
X171516524Y-46439667D01*
X171456048Y-46560619D01*
X171395571Y-46621095D01*
X172000333Y-45411571D02*
X171939857Y-45351095D01*
X171758429Y-45230143D01*
X171637476Y-45169667D01*
X171456048Y-45109190D01*
X171153667Y-45048714D01*
X170911762Y-45048714D01*
X170609381Y-45109190D01*
X170427952Y-45169667D01*
X170307000Y-45230143D01*
X170125571Y-45351095D01*
X170065095Y-45411571D01*
X171516524Y-44443952D02*
X170246524Y-44443952D01*
X170246524Y-43960143D01*
X170307000Y-43839190D01*
X170367476Y-43778714D01*
X170488429Y-43718238D01*
X170669857Y-43718238D01*
X170790810Y-43778714D01*
X170851286Y-43839190D01*
X170911762Y-43960143D01*
X170911762Y-44443952D01*
X171153667Y-43234428D02*
X171153667Y-42629666D01*
X171516524Y-43355381D02*
X170246524Y-42932047D01*
X171516524Y-42508714D01*
X170246524Y-42206333D02*
X170246524Y-41420143D01*
X170730333Y-41843476D01*
X170730333Y-41662048D01*
X170790810Y-41541095D01*
X170851286Y-41480619D01*
X170972238Y-41420143D01*
X171274619Y-41420143D01*
X171395571Y-41480619D01*
X171456048Y-41541095D01*
X171516524Y-41662048D01*
X171516524Y-42024905D01*
X171456048Y-42145857D01*
X171395571Y-42206333D01*
X169460333Y-50612524D02*
X169399857Y-50673000D01*
X169218429Y-50793952D01*
X169097476Y-50854429D01*
X168916048Y-50914905D01*
X168613667Y-50975381D01*
X168371762Y-50975381D01*
X168069381Y-50914905D01*
X167887952Y-50854429D01*
X167767000Y-50793952D01*
X167585571Y-50673000D01*
X167525095Y-50612524D01*
X168613667Y-50189190D02*
X168613667Y-49584428D01*
X168976524Y-50310143D02*
X167706524Y-49886809D01*
X168976524Y-49463476D01*
X168976524Y-49040143D02*
X167706524Y-49040143D01*
X167706524Y-48737762D01*
X167767000Y-48556334D01*
X167887952Y-48435381D01*
X168008905Y-48374905D01*
X168250810Y-48314429D01*
X168432238Y-48314429D01*
X168674143Y-48374905D01*
X168795095Y-48435381D01*
X168916048Y-48556334D01*
X168976524Y-48737762D01*
X168976524Y-49040143D01*
X168855571Y-47044429D02*
X168916048Y-47104905D01*
X168976524Y-47286334D01*
X168976524Y-47407286D01*
X168916048Y-47588714D01*
X168795095Y-47709667D01*
X168674143Y-47770143D01*
X168432238Y-47830619D01*
X168250810Y-47830619D01*
X168008905Y-47770143D01*
X167887952Y-47709667D01*
X167767000Y-47588714D01*
X167706524Y-47407286D01*
X167706524Y-47286334D01*
X167767000Y-47104905D01*
X167827476Y-47044429D01*
X167827476Y-46560619D02*
X167767000Y-46500143D01*
X167706524Y-46379191D01*
X167706524Y-46076810D01*
X167767000Y-45955857D01*
X167827476Y-45895381D01*
X167948429Y-45834905D01*
X168069381Y-45834905D01*
X168250810Y-45895381D01*
X168976524Y-46621095D01*
X168976524Y-45834905D01*
X169460333Y-45411571D02*
X169399857Y-45351095D01*
X169218429Y-45230143D01*
X169097476Y-45169667D01*
X168916048Y-45109190D01*
X168613667Y-45048714D01*
X168371762Y-45048714D01*
X168069381Y-45109190D01*
X167887952Y-45169667D01*
X167767000Y-45230143D01*
X167585571Y-45351095D01*
X167525095Y-45411571D01*
X168976524Y-44443952D02*
X167706524Y-44443952D01*
X167706524Y-43960143D01*
X167767000Y-43839190D01*
X167827476Y-43778714D01*
X167948429Y-43718238D01*
X168129857Y-43718238D01*
X168250810Y-43778714D01*
X168311286Y-43839190D01*
X168371762Y-43960143D01*
X168371762Y-44443952D01*
X168613667Y-43234428D02*
X168613667Y-42629666D01*
X168976524Y-43355381D02*
X167706524Y-42932047D01*
X168976524Y-42508714D01*
X167827476Y-42145857D02*
X167767000Y-42085381D01*
X167706524Y-41964429D01*
X167706524Y-41662048D01*
X167767000Y-41541095D01*
X167827476Y-41480619D01*
X167948429Y-41420143D01*
X168069381Y-41420143D01*
X168250810Y-41480619D01*
X168976524Y-42206333D01*
X168976524Y-41420143D01*
X166920333Y-50612524D02*
X166859857Y-50673000D01*
X166678429Y-50793952D01*
X166557476Y-50854429D01*
X166376048Y-50914905D01*
X166073667Y-50975381D01*
X165831762Y-50975381D01*
X165529381Y-50914905D01*
X165347952Y-50854429D01*
X165227000Y-50793952D01*
X165045571Y-50673000D01*
X164985095Y-50612524D01*
X166073667Y-50189190D02*
X166073667Y-49584428D01*
X166436524Y-50310143D02*
X165166524Y-49886809D01*
X166436524Y-49463476D01*
X166436524Y-49040143D02*
X165166524Y-49040143D01*
X165166524Y-48737762D01*
X165227000Y-48556334D01*
X165347952Y-48435381D01*
X165468905Y-48374905D01*
X165710810Y-48314429D01*
X165892238Y-48314429D01*
X166134143Y-48374905D01*
X166255095Y-48435381D01*
X166376048Y-48556334D01*
X166436524Y-48737762D01*
X166436524Y-49040143D01*
X166315571Y-47044429D02*
X166376048Y-47104905D01*
X166436524Y-47286334D01*
X166436524Y-47407286D01*
X166376048Y-47588714D01*
X166255095Y-47709667D01*
X166134143Y-47770143D01*
X165892238Y-47830619D01*
X165710810Y-47830619D01*
X165468905Y-47770143D01*
X165347952Y-47709667D01*
X165227000Y-47588714D01*
X165166524Y-47407286D01*
X165166524Y-47286334D01*
X165227000Y-47104905D01*
X165287476Y-47044429D01*
X166436524Y-45834905D02*
X166436524Y-46560619D01*
X166436524Y-46197762D02*
X165166524Y-46197762D01*
X165347952Y-46318714D01*
X165468905Y-46439667D01*
X165529381Y-46560619D01*
X166920333Y-45411571D02*
X166859857Y-45351095D01*
X166678429Y-45230143D01*
X166557476Y-45169667D01*
X166376048Y-45109190D01*
X166073667Y-45048714D01*
X165831762Y-45048714D01*
X165529381Y-45109190D01*
X165347952Y-45169667D01*
X165227000Y-45230143D01*
X165045571Y-45351095D01*
X164985095Y-45411571D01*
X166436524Y-44443952D02*
X165166524Y-44443952D01*
X165166524Y-43960143D01*
X165227000Y-43839190D01*
X165287476Y-43778714D01*
X165408429Y-43718238D01*
X165589857Y-43718238D01*
X165710810Y-43778714D01*
X165771286Y-43839190D01*
X165831762Y-43960143D01*
X165831762Y-44443952D01*
X166073667Y-43234428D02*
X166073667Y-42629666D01*
X166436524Y-43355381D02*
X165166524Y-42932047D01*
X166436524Y-42508714D01*
X166436524Y-41420143D02*
X166436524Y-42145857D01*
X166436524Y-41783000D02*
X165166524Y-41783000D01*
X165347952Y-41903952D01*
X165468905Y-42024905D01*
X165529381Y-42145857D01*
D13*
X111715332Y-39873000D02*
X112307999Y-39873000D01*
X112561999Y-40804333D02*
X111715332Y-40804333D01*
X111715332Y-39026333D01*
X112561999Y-39026333D01*
X113154666Y-40804333D02*
X114085999Y-39619000D01*
X113154666Y-39619000D02*
X114085999Y-40804333D01*
X114763332Y-39619000D02*
X114763332Y-41397000D01*
X114763332Y-39703667D02*
X114932666Y-39619000D01*
X115271332Y-39619000D01*
X115440666Y-39703667D01*
X115525332Y-39788333D01*
X115609999Y-39957667D01*
X115609999Y-40465667D01*
X115525332Y-40635000D01*
X115440666Y-40719667D01*
X115271332Y-40804333D01*
X114932666Y-40804333D01*
X114763332Y-40719667D01*
X116625999Y-40804333D02*
X116456666Y-40719667D01*
X116371999Y-40550333D01*
X116371999Y-39026333D01*
X117557332Y-40804333D02*
X117387999Y-40719667D01*
X117303332Y-40635000D01*
X117218666Y-40465667D01*
X117218666Y-39957667D01*
X117303332Y-39788333D01*
X117387999Y-39703667D01*
X117557332Y-39619000D01*
X117811332Y-39619000D01*
X117980666Y-39703667D01*
X118065332Y-39788333D01*
X118149999Y-39957667D01*
X118149999Y-40465667D01*
X118065332Y-40635000D01*
X117980666Y-40719667D01*
X117811332Y-40804333D01*
X117557332Y-40804333D01*
X118911999Y-40804333D02*
X118911999Y-39619000D01*
X118911999Y-39957667D02*
X118996666Y-39788333D01*
X119081333Y-39703667D01*
X119250666Y-39619000D01*
X119419999Y-39619000D01*
X120690000Y-40719667D02*
X120520666Y-40804333D01*
X120182000Y-40804333D01*
X120012666Y-40719667D01*
X119928000Y-40550333D01*
X119928000Y-39873000D01*
X120012666Y-39703667D01*
X120182000Y-39619000D01*
X120520666Y-39619000D01*
X120690000Y-39703667D01*
X120774666Y-39873000D01*
X120774666Y-40042333D01*
X119928000Y-40211667D01*
X122806667Y-40719667D02*
X123060667Y-40804333D01*
X123484000Y-40804333D01*
X123653333Y-40719667D01*
X123738000Y-40635000D01*
X123822667Y-40465667D01*
X123822667Y-40296333D01*
X123738000Y-40127000D01*
X123653333Y-40042333D01*
X123484000Y-39957667D01*
X123145333Y-39873000D01*
X122976000Y-39788333D01*
X122891333Y-39703667D01*
X122806667Y-39534333D01*
X122806667Y-39365000D01*
X122891333Y-39195667D01*
X122976000Y-39111000D01*
X123145333Y-39026333D01*
X123568667Y-39026333D01*
X123822667Y-39111000D01*
X124330666Y-39619000D02*
X125008000Y-39619000D01*
X124584666Y-39026333D02*
X124584666Y-40550333D01*
X124669333Y-40719667D01*
X124838666Y-40804333D01*
X125008000Y-40804333D01*
X126362666Y-40804333D02*
X126362666Y-39873000D01*
X126278000Y-39703667D01*
X126108666Y-39619000D01*
X125770000Y-39619000D01*
X125600666Y-39703667D01*
X126362666Y-40719667D02*
X126193333Y-40804333D01*
X125770000Y-40804333D01*
X125600666Y-40719667D01*
X125516000Y-40550333D01*
X125516000Y-40381000D01*
X125600666Y-40211667D01*
X125770000Y-40127000D01*
X126193333Y-40127000D01*
X126362666Y-40042333D01*
X127209333Y-40804333D02*
X127209333Y-39619000D01*
X127209333Y-39957667D02*
X127294000Y-39788333D01*
X127378667Y-39703667D01*
X127548000Y-39619000D01*
X127717333Y-39619000D01*
X128056000Y-39619000D02*
X128733334Y-39619000D01*
X128310000Y-39026333D02*
X128310000Y-40550333D01*
X128394667Y-40719667D01*
X128564000Y-40804333D01*
X128733334Y-40804333D01*
X130003334Y-40719667D02*
X129834000Y-40804333D01*
X129495334Y-40804333D01*
X129326000Y-40719667D01*
X129241334Y-40550333D01*
X129241334Y-39873000D01*
X129326000Y-39703667D01*
X129495334Y-39619000D01*
X129834000Y-39619000D01*
X130003334Y-39703667D01*
X130088000Y-39873000D01*
X130088000Y-40042333D01*
X129241334Y-40211667D01*
X130850000Y-40804333D02*
X130850000Y-39619000D01*
X130850000Y-39957667D02*
X130934667Y-39788333D01*
X131019334Y-39703667D01*
X131188667Y-39619000D01*
X131358000Y-39619000D01*
X133220668Y-40296333D02*
X134067334Y-40296333D01*
X133051334Y-40804333D02*
X133644001Y-39026333D01*
X134236668Y-40804333D01*
X134575334Y-39026333D02*
X135168001Y-40804333D01*
X135760668Y-39026333D01*
X137369334Y-40804333D02*
X136776668Y-39957667D01*
X136353334Y-40804333D02*
X136353334Y-39026333D01*
X137030668Y-39026333D01*
X137200001Y-39111000D01*
X137284668Y-39195667D01*
X137369334Y-39365000D01*
X137369334Y-39619000D01*
X137284668Y-39788333D01*
X137200001Y-39873000D01*
X137030668Y-39957667D01*
X136353334Y-39957667D01*
D11*
X135454571Y-96302285D02*
X135454571Y-95528190D01*
X135841619Y-95915238D02*
X135067524Y-95915238D01*
X134825619Y-94560571D02*
X134825619Y-95044380D01*
X135309429Y-95092761D01*
X135261048Y-95044380D01*
X135212667Y-94947618D01*
X135212667Y-94705714D01*
X135261048Y-94608952D01*
X135309429Y-94560571D01*
X135406190Y-94512190D01*
X135648095Y-94512190D01*
X135744857Y-94560571D01*
X135793238Y-94608952D01*
X135841619Y-94705714D01*
X135841619Y-94947618D01*
X135793238Y-95044380D01*
X135744857Y-95092761D01*
X134825619Y-94221904D02*
X135841619Y-93883237D01*
X134825619Y-93544571D01*
X132080000Y-95770095D02*
X132031619Y-95866857D01*
X132031619Y-96012000D01*
X132080000Y-96157142D01*
X132176762Y-96253904D01*
X132273524Y-96302285D01*
X132467048Y-96350666D01*
X132612190Y-96350666D01*
X132805714Y-96302285D01*
X132902476Y-96253904D01*
X132999238Y-96157142D01*
X133047619Y-96012000D01*
X133047619Y-95915238D01*
X132999238Y-95770095D01*
X132950857Y-95721714D01*
X132612190Y-95721714D01*
X132612190Y-95915238D01*
X133047619Y-95286285D02*
X132031619Y-95286285D01*
X133047619Y-94705714D01*
X132031619Y-94705714D01*
X133047619Y-94221904D02*
X132031619Y-94221904D01*
X132031619Y-93979999D01*
X132080000Y-93834857D01*
X132176762Y-93738095D01*
X132273524Y-93689714D01*
X132467048Y-93641333D01*
X132612190Y-93641333D01*
X132805714Y-93689714D01*
X132902476Y-93738095D01*
X132999238Y-93834857D01*
X133047619Y-93979999D01*
X133047619Y-94221904D01*
X129491619Y-96108762D02*
X130507619Y-95770095D01*
X129491619Y-95431429D01*
X130507619Y-95092762D02*
X129491619Y-95092762D01*
X130507619Y-94608952D02*
X129491619Y-94608952D01*
X130507619Y-94028381D01*
X129491619Y-94028381D01*
D12*
X156276524Y-100886381D02*
X155006524Y-100886381D01*
X155006524Y-100402572D01*
X155067000Y-100281619D01*
X155127476Y-100221143D01*
X155248429Y-100160667D01*
X155429857Y-100160667D01*
X155550810Y-100221143D01*
X155611286Y-100281619D01*
X155671762Y-100402572D01*
X155671762Y-100886381D01*
X155611286Y-99193048D02*
X155671762Y-99011619D01*
X155732238Y-98951143D01*
X155853190Y-98890667D01*
X156034619Y-98890667D01*
X156155571Y-98951143D01*
X156216048Y-99011619D01*
X156276524Y-99132572D01*
X156276524Y-99616381D01*
X155006524Y-99616381D01*
X155006524Y-99193048D01*
X155067000Y-99072095D01*
X155127476Y-99011619D01*
X155248429Y-98951143D01*
X155369381Y-98951143D01*
X155490333Y-99011619D01*
X155550810Y-99072095D01*
X155611286Y-99193048D01*
X155611286Y-99616381D01*
X155006524Y-97802095D02*
X155006524Y-98044000D01*
X155067000Y-98164952D01*
X155127476Y-98225429D01*
X155308905Y-98346381D01*
X155550810Y-98406857D01*
X156034619Y-98406857D01*
X156155571Y-98346381D01*
X156216048Y-98285905D01*
X156276524Y-98164952D01*
X156276524Y-97923048D01*
X156216048Y-97802095D01*
X156155571Y-97741619D01*
X156034619Y-97681143D01*
X155732238Y-97681143D01*
X155611286Y-97741619D01*
X155550810Y-97802095D01*
X155490333Y-97923048D01*
X155490333Y-98164952D01*
X155550810Y-98285905D01*
X155611286Y-98346381D01*
X155732238Y-98406857D01*
X153736524Y-100886381D02*
X152466524Y-100886381D01*
X152466524Y-100402572D01*
X152527000Y-100281619D01*
X152587476Y-100221143D01*
X152708429Y-100160667D01*
X152889857Y-100160667D01*
X153010810Y-100221143D01*
X153071286Y-100281619D01*
X153131762Y-100402572D01*
X153131762Y-100886381D01*
X153071286Y-99193048D02*
X153131762Y-99011619D01*
X153192238Y-98951143D01*
X153313190Y-98890667D01*
X153494619Y-98890667D01*
X153615571Y-98951143D01*
X153676048Y-99011619D01*
X153736524Y-99132572D01*
X153736524Y-99616381D01*
X152466524Y-99616381D01*
X152466524Y-99193048D01*
X152527000Y-99072095D01*
X152587476Y-99011619D01*
X152708429Y-98951143D01*
X152829381Y-98951143D01*
X152950333Y-99011619D01*
X153010810Y-99072095D01*
X153071286Y-99193048D01*
X153071286Y-99616381D01*
X152466524Y-97741619D02*
X152466524Y-98346381D01*
X153071286Y-98406857D01*
X153010810Y-98346381D01*
X152950333Y-98225429D01*
X152950333Y-97923048D01*
X153010810Y-97802095D01*
X153071286Y-97741619D01*
X153192238Y-97681143D01*
X153494619Y-97681143D01*
X153615571Y-97741619D01*
X153676048Y-97802095D01*
X153736524Y-97923048D01*
X153736524Y-98225429D01*
X153676048Y-98346381D01*
X153615571Y-98406857D01*
X151196524Y-100886381D02*
X149926524Y-100886381D01*
X149926524Y-100402572D01*
X149987000Y-100281619D01*
X150047476Y-100221143D01*
X150168429Y-100160667D01*
X150349857Y-100160667D01*
X150470810Y-100221143D01*
X150531286Y-100281619D01*
X150591762Y-100402572D01*
X150591762Y-100886381D01*
X150531286Y-99193048D02*
X150591762Y-99011619D01*
X150652238Y-98951143D01*
X150773190Y-98890667D01*
X150954619Y-98890667D01*
X151075571Y-98951143D01*
X151136048Y-99011619D01*
X151196524Y-99132572D01*
X151196524Y-99616381D01*
X149926524Y-99616381D01*
X149926524Y-99193048D01*
X149987000Y-99072095D01*
X150047476Y-99011619D01*
X150168429Y-98951143D01*
X150289381Y-98951143D01*
X150410333Y-99011619D01*
X150470810Y-99072095D01*
X150531286Y-99193048D01*
X150531286Y-99616381D01*
X150349857Y-97802095D02*
X151196524Y-97802095D01*
X149866048Y-98104476D02*
X150773190Y-98406857D01*
X150773190Y-97620667D01*
X148656524Y-100886381D02*
X147386524Y-100886381D01*
X147386524Y-100402572D01*
X147447000Y-100281619D01*
X147507476Y-100221143D01*
X147628429Y-100160667D01*
X147809857Y-100160667D01*
X147930810Y-100221143D01*
X147991286Y-100281619D01*
X148051762Y-100402572D01*
X148051762Y-100886381D01*
X147991286Y-99193048D02*
X148051762Y-99011619D01*
X148112238Y-98951143D01*
X148233190Y-98890667D01*
X148414619Y-98890667D01*
X148535571Y-98951143D01*
X148596048Y-99011619D01*
X148656524Y-99132572D01*
X148656524Y-99616381D01*
X147386524Y-99616381D01*
X147386524Y-99193048D01*
X147447000Y-99072095D01*
X147507476Y-99011619D01*
X147628429Y-98951143D01*
X147749381Y-98951143D01*
X147870333Y-99011619D01*
X147930810Y-99072095D01*
X147991286Y-99193048D01*
X147991286Y-99616381D01*
X147386524Y-98467333D02*
X147386524Y-97681143D01*
X147870333Y-98104476D01*
X147870333Y-97923048D01*
X147930810Y-97802095D01*
X147991286Y-97741619D01*
X148112238Y-97681143D01*
X148414619Y-97681143D01*
X148535571Y-97741619D01*
X148596048Y-97802095D01*
X148656524Y-97923048D01*
X148656524Y-98285905D01*
X148596048Y-98406857D01*
X148535571Y-98467333D01*
X146116524Y-100886381D02*
X144846524Y-100886381D01*
X144846524Y-100402572D01*
X144907000Y-100281619D01*
X144967476Y-100221143D01*
X145088429Y-100160667D01*
X145269857Y-100160667D01*
X145390810Y-100221143D01*
X145451286Y-100281619D01*
X145511762Y-100402572D01*
X145511762Y-100886381D01*
X145451286Y-99193048D02*
X145511762Y-99011619D01*
X145572238Y-98951143D01*
X145693190Y-98890667D01*
X145874619Y-98890667D01*
X145995571Y-98951143D01*
X146056048Y-99011619D01*
X146116524Y-99132572D01*
X146116524Y-99616381D01*
X144846524Y-99616381D01*
X144846524Y-99193048D01*
X144907000Y-99072095D01*
X144967476Y-99011619D01*
X145088429Y-98951143D01*
X145209381Y-98951143D01*
X145330333Y-99011619D01*
X145390810Y-99072095D01*
X145451286Y-99193048D01*
X145451286Y-99616381D01*
X144967476Y-98406857D02*
X144907000Y-98346381D01*
X144846524Y-98225429D01*
X144846524Y-97923048D01*
X144907000Y-97802095D01*
X144967476Y-97741619D01*
X145088429Y-97681143D01*
X145209381Y-97681143D01*
X145390810Y-97741619D01*
X146116524Y-98467333D01*
X146116524Y-97681143D01*
X143576524Y-100886381D02*
X142306524Y-100886381D01*
X142306524Y-100402572D01*
X142367000Y-100281619D01*
X142427476Y-100221143D01*
X142548429Y-100160667D01*
X142729857Y-100160667D01*
X142850810Y-100221143D01*
X142911286Y-100281619D01*
X142971762Y-100402572D01*
X142971762Y-100886381D01*
X142911286Y-99193048D02*
X142971762Y-99011619D01*
X143032238Y-98951143D01*
X143153190Y-98890667D01*
X143334619Y-98890667D01*
X143455571Y-98951143D01*
X143516048Y-99011619D01*
X143576524Y-99132572D01*
X143576524Y-99616381D01*
X142306524Y-99616381D01*
X142306524Y-99193048D01*
X142367000Y-99072095D01*
X142427476Y-99011619D01*
X142548429Y-98951143D01*
X142669381Y-98951143D01*
X142790333Y-99011619D01*
X142850810Y-99072095D01*
X142911286Y-99193048D01*
X142911286Y-99616381D01*
X143576524Y-97681143D02*
X143576524Y-98406857D01*
X143576524Y-98044000D02*
X142306524Y-98044000D01*
X142487952Y-98164952D01*
X142608905Y-98285905D01*
X142669381Y-98406857D01*
X179136524Y-100886381D02*
X177866524Y-100886381D01*
X177866524Y-100402572D01*
X177927000Y-100281619D01*
X177987476Y-100221143D01*
X178108429Y-100160667D01*
X178289857Y-100160667D01*
X178410810Y-100221143D01*
X178471286Y-100281619D01*
X178531762Y-100402572D01*
X178531762Y-100886381D01*
X179136524Y-99616381D02*
X177866524Y-99616381D01*
X177866524Y-99314000D01*
X177927000Y-99132572D01*
X178047952Y-99011619D01*
X178168905Y-98951143D01*
X178410810Y-98890667D01*
X178592238Y-98890667D01*
X178834143Y-98951143D01*
X178955095Y-99011619D01*
X179076048Y-99132572D01*
X179136524Y-99314000D01*
X179136524Y-99616381D01*
X177866524Y-97802095D02*
X177866524Y-98044000D01*
X177927000Y-98164952D01*
X177987476Y-98225429D01*
X178168905Y-98346381D01*
X178410810Y-98406857D01*
X178894619Y-98406857D01*
X179015571Y-98346381D01*
X179076048Y-98285905D01*
X179136524Y-98164952D01*
X179136524Y-97923048D01*
X179076048Y-97802095D01*
X179015571Y-97741619D01*
X178894619Y-97681143D01*
X178592238Y-97681143D01*
X178471286Y-97741619D01*
X178410810Y-97802095D01*
X178350333Y-97923048D01*
X178350333Y-98164952D01*
X178410810Y-98285905D01*
X178471286Y-98346381D01*
X178592238Y-98406857D01*
X176596524Y-100886381D02*
X175326524Y-100886381D01*
X175326524Y-100402572D01*
X175387000Y-100281619D01*
X175447476Y-100221143D01*
X175568429Y-100160667D01*
X175749857Y-100160667D01*
X175870810Y-100221143D01*
X175931286Y-100281619D01*
X175991762Y-100402572D01*
X175991762Y-100886381D01*
X176596524Y-99616381D02*
X175326524Y-99616381D01*
X175326524Y-99314000D01*
X175387000Y-99132572D01*
X175507952Y-99011619D01*
X175628905Y-98951143D01*
X175870810Y-98890667D01*
X176052238Y-98890667D01*
X176294143Y-98951143D01*
X176415095Y-99011619D01*
X176536048Y-99132572D01*
X176596524Y-99314000D01*
X176596524Y-99616381D01*
X175326524Y-97741619D02*
X175326524Y-98346381D01*
X175931286Y-98406857D01*
X175870810Y-98346381D01*
X175810333Y-98225429D01*
X175810333Y-97923048D01*
X175870810Y-97802095D01*
X175931286Y-97741619D01*
X176052238Y-97681143D01*
X176354619Y-97681143D01*
X176475571Y-97741619D01*
X176536048Y-97802095D01*
X176596524Y-97923048D01*
X176596524Y-98225429D01*
X176536048Y-98346381D01*
X176475571Y-98406857D01*
X174056524Y-100886381D02*
X172786524Y-100886381D01*
X172786524Y-100402572D01*
X172847000Y-100281619D01*
X172907476Y-100221143D01*
X173028429Y-100160667D01*
X173209857Y-100160667D01*
X173330810Y-100221143D01*
X173391286Y-100281619D01*
X173451762Y-100402572D01*
X173451762Y-100886381D01*
X174056524Y-99616381D02*
X172786524Y-99616381D01*
X172786524Y-99314000D01*
X172847000Y-99132572D01*
X172967952Y-99011619D01*
X173088905Y-98951143D01*
X173330810Y-98890667D01*
X173512238Y-98890667D01*
X173754143Y-98951143D01*
X173875095Y-99011619D01*
X173996048Y-99132572D01*
X174056524Y-99314000D01*
X174056524Y-99616381D01*
X173209857Y-97802095D02*
X174056524Y-97802095D01*
X172726048Y-98104476D02*
X173633190Y-98406857D01*
X173633190Y-97620667D01*
X171516524Y-100886381D02*
X170246524Y-100886381D01*
X170246524Y-100402572D01*
X170307000Y-100281619D01*
X170367476Y-100221143D01*
X170488429Y-100160667D01*
X170669857Y-100160667D01*
X170790810Y-100221143D01*
X170851286Y-100281619D01*
X170911762Y-100402572D01*
X170911762Y-100886381D01*
X171516524Y-99616381D02*
X170246524Y-99616381D01*
X170246524Y-99314000D01*
X170307000Y-99132572D01*
X170427952Y-99011619D01*
X170548905Y-98951143D01*
X170790810Y-98890667D01*
X170972238Y-98890667D01*
X171214143Y-98951143D01*
X171335095Y-99011619D01*
X171456048Y-99132572D01*
X171516524Y-99314000D01*
X171516524Y-99616381D01*
X170246524Y-98467333D02*
X170246524Y-97681143D01*
X170730333Y-98104476D01*
X170730333Y-97923048D01*
X170790810Y-97802095D01*
X170851286Y-97741619D01*
X170972238Y-97681143D01*
X171274619Y-97681143D01*
X171395571Y-97741619D01*
X171456048Y-97802095D01*
X171516524Y-97923048D01*
X171516524Y-98285905D01*
X171456048Y-98406857D01*
X171395571Y-98467333D01*
X168976524Y-100886381D02*
X167706524Y-100886381D01*
X167706524Y-100402572D01*
X167767000Y-100281619D01*
X167827476Y-100221143D01*
X167948429Y-100160667D01*
X168129857Y-100160667D01*
X168250810Y-100221143D01*
X168311286Y-100281619D01*
X168371762Y-100402572D01*
X168371762Y-100886381D01*
X168976524Y-99616381D02*
X167706524Y-99616381D01*
X167706524Y-99314000D01*
X167767000Y-99132572D01*
X167887952Y-99011619D01*
X168008905Y-98951143D01*
X168250810Y-98890667D01*
X168432238Y-98890667D01*
X168674143Y-98951143D01*
X168795095Y-99011619D01*
X168916048Y-99132572D01*
X168976524Y-99314000D01*
X168976524Y-99616381D01*
X167827476Y-98406857D02*
X167767000Y-98346381D01*
X167706524Y-98225429D01*
X167706524Y-97923048D01*
X167767000Y-97802095D01*
X167827476Y-97741619D01*
X167948429Y-97681143D01*
X168069381Y-97681143D01*
X168250810Y-97741619D01*
X168976524Y-98467333D01*
X168976524Y-97681143D01*
X166563524Y-101043619D02*
X165293524Y-101043619D01*
X165293524Y-100559810D01*
X165354000Y-100438857D01*
X165414476Y-100378381D01*
X165535429Y-100317905D01*
X165716857Y-100317905D01*
X165837810Y-100378381D01*
X165898286Y-100438857D01*
X165958762Y-100559810D01*
X165958762Y-101043619D01*
X166563524Y-99773619D02*
X165293524Y-99773619D01*
X165293524Y-99471238D01*
X165354000Y-99289810D01*
X165474952Y-99168857D01*
X165595905Y-99108381D01*
X165837810Y-99047905D01*
X166019238Y-99047905D01*
X166261143Y-99108381D01*
X166382095Y-99168857D01*
X166503048Y-99289810D01*
X166563524Y-99471238D01*
X166563524Y-99773619D01*
X166563524Y-97838381D02*
X166563524Y-98564095D01*
X166563524Y-98201238D02*
X165293524Y-98201238D01*
X165474952Y-98322190D01*
X165595905Y-98443143D01*
X165656381Y-98564095D01*
X167047333Y-96931238D02*
X166986857Y-96991714D01*
X166805429Y-97112666D01*
X166684476Y-97173143D01*
X166503048Y-97233619D01*
X166200667Y-97294095D01*
X165958762Y-97294095D01*
X165656381Y-97233619D01*
X165474952Y-97173143D01*
X165354000Y-97112666D01*
X165172571Y-96991714D01*
X165112095Y-96931238D01*
X165293524Y-96628857D02*
X165293524Y-95903142D01*
X166563524Y-96265999D02*
X165293524Y-96265999D01*
X165293524Y-95600761D02*
X166563524Y-94754095D01*
X165293524Y-94754095D02*
X166563524Y-95600761D01*
X167047333Y-94391237D02*
X166986857Y-94330761D01*
X166805429Y-94209809D01*
X166684476Y-94149333D01*
X166503048Y-94088856D01*
X166200667Y-94028380D01*
X165958762Y-94028380D01*
X165656381Y-94088856D01*
X165474952Y-94149333D01*
X165354000Y-94209809D01*
X165172571Y-94330761D01*
X165112095Y-94391237D01*
X143576524Y-44498381D02*
X142306524Y-44498381D01*
X142306524Y-44014572D01*
X142367000Y-43893619D01*
X142427476Y-43833143D01*
X142548429Y-43772667D01*
X142729857Y-43772667D01*
X142850810Y-43833143D01*
X142911286Y-43893619D01*
X142971762Y-44014572D01*
X142971762Y-44498381D01*
X143455571Y-42502667D02*
X143516048Y-42563143D01*
X143576524Y-42744572D01*
X143576524Y-42865524D01*
X143516048Y-43046952D01*
X143395095Y-43167905D01*
X143274143Y-43228381D01*
X143032238Y-43288857D01*
X142850810Y-43288857D01*
X142608905Y-43228381D01*
X142487952Y-43167905D01*
X142367000Y-43046952D01*
X142306524Y-42865524D01*
X142306524Y-42744572D01*
X142367000Y-42563143D01*
X142427476Y-42502667D01*
X143576524Y-41293143D02*
X143576524Y-42018857D01*
X143576524Y-41656000D02*
X142306524Y-41656000D01*
X142487952Y-41776952D01*
X142608905Y-41897905D01*
X142669381Y-42018857D01*
X146116524Y-44752381D02*
X144846524Y-44752381D01*
X144846524Y-44268572D01*
X144907000Y-44147619D01*
X144967476Y-44087143D01*
X145088429Y-44026667D01*
X145269857Y-44026667D01*
X145390810Y-44087143D01*
X145451286Y-44147619D01*
X145511762Y-44268572D01*
X145511762Y-44752381D01*
X145995571Y-42756667D02*
X146056048Y-42817143D01*
X146116524Y-42998572D01*
X146116524Y-43119524D01*
X146056048Y-43300952D01*
X145935095Y-43421905D01*
X145814143Y-43482381D01*
X145572238Y-43542857D01*
X145390810Y-43542857D01*
X145148905Y-43482381D01*
X145027952Y-43421905D01*
X144907000Y-43300952D01*
X144846524Y-43119524D01*
X144846524Y-42998572D01*
X144907000Y-42817143D01*
X144967476Y-42756667D01*
X144967476Y-42272857D02*
X144907000Y-42212381D01*
X144846524Y-42091429D01*
X144846524Y-41789048D01*
X144907000Y-41668095D01*
X144967476Y-41607619D01*
X145088429Y-41547143D01*
X145209381Y-41547143D01*
X145390810Y-41607619D01*
X146116524Y-42333333D01*
X146116524Y-41547143D01*
X148656524Y-44752381D02*
X147386524Y-44752381D01*
X147386524Y-44268572D01*
X147447000Y-44147619D01*
X147507476Y-44087143D01*
X147628429Y-44026667D01*
X147809857Y-44026667D01*
X147930810Y-44087143D01*
X147991286Y-44147619D01*
X148051762Y-44268572D01*
X148051762Y-44752381D01*
X148535571Y-42756667D02*
X148596048Y-42817143D01*
X148656524Y-42998572D01*
X148656524Y-43119524D01*
X148596048Y-43300952D01*
X148475095Y-43421905D01*
X148354143Y-43482381D01*
X148112238Y-43542857D01*
X147930810Y-43542857D01*
X147688905Y-43482381D01*
X147567952Y-43421905D01*
X147447000Y-43300952D01*
X147386524Y-43119524D01*
X147386524Y-42998572D01*
X147447000Y-42817143D01*
X147507476Y-42756667D01*
X147386524Y-42333333D02*
X147386524Y-41547143D01*
X147870333Y-41970476D01*
X147870333Y-41789048D01*
X147930810Y-41668095D01*
X147991286Y-41607619D01*
X148112238Y-41547143D01*
X148414619Y-41547143D01*
X148535571Y-41607619D01*
X148596048Y-41668095D01*
X148656524Y-41789048D01*
X148656524Y-42151905D01*
X148596048Y-42272857D01*
X148535571Y-42333333D01*
X151196524Y-44752381D02*
X149926524Y-44752381D01*
X149926524Y-44268572D01*
X149987000Y-44147619D01*
X150047476Y-44087143D01*
X150168429Y-44026667D01*
X150349857Y-44026667D01*
X150470810Y-44087143D01*
X150531286Y-44147619D01*
X150591762Y-44268572D01*
X150591762Y-44752381D01*
X151075571Y-42756667D02*
X151136048Y-42817143D01*
X151196524Y-42998572D01*
X151196524Y-43119524D01*
X151136048Y-43300952D01*
X151015095Y-43421905D01*
X150894143Y-43482381D01*
X150652238Y-43542857D01*
X150470810Y-43542857D01*
X150228905Y-43482381D01*
X150107952Y-43421905D01*
X149987000Y-43300952D01*
X149926524Y-43119524D01*
X149926524Y-42998572D01*
X149987000Y-42817143D01*
X150047476Y-42756667D01*
X150349857Y-41668095D02*
X151196524Y-41668095D01*
X149866048Y-41970476D02*
X150773190Y-42272857D01*
X150773190Y-41486667D01*
X153736524Y-44752381D02*
X152466524Y-44752381D01*
X152466524Y-44268572D01*
X152527000Y-44147619D01*
X152587476Y-44087143D01*
X152708429Y-44026667D01*
X152889857Y-44026667D01*
X153010810Y-44087143D01*
X153071286Y-44147619D01*
X153131762Y-44268572D01*
X153131762Y-44752381D01*
X153615571Y-42756667D02*
X153676048Y-42817143D01*
X153736524Y-42998572D01*
X153736524Y-43119524D01*
X153676048Y-43300952D01*
X153555095Y-43421905D01*
X153434143Y-43482381D01*
X153192238Y-43542857D01*
X153010810Y-43542857D01*
X152768905Y-43482381D01*
X152647952Y-43421905D01*
X152527000Y-43300952D01*
X152466524Y-43119524D01*
X152466524Y-42998572D01*
X152527000Y-42817143D01*
X152587476Y-42756667D01*
X152466524Y-41607619D02*
X152466524Y-42212381D01*
X153071286Y-42272857D01*
X153010810Y-42212381D01*
X152950333Y-42091429D01*
X152950333Y-41789048D01*
X153010810Y-41668095D01*
X153071286Y-41607619D01*
X153192238Y-41547143D01*
X153494619Y-41547143D01*
X153615571Y-41607619D01*
X153676048Y-41668095D01*
X153736524Y-41789048D01*
X153736524Y-42091429D01*
X153676048Y-42212381D01*
X153615571Y-42272857D01*
X156022524Y-44752381D02*
X154752524Y-44752381D01*
X154752524Y-44268572D01*
X154813000Y-44147619D01*
X154873476Y-44087143D01*
X154994429Y-44026667D01*
X155175857Y-44026667D01*
X155296810Y-44087143D01*
X155357286Y-44147619D01*
X155417762Y-44268572D01*
X155417762Y-44752381D01*
X155901571Y-42756667D02*
X155962048Y-42817143D01*
X156022524Y-42998572D01*
X156022524Y-43119524D01*
X155962048Y-43300952D01*
X155841095Y-43421905D01*
X155720143Y-43482381D01*
X155478238Y-43542857D01*
X155296810Y-43542857D01*
X155054905Y-43482381D01*
X154933952Y-43421905D01*
X154813000Y-43300952D01*
X154752524Y-43119524D01*
X154752524Y-42998572D01*
X154813000Y-42817143D01*
X154873476Y-42756667D01*
X154752524Y-41668095D02*
X154752524Y-41910000D01*
X154813000Y-42030952D01*
X154873476Y-42091429D01*
X155054905Y-42212381D01*
X155296810Y-42272857D01*
X155780619Y-42272857D01*
X155901571Y-42212381D01*
X155962048Y-42151905D01*
X156022524Y-42030952D01*
X156022524Y-41789048D01*
X155962048Y-41668095D01*
X155901571Y-41607619D01*
X155780619Y-41547143D01*
X155478238Y-41547143D01*
X155357286Y-41607619D01*
X155296810Y-41668095D01*
X155236333Y-41789048D01*
X155236333Y-42030952D01*
X155296810Y-42151905D01*
X155357286Y-42212381D01*
X155478238Y-42272857D01*
X141036524Y-100886381D02*
X139766524Y-100886381D01*
X139766524Y-100402572D01*
X139827000Y-100281619D01*
X139887476Y-100221143D01*
X140008429Y-100160667D01*
X140189857Y-100160667D01*
X140310810Y-100221143D01*
X140371286Y-100281619D01*
X140431762Y-100402572D01*
X140431762Y-100886381D01*
X140371286Y-99193048D02*
X140431762Y-99011619D01*
X140492238Y-98951143D01*
X140613190Y-98890667D01*
X140794619Y-98890667D01*
X140915571Y-98951143D01*
X140976048Y-99011619D01*
X141036524Y-99132572D01*
X141036524Y-99616381D01*
X139766524Y-99616381D01*
X139766524Y-99193048D01*
X139827000Y-99072095D01*
X139887476Y-99011619D01*
X140008429Y-98951143D01*
X140129381Y-98951143D01*
X140250333Y-99011619D01*
X140310810Y-99072095D01*
X140371286Y-99193048D01*
X140371286Y-99616381D01*
X139766524Y-98104476D02*
X139766524Y-97983524D01*
X139827000Y-97862572D01*
X139887476Y-97802095D01*
X140008429Y-97741619D01*
X140250333Y-97681143D01*
X140552714Y-97681143D01*
X140794619Y-97741619D01*
X140915571Y-97802095D01*
X140976048Y-97862572D01*
X141036524Y-97983524D01*
X141036524Y-98104476D01*
X140976048Y-98225429D01*
X140915571Y-98285905D01*
X140794619Y-98346381D01*
X140552714Y-98406857D01*
X140250333Y-98406857D01*
X140008429Y-98346381D01*
X139887476Y-98285905D01*
X139827000Y-98225429D01*
X139766524Y-98104476D01*
X158816524Y-100886381D02*
X157546524Y-100886381D01*
X157546524Y-100402572D01*
X157607000Y-100281619D01*
X157667476Y-100221143D01*
X157788429Y-100160667D01*
X157969857Y-100160667D01*
X158090810Y-100221143D01*
X158151286Y-100281619D01*
X158211762Y-100402572D01*
X158211762Y-100886381D01*
X158151286Y-99193048D02*
X158211762Y-99011619D01*
X158272238Y-98951143D01*
X158393190Y-98890667D01*
X158574619Y-98890667D01*
X158695571Y-98951143D01*
X158756048Y-99011619D01*
X158816524Y-99132572D01*
X158816524Y-99616381D01*
X157546524Y-99616381D01*
X157546524Y-99193048D01*
X157607000Y-99072095D01*
X157667476Y-99011619D01*
X157788429Y-98951143D01*
X157909381Y-98951143D01*
X158030333Y-99011619D01*
X158090810Y-99072095D01*
X158151286Y-99193048D01*
X158151286Y-99616381D01*
X157546524Y-98467333D02*
X157546524Y-97620667D01*
X158816524Y-98164952D01*
X164023524Y-101194810D02*
X162753524Y-101194810D01*
X162753524Y-100711001D01*
X162814000Y-100590048D01*
X162874476Y-100529572D01*
X162995429Y-100469096D01*
X163176857Y-100469096D01*
X163297810Y-100529572D01*
X163358286Y-100590048D01*
X163418762Y-100711001D01*
X163418762Y-101194810D01*
X164023524Y-99924810D02*
X162753524Y-99924810D01*
X162753524Y-99622429D01*
X162814000Y-99441001D01*
X162934952Y-99320048D01*
X163055905Y-99259572D01*
X163297810Y-99199096D01*
X163479238Y-99199096D01*
X163721143Y-99259572D01*
X163842095Y-99320048D01*
X163963048Y-99441001D01*
X164023524Y-99622429D01*
X164023524Y-99924810D01*
X162753524Y-98412905D02*
X162753524Y-98291953D01*
X162814000Y-98171001D01*
X162874476Y-98110524D01*
X162995429Y-98050048D01*
X163237333Y-97989572D01*
X163539714Y-97989572D01*
X163781619Y-98050048D01*
X163902571Y-98110524D01*
X163963048Y-98171001D01*
X164023524Y-98291953D01*
X164023524Y-98412905D01*
X163963048Y-98533858D01*
X163902571Y-98594334D01*
X163781619Y-98654810D01*
X163539714Y-98715286D01*
X163237333Y-98715286D01*
X162995429Y-98654810D01*
X162874476Y-98594334D01*
X162814000Y-98533858D01*
X162753524Y-98412905D01*
X164507333Y-97082429D02*
X164446857Y-97142905D01*
X164265429Y-97263857D01*
X164144476Y-97324334D01*
X163963048Y-97384810D01*
X163660667Y-97445286D01*
X163418762Y-97445286D01*
X163116381Y-97384810D01*
X162934952Y-97324334D01*
X162814000Y-97263857D01*
X162632571Y-97142905D01*
X162572095Y-97082429D01*
X164023524Y-95872905D02*
X163418762Y-96296238D01*
X164023524Y-96598619D02*
X162753524Y-96598619D01*
X162753524Y-96114810D01*
X162814000Y-95993857D01*
X162874476Y-95933381D01*
X162995429Y-95872905D01*
X163176857Y-95872905D01*
X163297810Y-95933381D01*
X163358286Y-95993857D01*
X163418762Y-96114810D01*
X163418762Y-96598619D01*
X162753524Y-95449571D02*
X164023524Y-94602905D01*
X162753524Y-94602905D02*
X164023524Y-95449571D01*
X164507333Y-94240047D02*
X164446857Y-94179571D01*
X164265429Y-94058619D01*
X164144476Y-93998143D01*
X163963048Y-93937666D01*
X163660667Y-93877190D01*
X163418762Y-93877190D01*
X163116381Y-93937666D01*
X162934952Y-93998143D01*
X162814000Y-94058619D01*
X162632571Y-94179571D01*
X162572095Y-94240047D01*
X181676524Y-100886381D02*
X180406524Y-100886381D01*
X180406524Y-100402572D01*
X180467000Y-100281619D01*
X180527476Y-100221143D01*
X180648429Y-100160667D01*
X180829857Y-100160667D01*
X180950810Y-100221143D01*
X181011286Y-100281619D01*
X181071762Y-100402572D01*
X181071762Y-100886381D01*
X181676524Y-99616381D02*
X180406524Y-99616381D01*
X180406524Y-99314000D01*
X180467000Y-99132572D01*
X180587952Y-99011619D01*
X180708905Y-98951143D01*
X180950810Y-98890667D01*
X181132238Y-98890667D01*
X181374143Y-98951143D01*
X181495095Y-99011619D01*
X181616048Y-99132572D01*
X181676524Y-99314000D01*
X181676524Y-99616381D01*
X180406524Y-98467333D02*
X180406524Y-97620667D01*
X181676524Y-98164952D01*
X141036524Y-44498381D02*
X139766524Y-44498381D01*
X139766524Y-44014572D01*
X139827000Y-43893619D01*
X139887476Y-43833143D01*
X140008429Y-43772667D01*
X140189857Y-43772667D01*
X140310810Y-43833143D01*
X140371286Y-43893619D01*
X140431762Y-44014572D01*
X140431762Y-44498381D01*
X140915571Y-42502667D02*
X140976048Y-42563143D01*
X141036524Y-42744572D01*
X141036524Y-42865524D01*
X140976048Y-43046952D01*
X140855095Y-43167905D01*
X140734143Y-43228381D01*
X140492238Y-43288857D01*
X140310810Y-43288857D01*
X140068905Y-43228381D01*
X139947952Y-43167905D01*
X139827000Y-43046952D01*
X139766524Y-42865524D01*
X139766524Y-42744572D01*
X139827000Y-42563143D01*
X139887476Y-42502667D01*
X139766524Y-41716476D02*
X139766524Y-41595524D01*
X139827000Y-41474572D01*
X139887476Y-41414095D01*
X140008429Y-41353619D01*
X140250333Y-41293143D01*
X140552714Y-41293143D01*
X140794619Y-41353619D01*
X140915571Y-41414095D01*
X140976048Y-41474572D01*
X141036524Y-41595524D01*
X141036524Y-41716476D01*
X140976048Y-41837429D01*
X140915571Y-41897905D01*
X140794619Y-41958381D01*
X140552714Y-42018857D01*
X140250333Y-42018857D01*
X140008429Y-41958381D01*
X139887476Y-41897905D01*
X139827000Y-41837429D01*
X139766524Y-41716476D01*
X158816524Y-44752381D02*
X157546524Y-44752381D01*
X157546524Y-44268572D01*
X157607000Y-44147619D01*
X157667476Y-44087143D01*
X157788429Y-44026667D01*
X157969857Y-44026667D01*
X158090810Y-44087143D01*
X158151286Y-44147619D01*
X158211762Y-44268572D01*
X158211762Y-44752381D01*
X158695571Y-42756667D02*
X158756048Y-42817143D01*
X158816524Y-42998572D01*
X158816524Y-43119524D01*
X158756048Y-43300952D01*
X158635095Y-43421905D01*
X158514143Y-43482381D01*
X158272238Y-43542857D01*
X158090810Y-43542857D01*
X157848905Y-43482381D01*
X157727952Y-43421905D01*
X157607000Y-43300952D01*
X157546524Y-43119524D01*
X157546524Y-42998572D01*
X157607000Y-42817143D01*
X157667476Y-42756667D01*
X157546524Y-42333333D02*
X157546524Y-41486667D01*
X158816524Y-42030952D01*
X164126333Y-50612524D02*
X164065857Y-50673000D01*
X163884429Y-50793952D01*
X163763476Y-50854429D01*
X163582048Y-50914905D01*
X163279667Y-50975381D01*
X163037762Y-50975381D01*
X162735381Y-50914905D01*
X162553952Y-50854429D01*
X162433000Y-50793952D01*
X162251571Y-50673000D01*
X162191095Y-50612524D01*
X163279667Y-50189190D02*
X163279667Y-49584428D01*
X163642524Y-50310143D02*
X162372524Y-49886809D01*
X163642524Y-49463476D01*
X163642524Y-49040143D02*
X162372524Y-49040143D01*
X162372524Y-48737762D01*
X162433000Y-48556334D01*
X162553952Y-48435381D01*
X162674905Y-48374905D01*
X162916810Y-48314429D01*
X163098238Y-48314429D01*
X163340143Y-48374905D01*
X163461095Y-48435381D01*
X163582048Y-48556334D01*
X163642524Y-48737762D01*
X163642524Y-49040143D01*
X163521571Y-47044429D02*
X163582048Y-47104905D01*
X163642524Y-47286334D01*
X163642524Y-47407286D01*
X163582048Y-47588714D01*
X163461095Y-47709667D01*
X163340143Y-47770143D01*
X163098238Y-47830619D01*
X162916810Y-47830619D01*
X162674905Y-47770143D01*
X162553952Y-47709667D01*
X162433000Y-47588714D01*
X162372524Y-47407286D01*
X162372524Y-47286334D01*
X162433000Y-47104905D01*
X162493476Y-47044429D01*
X162372524Y-46258238D02*
X162372524Y-46137286D01*
X162433000Y-46016334D01*
X162493476Y-45955857D01*
X162614429Y-45895381D01*
X162856333Y-45834905D01*
X163158714Y-45834905D01*
X163400619Y-45895381D01*
X163521571Y-45955857D01*
X163582048Y-46016334D01*
X163642524Y-46137286D01*
X163642524Y-46258238D01*
X163582048Y-46379191D01*
X163521571Y-46439667D01*
X163400619Y-46500143D01*
X163158714Y-46560619D01*
X162856333Y-46560619D01*
X162614429Y-46500143D01*
X162493476Y-46439667D01*
X162433000Y-46379191D01*
X162372524Y-46258238D01*
X164126333Y-45411571D02*
X164065857Y-45351095D01*
X163884429Y-45230143D01*
X163763476Y-45169667D01*
X163582048Y-45109190D01*
X163279667Y-45048714D01*
X163037762Y-45048714D01*
X162735381Y-45109190D01*
X162553952Y-45169667D01*
X162433000Y-45230143D01*
X162251571Y-45351095D01*
X162191095Y-45411571D01*
X163642524Y-44443952D02*
X162372524Y-44443952D01*
X162372524Y-43960143D01*
X162433000Y-43839190D01*
X162493476Y-43778714D01*
X162614429Y-43718238D01*
X162795857Y-43718238D01*
X162916810Y-43778714D01*
X162977286Y-43839190D01*
X163037762Y-43960143D01*
X163037762Y-44443952D01*
X163279667Y-43234428D02*
X163279667Y-42629666D01*
X163642524Y-43355381D02*
X162372524Y-42932047D01*
X163642524Y-42508714D01*
X162372524Y-41843476D02*
X162372524Y-41722524D01*
X162433000Y-41601572D01*
X162493476Y-41541095D01*
X162614429Y-41480619D01*
X162856333Y-41420143D01*
X163158714Y-41420143D01*
X163400619Y-41480619D01*
X163521571Y-41541095D01*
X163582048Y-41601572D01*
X163642524Y-41722524D01*
X163642524Y-41843476D01*
X163582048Y-41964429D01*
X163521571Y-42024905D01*
X163400619Y-42085381D01*
X163158714Y-42145857D01*
X162856333Y-42145857D01*
X162614429Y-42085381D01*
X162493476Y-42024905D01*
X162433000Y-41964429D01*
X162372524Y-41843476D01*
D14*
X173990000Y-85725000D02*
X177800000Y-85725000D01*
X177800000Y-85725000D02*
X177800000Y-92710000D01*
X177800000Y-92710000D02*
X170180000Y-92710000D01*
X170180000Y-92710000D02*
X170180000Y-85725000D01*
X170180000Y-85725000D02*
X173990000Y-85725000D01*
X175260000Y-89535000D02*
G75*
G03X175260000Y-89535000I-1270000J0D01*
G01*
D10*
X98552000Y-85090000D02*
X97790000Y-85090000D01*
X97790000Y-85090000D02*
X97790000Y-93726000D01*
X97790000Y-93726000D02*
X98552000Y-93726000D01*
X101600000Y-85090000D02*
X101600000Y-93726000D01*
X111252000Y-85090000D02*
X111252000Y-93726000D01*
X98552000Y-93726000D02*
X111252000Y-93726000D01*
X98552000Y-85090000D02*
X111252000Y-85090000D01*
D14*
X126895860Y-100584000D02*
X126895860Y-97584260D01*
X126895860Y-97584260D02*
X113896140Y-97584260D01*
X113896140Y-97584260D02*
X113896140Y-104084120D01*
X113896140Y-104084120D02*
X126895860Y-104084120D01*
X126895860Y-104084120D02*
X126895860Y-100584000D01*
D10*
X122682000Y-90678000D02*
X129286000Y-90678000D01*
X129286000Y-90678000D02*
X129286000Y-84836000D01*
X129286000Y-84836000D02*
X128524000Y-84074000D01*
X128524000Y-84074000D02*
X123444000Y-84074000D01*
X123444000Y-84074000D02*
X122682000Y-84836000D01*
X122682000Y-84836000D02*
X122682000Y-90678000D01*
X125984000Y-85217000D02*
X125984000Y-85979000D01*
X125603000Y-85598000D02*
X126365000Y-85598000D01*
D15*
X131318000Y-104394000D02*
X128778000Y-104394000D01*
X128778000Y-104394000D02*
X128778000Y-96774000D01*
X128778000Y-96774000D02*
X131318000Y-96774000D01*
X131318000Y-96774000D02*
X131318000Y-104394000D01*
X128778000Y-101854000D02*
X131318000Y-101854000D01*
X133858000Y-104394000D02*
X131318000Y-104394000D01*
X131318000Y-104394000D02*
X131318000Y-96774000D01*
X131318000Y-96774000D02*
X133858000Y-96774000D01*
X133858000Y-96774000D02*
X133858000Y-104394000D01*
X131318000Y-101854000D02*
X133858000Y-101854000D01*
X136398000Y-104394000D02*
X133858000Y-104394000D01*
X133858000Y-104394000D02*
X133858000Y-96774000D01*
X133858000Y-96774000D02*
X136398000Y-96774000D01*
X136398000Y-96774000D02*
X136398000Y-104394000D01*
X133858000Y-101854000D02*
X136398000Y-101854000D01*
D16*
X108968540Y-47538640D02*
X188965840Y-47538640D01*
X188965840Y-47538640D02*
X188965840Y-83535520D01*
X188965840Y-83535520D02*
X108968540Y-83535520D01*
X108968540Y-83535520D02*
X108968540Y-47538640D01*
X113967260Y-53037740D02*
X183964580Y-53037740D01*
X183964580Y-53037740D02*
X183964580Y-78036420D01*
X113967260Y-53037740D02*
X113967260Y-78036420D01*
X113967260Y-78036420D02*
X183964580Y-78036420D01*
D17*
X113989556Y-50038000D02*
G75*
G03X113989556Y-50038000I-2521656J0D01*
G01*
X188991728Y-50038000D02*
G75*
G03X188991728Y-50038000I-2525248J0D01*
G01*
X188991728Y-81036160D02*
G75*
G03X188991728Y-81036160I-2525248J0D01*
G01*
X113989556Y-81036160D02*
G75*
G03X113989556Y-81036160I-2521656J0D01*
G01*
D16*
X112351557Y-50038000D02*
G75*
G03X112351557Y-50038000I-883657J0D01*
G01*
X110218220Y-50038000D02*
X112717580Y-50038000D01*
X111467900Y-51287680D02*
X111467900Y-48788320D01*
X187350137Y-50038000D02*
G75*
G03X187350137Y-50038000I-883657J0D01*
G01*
X185216800Y-50038000D02*
X187716160Y-50038000D01*
X186466480Y-51287680D02*
X186466480Y-48788320D01*
X112351557Y-81036160D02*
G75*
G03X112351557Y-81036160I-883657J0D01*
G01*
X110218220Y-81036160D02*
X112717580Y-81036160D01*
X111467900Y-82285840D02*
X111467900Y-79786480D01*
X187350137Y-81036160D02*
G75*
G03X187350137Y-81036160I-883657J0D01*
G01*
X185216800Y-81036160D02*
X187716160Y-81036160D01*
X186466480Y-82285840D02*
X186466480Y-79786480D01*
D14*
X122555000Y-70866000D02*
X123825000Y-70866000D01*
X123825000Y-70866000D02*
X123825000Y-73406000D01*
X123825000Y-73406000D02*
X122555000Y-73406000D01*
X122555000Y-65786000D02*
X175895000Y-65786000D01*
X175895000Y-65786000D02*
X175895000Y-78486000D01*
X175895000Y-78486000D02*
X122555000Y-78486000D01*
X122555000Y-78486000D02*
X122555000Y-65786000D01*
D15*
X139065000Y-101600000D02*
X159385000Y-101600000D01*
X159385000Y-101600000D02*
X159385000Y-104140000D01*
X159385000Y-104140000D02*
X139065000Y-104140000D01*
X139065000Y-104140000D02*
X139065000Y-101600000D01*
X141605000Y-104140000D02*
X141605000Y-101600000D01*
X161925000Y-38100000D02*
X182245000Y-38100000D01*
X182245000Y-38100000D02*
X182245000Y-40640000D01*
X182245000Y-40640000D02*
X161925000Y-40640000D01*
X161925000Y-40640000D02*
X161925000Y-38100000D01*
X164465000Y-40640000D02*
X164465000Y-38100000D01*
X139065000Y-38100000D02*
X159385000Y-38100000D01*
X159385000Y-38100000D02*
X159385000Y-40640000D01*
X159385000Y-40640000D02*
X139065000Y-40640000D01*
X139065000Y-40640000D02*
X139065000Y-38100000D01*
X141605000Y-40640000D02*
X141605000Y-38100000D01*
X161925000Y-101600000D02*
X182245000Y-101600000D01*
X182245000Y-101600000D02*
X182245000Y-104140000D01*
X182245000Y-104140000D02*
X161925000Y-104140000D01*
X161925000Y-104140000D02*
X161925000Y-101600000D01*
X164465000Y-104140000D02*
X164465000Y-101600000D01*
D10*
X107950000Y-83185000D02*
X107315000Y-83820000D01*
X115570000Y-83185000D02*
X116205000Y-83820000D01*
X115570000Y-64135000D02*
X116205000Y-63500000D01*
X107950000Y-64135000D02*
X107315000Y-63500000D01*
X116205000Y-71755000D02*
X115570000Y-71755000D01*
X115570000Y-71755000D02*
X115570000Y-64135000D01*
X115570000Y-64135000D02*
X107950000Y-64135000D01*
X107950000Y-64135000D02*
X107950000Y-83185000D01*
X107950000Y-83185000D02*
X115570000Y-83185000D01*
X115570000Y-83185000D02*
X115570000Y-75565000D01*
X115570000Y-75565000D02*
X116205000Y-75565000D01*
X116205000Y-83820000D02*
X116205000Y-63500000D01*
X107315000Y-63500000D02*
X107315000Y-83820000D01*
X107315000Y-83820000D02*
X116205000Y-83820000D01*
X107315000Y-63500000D02*
X116205000Y-63500000D01*
X113728500Y-81158080D02*
X114797840Y-80459580D01*
X114797840Y-80459580D02*
X113728500Y-79758540D01*
X113728500Y-79758540D02*
X113728500Y-81158080D01*
X133817360Y-87543640D02*
X133817360Y-86781640D01*
X134325360Y-87543640D02*
X134325360Y-86781640D01*
X133817360Y-89575640D02*
G75*
G03X135722360Y-88178640I254000J1651000D01*
G01*
X132420360Y-88051640D02*
G75*
G03X134198360Y-89575640I1651000J127000D01*
G01*
X135468360Y-88813640D02*
G75*
G03X134960360Y-86527640I-1397000J889000D01*
G01*
X133182360Y-86527640D02*
G75*
G03X132674360Y-88813640I889000J-1397000D01*
G01*
X130769360Y-91734640D02*
X130769360Y-91607640D01*
X130769360Y-87924640D02*
X130769360Y-89321640D01*
X137373360Y-91734640D02*
X137373360Y-91607640D01*
X137373360Y-87924640D02*
X137373360Y-89321640D01*
X132928360Y-90845640D02*
X133309360Y-90972640D01*
X133309360Y-90972640D02*
X134071360Y-91099640D01*
X134071360Y-91099640D02*
X134833360Y-90972640D01*
X134833360Y-90972640D02*
X135214360Y-90845640D01*
X132801360Y-89956640D02*
X135341360Y-89956640D01*
X136992360Y-89194640D02*
G75*
G03X135341360Y-85003640I-2921000J1270000D01*
G01*
X132801360Y-85003640D02*
G75*
G03X131150360Y-89194640I1270000J-2921000D01*
G01*
X136103360Y-84622640D02*
X135214360Y-84622640D01*
X132928360Y-84622640D02*
X132039360Y-84622640D01*
X135722360Y-87543640D02*
X136230360Y-87543640D01*
X136230360Y-87543640D02*
X136230360Y-88305640D01*
X136230360Y-88305640D02*
X135722360Y-88305640D01*
X132420360Y-87543640D02*
X131912360Y-87543640D01*
X131912360Y-87543640D02*
X131912360Y-88305640D01*
X131912360Y-88305640D02*
X132420360Y-88305640D01*
X134579360Y-88178640D02*
X135722360Y-88178640D01*
X134579360Y-87670640D02*
X135722360Y-87670640D01*
X133563360Y-88178640D02*
X132420360Y-88178640D01*
X133563360Y-87670640D02*
X132420360Y-87670640D01*
X134325360Y-88305640D02*
X134325360Y-89575640D01*
X133817360Y-88305640D02*
X133817360Y-89575640D01*
X133563360Y-87543640D02*
X133563360Y-88305640D01*
X133563360Y-88305640D02*
X134579360Y-88305640D01*
X134579360Y-88305640D02*
X134579360Y-87543640D01*
X134579360Y-87543640D02*
X133563360Y-87543640D01*
X132039360Y-84622640D02*
X130769360Y-86019640D01*
X130769360Y-86019640D02*
X130769360Y-87924640D01*
X136103360Y-84622640D02*
X137373360Y-86019640D01*
X137373360Y-86019640D02*
X137373360Y-87924640D01*
X137119360Y-91734640D02*
X137119360Y-91988640D01*
X137119360Y-91988640D02*
X135976360Y-91988640D01*
X135976360Y-91988640D02*
X135976360Y-91734640D01*
X131023360Y-91734640D02*
X131023360Y-91988640D01*
X131023360Y-91988640D02*
X132166360Y-91988640D01*
X132166360Y-91988640D02*
X132166360Y-91734640D01*
X130769360Y-91734640D02*
X137373360Y-91734640D01*
X144993360Y-87543640D02*
X144993360Y-86781640D01*
X145501360Y-87543640D02*
X145501360Y-86781640D01*
X144993360Y-89575640D02*
G75*
G03X146898360Y-88178640I254000J1651000D01*
G01*
X143596360Y-88051640D02*
G75*
G03X145374360Y-89575640I1651000J127000D01*
G01*
X146644360Y-88813640D02*
G75*
G03X146136360Y-86527640I-1397000J889000D01*
G01*
X144358360Y-86527640D02*
G75*
G03X143850360Y-88813640I889000J-1397000D01*
G01*
X141945360Y-91734640D02*
X141945360Y-91607640D01*
X141945360Y-87924640D02*
X141945360Y-89321640D01*
X148549360Y-91734640D02*
X148549360Y-91607640D01*
X148549360Y-87924640D02*
X148549360Y-89321640D01*
X144104360Y-90845640D02*
X144485360Y-90972640D01*
X144485360Y-90972640D02*
X145247360Y-91099640D01*
X145247360Y-91099640D02*
X146009360Y-90972640D01*
X146009360Y-90972640D02*
X146390360Y-90845640D01*
X143977360Y-89956640D02*
X146517360Y-89956640D01*
X148168360Y-89194640D02*
G75*
G03X146517360Y-85003640I-2921000J1270000D01*
G01*
X143977360Y-85003640D02*
G75*
G03X142326360Y-89194640I1270000J-2921000D01*
G01*
X147279360Y-84622640D02*
X146390360Y-84622640D01*
X144104360Y-84622640D02*
X143215360Y-84622640D01*
X146898360Y-87543640D02*
X147406360Y-87543640D01*
X147406360Y-87543640D02*
X147406360Y-88305640D01*
X147406360Y-88305640D02*
X146898360Y-88305640D01*
X143596360Y-87543640D02*
X143088360Y-87543640D01*
X143088360Y-87543640D02*
X143088360Y-88305640D01*
X143088360Y-88305640D02*
X143596360Y-88305640D01*
X145755360Y-88178640D02*
X146898360Y-88178640D01*
X145755360Y-87670640D02*
X146898360Y-87670640D01*
X144739360Y-88178640D02*
X143596360Y-88178640D01*
X144739360Y-87670640D02*
X143596360Y-87670640D01*
X145501360Y-88305640D02*
X145501360Y-89575640D01*
X144993360Y-88305640D02*
X144993360Y-89575640D01*
X144739360Y-87543640D02*
X144739360Y-88305640D01*
X144739360Y-88305640D02*
X145755360Y-88305640D01*
X145755360Y-88305640D02*
X145755360Y-87543640D01*
X145755360Y-87543640D02*
X144739360Y-87543640D01*
X143215360Y-84622640D02*
X141945360Y-86019640D01*
X141945360Y-86019640D02*
X141945360Y-87924640D01*
X147279360Y-84622640D02*
X148549360Y-86019640D01*
X148549360Y-86019640D02*
X148549360Y-87924640D01*
X148295360Y-91734640D02*
X148295360Y-91988640D01*
X148295360Y-91988640D02*
X147152360Y-91988640D01*
X147152360Y-91988640D02*
X147152360Y-91734640D01*
X142199360Y-91734640D02*
X142199360Y-91988640D01*
X142199360Y-91988640D02*
X143342360Y-91988640D01*
X143342360Y-91988640D02*
X143342360Y-91734640D01*
X141945360Y-91734640D02*
X148549360Y-91734640D01*
D14*
X188849000Y-85598000D02*
X192659000Y-85598000D01*
X192659000Y-85598000D02*
X192659000Y-92583000D01*
X192659000Y-92583000D02*
X185039000Y-92583000D01*
X185039000Y-92583000D02*
X185039000Y-85598000D01*
X185039000Y-85598000D02*
X188849000Y-85598000D01*
X190119000Y-89408000D02*
G75*
G03X190119000Y-89408000I-1270000J0D01*
G01*
D18*
X114848640Y-56161940D02*
X114848640Y-55412640D01*
X114848640Y-55412640D02*
X115597940Y-55412640D01*
X119098060Y-55412640D02*
X119847360Y-55412640D01*
X119847360Y-55412640D02*
X119847360Y-56161940D01*
X115597940Y-60411360D02*
X114848640Y-60411360D01*
X114848640Y-60411360D02*
X114848640Y-59662060D01*
X119098060Y-60411360D02*
X119847360Y-60411360D01*
X119847360Y-60411360D02*
X119847360Y-59662060D01*
D19*
X115620800Y-86133940D02*
X122123200Y-86133940D01*
X122123200Y-86133940D02*
X122123200Y-89634060D01*
X122123200Y-89634060D02*
X115620800Y-89634060D01*
X115620800Y-89634060D02*
X115620800Y-86133940D01*
D10*
X161798000Y-70612000D02*
X155448000Y-70612000D01*
X161798000Y-75692000D02*
X155448000Y-75692000D01*
X152908000Y-73152000D02*
G75*
G03X155448000Y-75692000I2540000J0D01*
G01*
X155448000Y-70612000D02*
G75*
G03X152908000Y-73152000I0J-2540000D01*
G01*
X161798000Y-75692000D02*
G75*
G03X164338000Y-73152000I0J2540000D01*
G01*
X164338000Y-73152000D02*
G75*
G03X161798000Y-70612000I-2540000J0D01*
G01*
X144891000Y-73651000D02*
X142891000Y-73651000D01*
X142891000Y-75701000D02*
X144891000Y-75701000D01*
X144891000Y-70603000D02*
X142891000Y-70603000D01*
X142891000Y-72653000D02*
X144891000Y-72653000D01*
X109286000Y-101000000D02*
G75*
G03X109286000Y-101000000I-2286000J0D01*
G01*
X109286000Y-42000000D02*
G75*
G03X109286000Y-42000000I-2286000J0D01*
G01*
X191286000Y-42000000D02*
G75*
G03X191286000Y-42000000I-2286000J0D01*
G01*
X191286000Y-101000000D02*
G75*
G03X191286000Y-101000000I-2286000J0D01*
G01*
D14*
X163830000Y-85725000D02*
X167640000Y-85725000D01*
X167640000Y-85725000D02*
X167640000Y-92710000D01*
X167640000Y-92710000D02*
X160020000Y-92710000D01*
X160020000Y-92710000D02*
X160020000Y-85725000D01*
X160020000Y-85725000D02*
X163830000Y-85725000D01*
X165100000Y-89535000D02*
G75*
G03X165100000Y-89535000I-1270000J0D01*
G01*
D10*
X124324000Y-56404000D02*
X124324000Y-58404000D01*
X126374000Y-58404000D02*
X126374000Y-56404000D01*
X130057000Y-58404000D02*
X130057000Y-56404000D01*
X128007000Y-56404000D02*
X128007000Y-58404000D01*
X133994000Y-58404000D02*
X133994000Y-56404000D01*
X131944000Y-56404000D02*
X131944000Y-58404000D01*
X144891000Y-67555000D02*
X142891000Y-67555000D01*
X142891000Y-69605000D02*
X144891000Y-69605000D01*
X110735000Y-99584000D02*
X110735000Y-101584000D01*
X112785000Y-101584000D02*
X112785000Y-99584000D01*
X191956000Y-79264000D02*
X191956000Y-81264000D01*
X189806000Y-81264000D02*
X189806000Y-79264000D01*
X124952000Y-95944000D02*
X122952000Y-95944000D01*
X122952000Y-93794000D02*
X124952000Y-93794000D01*
X182483000Y-96960000D02*
X180483000Y-96960000D01*
X180483000Y-94810000D02*
X182483000Y-94810000D01*
X152332000Y-92980000D02*
X152332000Y-94980000D01*
X150182000Y-94980000D02*
X150182000Y-92980000D01*
X156904000Y-92980000D02*
X156904000Y-94980000D01*
X154754000Y-94980000D02*
X154754000Y-92980000D01*
X182483000Y-92007000D02*
X180483000Y-92007000D01*
X180483000Y-89857000D02*
X182483000Y-89857000D01*
X182483000Y-87689000D02*
X180483000Y-87689000D01*
X180483000Y-85539000D02*
X182483000Y-85539000D01*
X138108000Y-56404000D02*
X138108000Y-58404000D01*
X135958000Y-58404000D02*
X135958000Y-56404000D01*
X154797000Y-67809000D02*
X152797000Y-67809000D01*
X152797000Y-69859000D02*
X154797000Y-69859000D01*
X159909000Y-69859000D02*
X161909000Y-69859000D01*
X161909000Y-67809000D02*
X159909000Y-67809000D01*
X107985000Y-50275000D02*
X102135000Y-50275000D01*
X102135000Y-57675000D02*
X102135000Y-50275000D01*
X107985000Y-57575000D02*
X107985000Y-50275000D01*
X107985000Y-57675000D02*
X102135000Y-57675000D01*
X152257000Y-89284000D02*
G75*
G03X152257000Y-89284000I-100000J0D01*
G01*
X151157940Y-87983060D02*
X151157940Y-87784940D01*
X151157940Y-87784940D02*
X151356060Y-87784940D01*
X151356060Y-87983060D02*
X151356060Y-87784940D01*
X151157940Y-87983060D02*
X151356060Y-87983060D01*
X150558500Y-87434420D02*
X150558500Y-87086440D01*
X150558500Y-87086440D02*
X150807420Y-87086440D01*
X150807420Y-87434420D02*
X150807420Y-87086440D01*
X150558500Y-87434420D02*
X150807420Y-87434420D01*
X150558500Y-87086440D02*
X150558500Y-86984840D01*
X150558500Y-86984840D02*
X151754840Y-86984840D01*
X151754840Y-87086440D02*
X151754840Y-86984840D01*
X150558500Y-87086440D02*
X151754840Y-87086440D01*
X151805640Y-87086440D02*
X151805640Y-86984840D01*
X151805640Y-86984840D02*
X151955500Y-86984840D01*
X151955500Y-87086440D02*
X151955500Y-86984840D01*
X151805640Y-87086440D02*
X151955500Y-87086440D01*
X150558500Y-88783160D02*
X150558500Y-88681560D01*
X150558500Y-88681560D02*
X151754840Y-88681560D01*
X151754840Y-88783160D02*
X151754840Y-88681560D01*
X150558500Y-88783160D02*
X151754840Y-88783160D01*
X151805640Y-88783160D02*
X151805640Y-88681560D01*
X151805640Y-88681560D02*
X151955500Y-88681560D01*
X151955500Y-88783160D02*
X151955500Y-88681560D01*
X151805640Y-88783160D02*
X151955500Y-88783160D01*
X150558500Y-87434420D02*
X150558500Y-87284560D01*
X150558500Y-87284560D02*
X150807420Y-87284560D01*
X150807420Y-87434420D02*
X150807420Y-87284560D01*
X150558500Y-87434420D02*
X150807420Y-87434420D01*
X150507700Y-86334600D02*
X150507700Y-89433400D01*
X150507700Y-89433400D02*
X152006300Y-89433400D01*
X152006300Y-89433400D02*
X152006300Y-86334600D01*
X152006300Y-86334600D02*
X150507700Y-86334600D01*
X150757646Y-88431262D02*
G75*
G02X150759160Y-87335360I499354J547262D01*
G01*
X151755398Y-88432133D02*
G75*
G02X150759160Y-88432640I-498398J548133D01*
G01*
X151756354Y-87336738D02*
G75*
G02X151754840Y-88432640I-499354J-547262D01*
G01*
X150758602Y-87335867D02*
G75*
G02X151754840Y-87335360I498398J-548133D01*
G01*
X115921000Y-95896000D02*
G75*
G03X115921000Y-95896000I-100000J0D01*
G01*
X117121940Y-94896940D02*
X117320060Y-94896940D01*
X117320060Y-94896940D02*
X117320060Y-95095060D01*
X117121940Y-95095060D02*
X117320060Y-95095060D01*
X117121940Y-94896940D02*
X117121940Y-95095060D01*
X117670580Y-94297500D02*
X118018560Y-94297500D01*
X118018560Y-94297500D02*
X118018560Y-94546420D01*
X117670580Y-94546420D02*
X118018560Y-94546420D01*
X117670580Y-94297500D02*
X117670580Y-94546420D01*
X118018560Y-94297500D02*
X118120160Y-94297500D01*
X118120160Y-94297500D02*
X118120160Y-95493840D01*
X118018560Y-95493840D02*
X118120160Y-95493840D01*
X118018560Y-94297500D02*
X118018560Y-95493840D01*
X118018560Y-95544640D02*
X118120160Y-95544640D01*
X118120160Y-95544640D02*
X118120160Y-95694500D01*
X118018560Y-95694500D02*
X118120160Y-95694500D01*
X118018560Y-95544640D02*
X118018560Y-95694500D01*
X116321840Y-94297500D02*
X116423440Y-94297500D01*
X116423440Y-94297500D02*
X116423440Y-95493840D01*
X116321840Y-95493840D02*
X116423440Y-95493840D01*
X116321840Y-94297500D02*
X116321840Y-95493840D01*
X116321840Y-95544640D02*
X116423440Y-95544640D01*
X116423440Y-95544640D02*
X116423440Y-95694500D01*
X116321840Y-95694500D02*
X116423440Y-95694500D01*
X116321840Y-95544640D02*
X116321840Y-95694500D01*
X117670580Y-94297500D02*
X117820440Y-94297500D01*
X117820440Y-94297500D02*
X117820440Y-94546420D01*
X117670580Y-94546420D02*
X117820440Y-94546420D01*
X117670580Y-94297500D02*
X117670580Y-94546420D01*
X118770400Y-94246700D02*
X115671600Y-94246700D01*
X115671600Y-94246700D02*
X115671600Y-95745300D01*
X115671600Y-95745300D02*
X118770400Y-95745300D01*
X118770400Y-95745300D02*
X118770400Y-94246700D01*
X116673738Y-94496646D02*
G75*
G02X117769640Y-94498160I547262J-499354D01*
G01*
X116672867Y-95494398D02*
G75*
G02X116672360Y-94498160I548133J498398D01*
G01*
X117768262Y-95495354D02*
G75*
G02X116672360Y-95493840I-547262J499354D01*
G01*
X117769133Y-94497602D02*
G75*
G02X117769640Y-95493840I-548133J-498398D01*
G01*
X156829000Y-89284000D02*
G75*
G03X156829000Y-89284000I-100000J0D01*
G01*
X155729940Y-87983060D02*
X155729940Y-87784940D01*
X155729940Y-87784940D02*
X155928060Y-87784940D01*
X155928060Y-87983060D02*
X155928060Y-87784940D01*
X155729940Y-87983060D02*
X155928060Y-87983060D01*
X155130500Y-87434420D02*
X155130500Y-87086440D01*
X155130500Y-87086440D02*
X155379420Y-87086440D01*
X155379420Y-87434420D02*
X155379420Y-87086440D01*
X155130500Y-87434420D02*
X155379420Y-87434420D01*
X155130500Y-87086440D02*
X155130500Y-86984840D01*
X155130500Y-86984840D02*
X156326840Y-86984840D01*
X156326840Y-87086440D02*
X156326840Y-86984840D01*
X155130500Y-87086440D02*
X156326840Y-87086440D01*
X156377640Y-87086440D02*
X156377640Y-86984840D01*
X156377640Y-86984840D02*
X156527500Y-86984840D01*
X156527500Y-87086440D02*
X156527500Y-86984840D01*
X156377640Y-87086440D02*
X156527500Y-87086440D01*
X155130500Y-88783160D02*
X155130500Y-88681560D01*
X155130500Y-88681560D02*
X156326840Y-88681560D01*
X156326840Y-88783160D02*
X156326840Y-88681560D01*
X155130500Y-88783160D02*
X156326840Y-88783160D01*
X156377640Y-88783160D02*
X156377640Y-88681560D01*
X156377640Y-88681560D02*
X156527500Y-88681560D01*
X156527500Y-88783160D02*
X156527500Y-88681560D01*
X156377640Y-88783160D02*
X156527500Y-88783160D01*
X155130500Y-87434420D02*
X155130500Y-87284560D01*
X155130500Y-87284560D02*
X155379420Y-87284560D01*
X155379420Y-87434420D02*
X155379420Y-87284560D01*
X155130500Y-87434420D02*
X155379420Y-87434420D01*
X155079700Y-86334600D02*
X155079700Y-89433400D01*
X155079700Y-89433400D02*
X156578300Y-89433400D01*
X156578300Y-89433400D02*
X156578300Y-86334600D01*
X156578300Y-86334600D02*
X155079700Y-86334600D01*
X155329646Y-88431262D02*
G75*
G02X155331160Y-87335360I499354J547262D01*
G01*
X156327398Y-88432133D02*
G75*
G02X155331160Y-88432640I-498398J548133D01*
G01*
X156328354Y-87336738D02*
G75*
G02X156326840Y-88432640I-499354J-547262D01*
G01*
X155330602Y-87335867D02*
G75*
G02X156326840Y-87335360I498398J-548133D01*
G01*
X187549000Y-96785000D02*
G75*
G03X187549000Y-96785000I-100000J0D01*
G01*
X188749940Y-95785940D02*
X188948060Y-95785940D01*
X188948060Y-95785940D02*
X188948060Y-95984060D01*
X188749940Y-95984060D02*
X188948060Y-95984060D01*
X188749940Y-95785940D02*
X188749940Y-95984060D01*
X189298580Y-95186500D02*
X189646560Y-95186500D01*
X189646560Y-95186500D02*
X189646560Y-95435420D01*
X189298580Y-95435420D02*
X189646560Y-95435420D01*
X189298580Y-95186500D02*
X189298580Y-95435420D01*
X189646560Y-95186500D02*
X189748160Y-95186500D01*
X189748160Y-95186500D02*
X189748160Y-96382840D01*
X189646560Y-96382840D02*
X189748160Y-96382840D01*
X189646560Y-95186500D02*
X189646560Y-96382840D01*
X189646560Y-96433640D02*
X189748160Y-96433640D01*
X189748160Y-96433640D02*
X189748160Y-96583500D01*
X189646560Y-96583500D02*
X189748160Y-96583500D01*
X189646560Y-96433640D02*
X189646560Y-96583500D01*
X187949840Y-95186500D02*
X188051440Y-95186500D01*
X188051440Y-95186500D02*
X188051440Y-96382840D01*
X187949840Y-96382840D02*
X188051440Y-96382840D01*
X187949840Y-95186500D02*
X187949840Y-96382840D01*
X187949840Y-96433640D02*
X188051440Y-96433640D01*
X188051440Y-96433640D02*
X188051440Y-96583500D01*
X187949840Y-96583500D02*
X188051440Y-96583500D01*
X187949840Y-96433640D02*
X187949840Y-96583500D01*
X189298580Y-95186500D02*
X189448440Y-95186500D01*
X189448440Y-95186500D02*
X189448440Y-95435420D01*
X189298580Y-95435420D02*
X189448440Y-95435420D01*
X189298580Y-95186500D02*
X189298580Y-95435420D01*
X190398400Y-95135700D02*
X187299600Y-95135700D01*
X187299600Y-95135700D02*
X187299600Y-96634300D01*
X187299600Y-96634300D02*
X190398400Y-96634300D01*
X190398400Y-96634300D02*
X190398400Y-95135700D01*
X188301738Y-95385646D02*
G75*
G02X189397640Y-95387160I547262J-499354D01*
G01*
X188300867Y-96383398D02*
G75*
G02X188300360Y-95387160I548133J498398D01*
G01*
X189396262Y-96384354D02*
G75*
G02X188300360Y-96382840I-547262J499354D01*
G01*
X189397133Y-95386602D02*
G75*
G02X189397640Y-96382840I-548133J-498398D01*
G01*
D11*
X172681054Y-87543398D02*
X172826197Y-87591779D01*
X173068101Y-87591779D01*
X173164863Y-87543398D01*
X173213244Y-87495017D01*
X173261625Y-87398255D01*
X173261625Y-87301493D01*
X173213244Y-87204731D01*
X173164863Y-87156350D01*
X173068101Y-87107970D01*
X172874578Y-87059589D01*
X172777816Y-87011208D01*
X172729435Y-86962827D01*
X172681054Y-86866065D01*
X172681054Y-86769303D01*
X172729435Y-86672541D01*
X172777816Y-86624160D01*
X172874578Y-86575779D01*
X173116482Y-86575779D01*
X173261625Y-86624160D01*
X173600292Y-86575779D02*
X173842197Y-87591779D01*
X174035720Y-86866065D01*
X174229244Y-87591779D01*
X174471149Y-86575779D01*
X175293625Y-86914446D02*
X175293625Y-87591779D01*
X175051721Y-86527398D02*
X174809816Y-87253112D01*
X175438768Y-87253112D01*
D10*
X121765786Y-87481833D02*
X121796024Y-87512071D01*
X121826262Y-87602786D01*
X121826262Y-87663262D01*
X121796024Y-87753976D01*
X121735548Y-87814452D01*
X121675071Y-87844691D01*
X121554119Y-87874929D01*
X121463405Y-87874929D01*
X121342452Y-87844691D01*
X121281976Y-87814452D01*
X121221500Y-87753976D01*
X121191262Y-87663262D01*
X121191262Y-87602786D01*
X121221500Y-87512071D01*
X121251738Y-87481833D01*
X121191262Y-87270167D02*
X121191262Y-86846833D01*
X121826262Y-87118976D01*
X137544024Y-85123262D02*
X137332357Y-84820881D01*
X137181166Y-85123262D02*
X137181166Y-84488262D01*
X137423071Y-84488262D01*
X137483547Y-84518500D01*
X137513786Y-84548738D01*
X137544024Y-84609214D01*
X137544024Y-84699929D01*
X137513786Y-84760405D01*
X137483547Y-84790643D01*
X137423071Y-84820881D01*
X137181166Y-84820881D01*
X137725452Y-84488262D02*
X137937119Y-85123262D01*
X138148786Y-84488262D01*
X138693072Y-85123262D02*
X138330214Y-85123262D01*
X138511643Y-85123262D02*
X138511643Y-84488262D01*
X138451167Y-84578976D01*
X138390691Y-84639452D01*
X138330214Y-84669690D01*
X148720024Y-85123262D02*
X148508357Y-84820881D01*
X148357166Y-85123262D02*
X148357166Y-84488262D01*
X148599071Y-84488262D01*
X148659547Y-84518500D01*
X148689786Y-84548738D01*
X148720024Y-84609214D01*
X148720024Y-84699929D01*
X148689786Y-84760405D01*
X148659547Y-84790643D01*
X148599071Y-84820881D01*
X148357166Y-84820881D01*
X148901452Y-84488262D02*
X149113119Y-85123262D01*
X149324786Y-84488262D01*
X149506214Y-84548738D02*
X149536452Y-84518500D01*
X149596929Y-84488262D01*
X149748119Y-84488262D01*
X149808595Y-84518500D01*
X149838833Y-84548738D01*
X149869072Y-84609214D01*
X149869072Y-84669690D01*
X149838833Y-84760405D01*
X149475976Y-85123262D01*
X149869072Y-85123262D01*
D11*
X187540054Y-87416398D02*
X187685197Y-87464779D01*
X187927101Y-87464779D01*
X188023863Y-87416398D01*
X188072244Y-87368017D01*
X188120625Y-87271255D01*
X188120625Y-87174493D01*
X188072244Y-87077731D01*
X188023863Y-87029350D01*
X187927101Y-86980970D01*
X187733578Y-86932589D01*
X187636816Y-86884208D01*
X187588435Y-86835827D01*
X187540054Y-86739065D01*
X187540054Y-86642303D01*
X187588435Y-86545541D01*
X187636816Y-86497160D01*
X187733578Y-86448779D01*
X187975482Y-86448779D01*
X188120625Y-86497160D01*
X188459292Y-86448779D02*
X188701197Y-87464779D01*
X188894720Y-86739065D01*
X189088244Y-87464779D01*
X189330149Y-86448779D01*
X190249387Y-87464779D02*
X189668816Y-87464779D01*
X189959102Y-87464779D02*
X189959102Y-86448779D01*
X189862340Y-86593922D01*
X189765578Y-86690684D01*
X189668816Y-86739065D01*
D10*
X158235952Y-76106262D02*
X158659286Y-76741262D01*
X158659286Y-76106262D02*
X158235952Y-76741262D01*
X159233810Y-76741262D02*
X158870952Y-76741262D01*
X159052381Y-76741262D02*
X159052381Y-76106262D01*
X158991905Y-76196976D01*
X158931429Y-76257452D01*
X158870952Y-76287690D01*
X139291786Y-74902786D02*
X139261548Y-74933024D01*
X139170833Y-74963262D01*
X139110357Y-74963262D01*
X139019643Y-74933024D01*
X138959167Y-74872548D01*
X138928928Y-74812071D01*
X138898690Y-74691119D01*
X138898690Y-74600405D01*
X138928928Y-74479452D01*
X138959167Y-74418976D01*
X139019643Y-74358500D01*
X139110357Y-74328262D01*
X139170833Y-74328262D01*
X139261548Y-74358500D01*
X139291786Y-74388738D01*
X139896548Y-74963262D02*
X139533690Y-74963262D01*
X139715119Y-74963262D02*
X139715119Y-74328262D01*
X139654643Y-74418976D01*
X139594167Y-74479452D01*
X139533690Y-74509690D01*
X140289643Y-74328262D02*
X140350119Y-74328262D01*
X140410595Y-74358500D01*
X140440833Y-74388738D01*
X140471071Y-74449214D01*
X140501310Y-74570167D01*
X140501310Y-74721357D01*
X140471071Y-74842310D01*
X140440833Y-74902786D01*
X140410595Y-74933024D01*
X140350119Y-74963262D01*
X140289643Y-74963262D01*
X140229167Y-74933024D01*
X140198929Y-74902786D01*
X140168690Y-74842310D01*
X140138452Y-74721357D01*
X140138452Y-74570167D01*
X140168690Y-74449214D01*
X140198929Y-74388738D01*
X140229167Y-74358500D01*
X140289643Y-74328262D01*
X139291786Y-71854786D02*
X139261548Y-71885024D01*
X139170833Y-71915262D01*
X139110357Y-71915262D01*
X139019643Y-71885024D01*
X138959167Y-71824548D01*
X138928928Y-71764071D01*
X138898690Y-71643119D01*
X138898690Y-71552405D01*
X138928928Y-71431452D01*
X138959167Y-71370976D01*
X139019643Y-71310500D01*
X139110357Y-71280262D01*
X139170833Y-71280262D01*
X139261548Y-71310500D01*
X139291786Y-71340738D01*
X139896548Y-71915262D02*
X139533690Y-71915262D01*
X139715119Y-71915262D02*
X139715119Y-71280262D01*
X139654643Y-71370976D01*
X139594167Y-71431452D01*
X139533690Y-71461690D01*
X140501310Y-71915262D02*
X140138452Y-71915262D01*
X140319881Y-71915262D02*
X140319881Y-71280262D01*
X140259405Y-71370976D01*
X140198929Y-71431452D01*
X140138452Y-71461690D01*
D11*
X162521054Y-87543398D02*
X162666197Y-87591779D01*
X162908101Y-87591779D01*
X163004863Y-87543398D01*
X163053244Y-87495017D01*
X163101625Y-87398255D01*
X163101625Y-87301493D01*
X163053244Y-87204731D01*
X163004863Y-87156350D01*
X162908101Y-87107970D01*
X162714578Y-87059589D01*
X162617816Y-87011208D01*
X162569435Y-86962827D01*
X162521054Y-86866065D01*
X162521054Y-86769303D01*
X162569435Y-86672541D01*
X162617816Y-86624160D01*
X162714578Y-86575779D01*
X162956482Y-86575779D01*
X163101625Y-86624160D01*
X163440292Y-86575779D02*
X163682197Y-87591779D01*
X163875720Y-86866065D01*
X164069244Y-87591779D01*
X164311149Y-86575779D01*
X164601435Y-86575779D02*
X165230387Y-86575779D01*
X164891721Y-86962827D01*
X165036863Y-86962827D01*
X165133625Y-87011208D01*
X165182006Y-87059589D01*
X165230387Y-87156350D01*
X165230387Y-87398255D01*
X165182006Y-87495017D01*
X165133625Y-87543398D01*
X165036863Y-87591779D01*
X164746578Y-87591779D01*
X164649816Y-87543398D01*
X164601435Y-87495017D01*
D16*
X125116167Y-54074786D02*
X125085929Y-54105024D01*
X124995214Y-54135262D01*
X124934738Y-54135262D01*
X124844024Y-54105024D01*
X124783548Y-54044548D01*
X124753309Y-53984071D01*
X124723071Y-53863119D01*
X124723071Y-53772405D01*
X124753309Y-53651452D01*
X124783548Y-53590976D01*
X124844024Y-53530500D01*
X124934738Y-53500262D01*
X124995214Y-53500262D01*
X125085929Y-53530500D01*
X125116167Y-53560738D01*
X125720929Y-54135262D02*
X125358071Y-54135262D01*
X125539500Y-54135262D02*
X125539500Y-53500262D01*
X125479024Y-53590976D01*
X125418548Y-53651452D01*
X125358071Y-53681690D01*
D10*
X128926167Y-54074786D02*
X128895929Y-54105024D01*
X128805214Y-54135262D01*
X128744738Y-54135262D01*
X128654024Y-54105024D01*
X128593548Y-54044548D01*
X128563309Y-53984071D01*
X128533071Y-53863119D01*
X128533071Y-53772405D01*
X128563309Y-53651452D01*
X128593548Y-53590976D01*
X128654024Y-53530500D01*
X128744738Y-53500262D01*
X128805214Y-53500262D01*
X128895929Y-53530500D01*
X128926167Y-53560738D01*
X129168071Y-53560738D02*
X129198309Y-53530500D01*
X129258786Y-53500262D01*
X129409976Y-53500262D01*
X129470452Y-53530500D01*
X129500690Y-53560738D01*
X129530929Y-53621214D01*
X129530929Y-53681690D01*
X129500690Y-53772405D01*
X129137833Y-54135262D01*
X129530929Y-54135262D01*
X132736167Y-54074786D02*
X132705929Y-54105024D01*
X132615214Y-54135262D01*
X132554738Y-54135262D01*
X132464024Y-54105024D01*
X132403548Y-54044548D01*
X132373309Y-53984071D01*
X132343071Y-53863119D01*
X132343071Y-53772405D01*
X132373309Y-53651452D01*
X132403548Y-53590976D01*
X132464024Y-53530500D01*
X132554738Y-53500262D01*
X132615214Y-53500262D01*
X132705929Y-53530500D01*
X132736167Y-53560738D01*
X132947833Y-53500262D02*
X133340929Y-53500262D01*
X133129262Y-53742167D01*
X133219976Y-53742167D01*
X133280452Y-53772405D01*
X133310690Y-53802643D01*
X133340929Y-53863119D01*
X133340929Y-54014310D01*
X133310690Y-54074786D01*
X133280452Y-54105024D01*
X133219976Y-54135262D01*
X133038548Y-54135262D01*
X132978071Y-54105024D01*
X132947833Y-54074786D01*
X139594167Y-68806786D02*
X139563929Y-68837024D01*
X139473214Y-68867262D01*
X139412738Y-68867262D01*
X139322024Y-68837024D01*
X139261548Y-68776548D01*
X139231309Y-68716071D01*
X139201071Y-68595119D01*
X139201071Y-68504405D01*
X139231309Y-68383452D01*
X139261548Y-68322976D01*
X139322024Y-68262500D01*
X139412738Y-68232262D01*
X139473214Y-68232262D01*
X139563929Y-68262500D01*
X139594167Y-68292738D01*
X140138452Y-68443929D02*
X140138452Y-68867262D01*
X139987262Y-68202024D02*
X139836071Y-68655595D01*
X140229167Y-68655595D01*
X111654167Y-97000786D02*
X111623929Y-97031024D01*
X111533214Y-97061262D01*
X111472738Y-97061262D01*
X111382024Y-97031024D01*
X111321548Y-96970548D01*
X111291309Y-96910071D01*
X111261071Y-96789119D01*
X111261071Y-96698405D01*
X111291309Y-96577452D01*
X111321548Y-96516976D01*
X111382024Y-96456500D01*
X111472738Y-96426262D01*
X111533214Y-96426262D01*
X111623929Y-96456500D01*
X111654167Y-96486738D01*
X112228690Y-96426262D02*
X111926309Y-96426262D01*
X111896071Y-96728643D01*
X111926309Y-96698405D01*
X111986786Y-96668167D01*
X112137976Y-96668167D01*
X112198452Y-96698405D01*
X112228690Y-96728643D01*
X112258929Y-96789119D01*
X112258929Y-96940310D01*
X112228690Y-97000786D01*
X112198452Y-97031024D01*
X112137976Y-97061262D01*
X111986786Y-97061262D01*
X111926309Y-97031024D01*
X111896071Y-97000786D01*
X190648167Y-76741262D02*
X190436500Y-76438881D01*
X190285309Y-76741262D02*
X190285309Y-76106262D01*
X190527214Y-76106262D01*
X190587690Y-76136500D01*
X190617929Y-76166738D01*
X190648167Y-76227214D01*
X190648167Y-76317929D01*
X190617929Y-76378405D01*
X190587690Y-76408643D01*
X190527214Y-76438881D01*
X190285309Y-76438881D01*
X191252929Y-76741262D02*
X190890071Y-76741262D01*
X191071500Y-76741262D02*
X191071500Y-76106262D01*
X191011024Y-76196976D01*
X190950548Y-76257452D01*
X190890071Y-76287690D01*
X127656167Y-95283262D02*
X127444500Y-94980881D01*
X127293309Y-95283262D02*
X127293309Y-94648262D01*
X127535214Y-94648262D01*
X127595690Y-94678500D01*
X127625929Y-94708738D01*
X127656167Y-94769214D01*
X127656167Y-94859929D01*
X127625929Y-94920405D01*
X127595690Y-94950643D01*
X127535214Y-94980881D01*
X127293309Y-94980881D01*
X127898071Y-94708738D02*
X127928309Y-94678500D01*
X127988786Y-94648262D01*
X128139976Y-94648262D01*
X128200452Y-94678500D01*
X128230690Y-94708738D01*
X128260929Y-94769214D01*
X128260929Y-94829690D01*
X128230690Y-94920405D01*
X127867833Y-95283262D01*
X128260929Y-95283262D01*
X181250167Y-94267262D02*
X181038500Y-93964881D01*
X180887309Y-94267262D02*
X180887309Y-93632262D01*
X181129214Y-93632262D01*
X181189690Y-93662500D01*
X181219929Y-93692738D01*
X181250167Y-93753214D01*
X181250167Y-93843929D01*
X181219929Y-93904405D01*
X181189690Y-93934643D01*
X181129214Y-93964881D01*
X180887309Y-93964881D01*
X181461833Y-93632262D02*
X181854929Y-93632262D01*
X181643262Y-93874167D01*
X181733976Y-93874167D01*
X181794452Y-93904405D01*
X181824690Y-93934643D01*
X181854929Y-93995119D01*
X181854929Y-94146310D01*
X181824690Y-94206786D01*
X181794452Y-94237024D01*
X181733976Y-94267262D01*
X181552548Y-94267262D01*
X181492071Y-94237024D01*
X181461833Y-94206786D01*
X149246167Y-94267262D02*
X149034500Y-93964881D01*
X148883309Y-94267262D02*
X148883309Y-93632262D01*
X149125214Y-93632262D01*
X149185690Y-93662500D01*
X149215929Y-93692738D01*
X149246167Y-93753214D01*
X149246167Y-93843929D01*
X149215929Y-93904405D01*
X149185690Y-93934643D01*
X149125214Y-93964881D01*
X148883309Y-93964881D01*
X149820690Y-93632262D02*
X149518309Y-93632262D01*
X149488071Y-93934643D01*
X149518309Y-93904405D01*
X149578786Y-93874167D01*
X149729976Y-93874167D01*
X149790452Y-93904405D01*
X149820690Y-93934643D01*
X149850929Y-93995119D01*
X149850929Y-94146310D01*
X149820690Y-94206786D01*
X149790452Y-94237024D01*
X149729976Y-94267262D01*
X149578786Y-94267262D01*
X149518309Y-94237024D01*
X149488071Y-94206786D01*
X157628167Y-94267262D02*
X157416500Y-93964881D01*
X157265309Y-94267262D02*
X157265309Y-93632262D01*
X157507214Y-93632262D01*
X157567690Y-93662500D01*
X157597929Y-93692738D01*
X157628167Y-93753214D01*
X157628167Y-93843929D01*
X157597929Y-93904405D01*
X157567690Y-93934643D01*
X157507214Y-93964881D01*
X157265309Y-93964881D01*
X158172452Y-93632262D02*
X158051500Y-93632262D01*
X157991024Y-93662500D01*
X157960786Y-93692738D01*
X157900309Y-93783452D01*
X157870071Y-93904405D01*
X157870071Y-94146310D01*
X157900309Y-94206786D01*
X157930548Y-94237024D01*
X157991024Y-94267262D01*
X158111976Y-94267262D01*
X158172452Y-94237024D01*
X158202690Y-94206786D01*
X158232929Y-94146310D01*
X158232929Y-93995119D01*
X158202690Y-93934643D01*
X158172452Y-93904405D01*
X158111976Y-93874167D01*
X157991024Y-93874167D01*
X157930548Y-93904405D01*
X157900309Y-93934643D01*
X157870071Y-93995119D01*
X181250167Y-89441262D02*
X181038500Y-89138881D01*
X180887309Y-89441262D02*
X180887309Y-88806262D01*
X181129214Y-88806262D01*
X181189690Y-88836500D01*
X181219929Y-88866738D01*
X181250167Y-88927214D01*
X181250167Y-89017929D01*
X181219929Y-89078405D01*
X181189690Y-89108643D01*
X181129214Y-89138881D01*
X180887309Y-89138881D01*
X181461833Y-88806262D02*
X181885167Y-88806262D01*
X181613024Y-89441262D01*
X181250167Y-85123262D02*
X181038500Y-84820881D01*
X180887309Y-85123262D02*
X180887309Y-84488262D01*
X181129214Y-84488262D01*
X181189690Y-84518500D01*
X181219929Y-84548738D01*
X181250167Y-84609214D01*
X181250167Y-84699929D01*
X181219929Y-84760405D01*
X181189690Y-84790643D01*
X181129214Y-84820881D01*
X180887309Y-84820881D01*
X181613024Y-84760405D02*
X181552548Y-84730167D01*
X181522309Y-84699929D01*
X181492071Y-84639452D01*
X181492071Y-84609214D01*
X181522309Y-84548738D01*
X181552548Y-84518500D01*
X181613024Y-84488262D01*
X181733976Y-84488262D01*
X181794452Y-84518500D01*
X181824690Y-84548738D01*
X181854929Y-84609214D01*
X181854929Y-84639452D01*
X181824690Y-84699929D01*
X181794452Y-84730167D01*
X181733976Y-84760405D01*
X181613024Y-84760405D01*
X181552548Y-84790643D01*
X181522309Y-84820881D01*
X181492071Y-84881357D01*
X181492071Y-85002310D01*
X181522309Y-85062786D01*
X181552548Y-85093024D01*
X181613024Y-85123262D01*
X181733976Y-85123262D01*
X181794452Y-85093024D01*
X181824690Y-85062786D01*
X181854929Y-85002310D01*
X181854929Y-84881357D01*
X181824690Y-84820881D01*
X181794452Y-84790643D01*
X181733976Y-84760405D01*
X136800167Y-54135262D02*
X136588500Y-53832881D01*
X136437309Y-54135262D02*
X136437309Y-53500262D01*
X136679214Y-53500262D01*
X136739690Y-53530500D01*
X136769929Y-53560738D01*
X136800167Y-53621214D01*
X136800167Y-53711929D01*
X136769929Y-53772405D01*
X136739690Y-53802643D01*
X136679214Y-53832881D01*
X136437309Y-53832881D01*
X137102548Y-54135262D02*
X137223500Y-54135262D01*
X137283976Y-54105024D01*
X137314214Y-54074786D01*
X137374690Y-53984071D01*
X137404929Y-53863119D01*
X137404929Y-53621214D01*
X137374690Y-53560738D01*
X137344452Y-53530500D01*
X137283976Y-53500262D01*
X137163024Y-53500262D01*
X137102548Y-53530500D01*
X137072309Y-53560738D01*
X137042071Y-53621214D01*
X137042071Y-53772405D01*
X137072309Y-53832881D01*
X137102548Y-53863119D01*
X137163024Y-53893357D01*
X137283976Y-53893357D01*
X137344452Y-53863119D01*
X137374690Y-53832881D01*
X137404929Y-53772405D01*
X153818167Y-67282786D02*
X153787929Y-67313024D01*
X153697214Y-67343262D01*
X153636738Y-67343262D01*
X153546024Y-67313024D01*
X153485548Y-67252548D01*
X153455309Y-67192071D01*
X153425071Y-67071119D01*
X153425071Y-66980405D01*
X153455309Y-66859452D01*
X153485548Y-66798976D01*
X153546024Y-66738500D01*
X153636738Y-66708262D01*
X153697214Y-66708262D01*
X153787929Y-66738500D01*
X153818167Y-66768738D01*
X154181024Y-66980405D02*
X154120548Y-66950167D01*
X154090309Y-66919929D01*
X154060071Y-66859452D01*
X154060071Y-66829214D01*
X154090309Y-66768738D01*
X154120548Y-66738500D01*
X154181024Y-66708262D01*
X154301976Y-66708262D01*
X154362452Y-66738500D01*
X154392690Y-66768738D01*
X154422929Y-66829214D01*
X154422929Y-66859452D01*
X154392690Y-66919929D01*
X154362452Y-66950167D01*
X154301976Y-66980405D01*
X154181024Y-66980405D01*
X154120548Y-67010643D01*
X154090309Y-67040881D01*
X154060071Y-67101357D01*
X154060071Y-67222310D01*
X154090309Y-67282786D01*
X154120548Y-67313024D01*
X154181024Y-67343262D01*
X154301976Y-67343262D01*
X154362452Y-67313024D01*
X154392690Y-67282786D01*
X154422929Y-67222310D01*
X154422929Y-67101357D01*
X154392690Y-67040881D01*
X154362452Y-67010643D01*
X154301976Y-66980405D01*
X160930167Y-67282786D02*
X160899929Y-67313024D01*
X160809214Y-67343262D01*
X160748738Y-67343262D01*
X160658024Y-67313024D01*
X160597548Y-67252548D01*
X160567309Y-67192071D01*
X160537071Y-67071119D01*
X160537071Y-66980405D01*
X160567309Y-66859452D01*
X160597548Y-66798976D01*
X160658024Y-66738500D01*
X160748738Y-66708262D01*
X160809214Y-66708262D01*
X160899929Y-66738500D01*
X160930167Y-66768738D01*
X161232548Y-67343262D02*
X161353500Y-67343262D01*
X161413976Y-67313024D01*
X161444214Y-67282786D01*
X161504690Y-67192071D01*
X161534929Y-67071119D01*
X161534929Y-66829214D01*
X161504690Y-66768738D01*
X161474452Y-66738500D01*
X161413976Y-66708262D01*
X161293024Y-66708262D01*
X161232548Y-66738500D01*
X161202309Y-66768738D01*
X161172071Y-66829214D01*
X161172071Y-66980405D01*
X161202309Y-67040881D01*
X161232548Y-67071119D01*
X161293024Y-67101357D01*
X161413976Y-67101357D01*
X161474452Y-67071119D01*
X161504690Y-67040881D01*
X161534929Y-66980405D01*
X150391905Y-85288381D02*
X150391905Y-84288381D01*
X150630000Y-84288381D01*
X150772858Y-84336000D01*
X150868096Y-84431238D01*
X150915715Y-84526476D01*
X150963334Y-84716952D01*
X150963334Y-84859810D01*
X150915715Y-85050286D01*
X150868096Y-85145524D01*
X150772858Y-85240762D01*
X150630000Y-85288381D01*
X150391905Y-85288381D01*
X151344286Y-84383619D02*
X151391905Y-84336000D01*
X151487143Y-84288381D01*
X151725239Y-84288381D01*
X151820477Y-84336000D01*
X151868096Y-84383619D01*
X151915715Y-84478857D01*
X151915715Y-84574095D01*
X151868096Y-84716952D01*
X151296667Y-85288381D01*
X151915715Y-85288381D01*
X116246905Y-97294381D02*
X116246905Y-96294381D01*
X116485000Y-96294381D01*
X116627858Y-96342000D01*
X116723096Y-96437238D01*
X116770715Y-96532476D01*
X116818334Y-96722952D01*
X116818334Y-96865810D01*
X116770715Y-97056286D01*
X116723096Y-97151524D01*
X116627858Y-97246762D01*
X116485000Y-97294381D01*
X116246905Y-97294381D01*
X117151667Y-96294381D02*
X117770715Y-96294381D01*
X117437381Y-96675333D01*
X117580239Y-96675333D01*
X117675477Y-96722952D01*
X117723096Y-96770571D01*
X117770715Y-96865810D01*
X117770715Y-97103905D01*
X117723096Y-97199143D01*
X117675477Y-97246762D01*
X117580239Y-97294381D01*
X117294524Y-97294381D01*
X117199286Y-97246762D01*
X117151667Y-97199143D01*
X155090905Y-85288381D02*
X155090905Y-84288381D01*
X155329000Y-84288381D01*
X155471858Y-84336000D01*
X155567096Y-84431238D01*
X155614715Y-84526476D01*
X155662334Y-84716952D01*
X155662334Y-84859810D01*
X155614715Y-85050286D01*
X155567096Y-85145524D01*
X155471858Y-85240762D01*
X155329000Y-85288381D01*
X155090905Y-85288381D01*
X156519477Y-84621714D02*
X156519477Y-85288381D01*
X156281381Y-84240762D02*
X156043286Y-84955048D01*
X156662334Y-84955048D01*
X187874905Y-98183381D02*
X187874905Y-97183381D01*
X188113000Y-97183381D01*
X188255858Y-97231000D01*
X188351096Y-97326238D01*
X188398715Y-97421476D01*
X188446334Y-97611952D01*
X188446334Y-97754810D01*
X188398715Y-97945286D01*
X188351096Y-98040524D01*
X188255858Y-98135762D01*
X188113000Y-98183381D01*
X187874905Y-98183381D01*
X189351096Y-97183381D02*
X188874905Y-97183381D01*
X188827286Y-97659571D01*
X188874905Y-97611952D01*
X188970143Y-97564333D01*
X189208239Y-97564333D01*
X189303477Y-97611952D01*
X189351096Y-97659571D01*
X189398715Y-97754810D01*
X189398715Y-97992905D01*
X189351096Y-98088143D01*
X189303477Y-98135762D01*
X189208239Y-98183381D01*
X188970143Y-98183381D01*
X188874905Y-98135762D01*
X188827286Y-98088143D01*
M02*
