G04 #@! TF.FileFunction,Soldermask,Bot*
%FSLAX46Y46*%
G04 Gerber Fmt 4.6, Leading zero omitted, Abs format (unit mm)*
G04 Created by KiCad (PCBNEW (2015-01-16 BZR 5376)-product) date 1/29/2016 4:56:34 PM*
%MOMM*%
G01*
G04 APERTURE LIST*
%ADD10C,0.150000*%
%ADD11C,2.400000*%
%ADD12C,5.200600*%
%ADD13R,5.200600X5.200600*%
%ADD14R,2.700000X2.700000*%
%ADD15C,2.900000*%
%ADD16O,2.051000X4.400000*%
%ADD17R,2.200000X2.200000*%
%ADD18C,2.200000*%
%ADD19O,2.330400X4.260800*%
%ADD20R,1.974800X2.686000*%
%ADD21O,1.974800X2.686000*%
%ADD22R,1.900000X1.900000*%
%ADD23O,1.900000X2.400000*%
%ADD24C,2.899360*%
%ADD25C,4.464000*%
%ADD26R,3.400000X3.400000*%
G04 APERTURE END LIST*
D10*
X188000000Y-105000000D02*
G75*
G03X193000000Y-100000000I0J5000000D01*
G01*
X107500000Y-105000000D02*
X188000000Y-105000000D01*
X102500000Y-42500000D02*
X102500000Y-100000000D01*
X188000000Y-37500000D02*
X107500000Y-37500000D01*
X193000000Y-100000000D02*
X193000000Y-42500000D01*
X102500000Y-100000000D02*
G75*
G03X107500000Y-105000000I5000000J0D01*
G01*
X193000000Y-42500000D02*
G75*
G03X188000000Y-37500000I-5000000J0D01*
G01*
X107500000Y-37500000D02*
G75*
G03X102500000Y-42500000I0J-5000000D01*
G01*
D11*
X171450000Y-89535000D03*
X176530000Y-89535000D03*
D12*
X105664000Y-89408000D03*
D13*
X111760000Y-89408000D03*
D12*
X107950000Y-94488000D03*
D14*
X117396000Y-100584000D03*
D15*
X120396000Y-100584000D03*
X123396000Y-100584000D03*
D16*
X125796040Y-100584000D03*
X114995960Y-100584000D03*
D17*
X130048000Y-103124000D03*
D18*
X130048000Y-100584000D03*
X130048000Y-98044000D03*
D17*
X132588000Y-103124000D03*
D18*
X132588000Y-100584000D03*
X132588000Y-98044000D03*
D17*
X135128000Y-103124000D03*
D18*
X135128000Y-100584000D03*
X135128000Y-98044000D03*
D19*
X116967000Y-50038000D03*
X119507000Y-50038000D03*
X122047000Y-50038000D03*
X124587000Y-50038000D03*
X127127000Y-50038000D03*
X129667000Y-50038000D03*
X132207000Y-50038000D03*
X134747000Y-50038000D03*
X137287000Y-50038000D03*
X139827000Y-50038000D03*
X142367000Y-50038000D03*
X144907000Y-50038000D03*
X147447000Y-50038000D03*
X149987000Y-50038000D03*
X152527000Y-50038000D03*
X155067000Y-50038000D03*
D20*
X125095000Y-79756000D03*
D21*
X127635000Y-79756000D03*
X130175000Y-79756000D03*
X132715000Y-79756000D03*
X135255000Y-79756000D03*
X137795000Y-79756000D03*
X140335000Y-79756000D03*
X142875000Y-79756000D03*
X145415000Y-79756000D03*
X147955000Y-79756000D03*
X150495000Y-79756000D03*
X153035000Y-79756000D03*
X155575000Y-79756000D03*
X158115000Y-79756000D03*
X160655000Y-79756000D03*
X163195000Y-79756000D03*
X165735000Y-79756000D03*
X168275000Y-79756000D03*
X170815000Y-79756000D03*
X173355000Y-79756000D03*
X173355000Y-64516000D03*
X170815000Y-64516000D03*
X168275000Y-64516000D03*
X165735000Y-64516000D03*
X163195000Y-64516000D03*
X160655000Y-64516000D03*
X158115000Y-64516000D03*
X155575000Y-64516000D03*
X153035000Y-64516000D03*
X150495000Y-64516000D03*
X147955000Y-64516000D03*
X145415000Y-64516000D03*
X142875000Y-64516000D03*
X140335000Y-64516000D03*
X137795000Y-64516000D03*
X135255000Y-64516000D03*
X132715000Y-64516000D03*
X130175000Y-64516000D03*
X127635000Y-64516000D03*
X125095000Y-64516000D03*
D22*
X140335000Y-102870000D03*
D23*
X142875000Y-102870000D03*
X145415000Y-102870000D03*
X147955000Y-102870000D03*
X150495000Y-102870000D03*
X153035000Y-102870000D03*
X155575000Y-102870000D03*
X158115000Y-102870000D03*
D22*
X163195000Y-39370000D03*
D23*
X165735000Y-39370000D03*
X168275000Y-39370000D03*
X170815000Y-39370000D03*
X173355000Y-39370000D03*
X175895000Y-39370000D03*
X178435000Y-39370000D03*
X180975000Y-39370000D03*
D22*
X140335000Y-39370000D03*
D23*
X142875000Y-39370000D03*
X145415000Y-39370000D03*
X147955000Y-39370000D03*
X150495000Y-39370000D03*
X153035000Y-39370000D03*
X155575000Y-39370000D03*
X158115000Y-39370000D03*
D22*
X163195000Y-102870000D03*
D23*
X165735000Y-102870000D03*
X168275000Y-102870000D03*
X170815000Y-102870000D03*
X173355000Y-102870000D03*
X175895000Y-102870000D03*
X178435000Y-102870000D03*
X180975000Y-102870000D03*
D18*
X113030000Y-78740000D03*
X110490000Y-78740000D03*
X113030000Y-76200000D03*
X110490000Y-76200000D03*
X113030000Y-73660000D03*
X110490000Y-73660000D03*
X113030000Y-71120000D03*
X110490000Y-71120000D03*
X113030000Y-68580000D03*
X110490000Y-68580000D03*
D24*
X134071360Y-85384640D03*
X136570720Y-90424000D03*
X131572000Y-90424000D03*
X145247360Y-85384640D03*
X147746720Y-90424000D03*
X142748000Y-90424000D03*
D11*
X186309000Y-89408000D03*
X191389000Y-89408000D03*
X161163000Y-73152000D03*
X156083000Y-73152000D03*
D25*
X107000000Y-101000000D03*
X107000000Y-42000000D03*
X189000000Y-42000000D03*
X189000000Y-101000000D03*
D11*
X161290000Y-89535000D03*
X166370000Y-89535000D03*
D26*
X107985000Y-49150000D03*
X104685000Y-49150000D03*
X107985000Y-58800000D03*
X104685000Y-58800000D03*
M02*
