G04 #@! TF.FileFunction,Soldermask,Top*
%FSLAX46Y46*%
G04 Gerber Fmt 4.6, Leading zero omitted, Abs format (unit mm)*
G04 Created by KiCad (PCBNEW (2015-01-16 BZR 5376)-product) date 1/29/2016 4:56:34 PM*
%MOMM*%
G01*
G04 APERTURE LIST*
%ADD10C,0.150000*%
%ADD11C,2.400000*%
%ADD12C,5.200600*%
%ADD13R,5.200600X5.200600*%
%ADD14R,2.700000X2.700000*%
%ADD15C,2.900000*%
%ADD16O,2.051000X4.400000*%
%ADD17R,2.000200X3.999180*%
%ADD18R,2.200000X2.200000*%
%ADD19C,2.200000*%
%ADD20O,2.330400X4.260800*%
%ADD21R,1.974800X2.686000*%
%ADD22O,1.974800X2.686000*%
%ADD23R,1.900000X1.900000*%
%ADD24O,1.900000X2.400000*%
%ADD25C,2.899360*%
%ADD26R,1.400760X0.631140*%
%ADD27R,0.631140X1.400760*%
%ADD28R,1.901140X1.901140*%
%ADD29C,0.699720*%
%ADD30R,1.400760X2.899360*%
%ADD31R,3.399740X2.899360*%
%ADD32R,2.400000X2.000000*%
%ADD33C,4.464000*%
%ADD34R,2.000000X2.400000*%
%ADD35R,2.100000X2.400000*%
%ADD36R,2.400000X2.100000*%
%ADD37R,1.900000X0.800000*%
%ADD38R,3.400000X3.400000*%
%ADD39R,2.200860X1.997660*%
%ADD40R,1.997660X2.200860*%
G04 APERTURE END LIST*
D10*
X188000000Y-105000000D02*
G75*
G03X193000000Y-100000000I0J5000000D01*
G01*
X107500000Y-105000000D02*
X188000000Y-105000000D01*
X102500000Y-42500000D02*
X102500000Y-100000000D01*
X188000000Y-37500000D02*
X107500000Y-37500000D01*
X193000000Y-100000000D02*
X193000000Y-42500000D01*
X102500000Y-100000000D02*
G75*
G03X107500000Y-105000000I5000000J0D01*
G01*
X193000000Y-42500000D02*
G75*
G03X188000000Y-37500000I-5000000J0D01*
G01*
X107500000Y-37500000D02*
G75*
G03X102500000Y-42500000I0J-5000000D01*
G01*
D11*
X171450000Y-89535000D03*
X176530000Y-89535000D03*
D12*
X105664000Y-89408000D03*
D13*
X111760000Y-89408000D03*
D12*
X107950000Y-94488000D03*
D14*
X117396000Y-100584000D03*
D15*
X120396000Y-100584000D03*
X123396000Y-100584000D03*
D16*
X125796040Y-100584000D03*
X114995960Y-100584000D03*
D17*
X125984000Y-84625180D03*
X125984000Y-90126820D03*
D18*
X130048000Y-103124000D03*
D19*
X130048000Y-100584000D03*
X130048000Y-98044000D03*
D18*
X132588000Y-103124000D03*
D19*
X132588000Y-100584000D03*
X132588000Y-98044000D03*
D18*
X135128000Y-103124000D03*
D19*
X135128000Y-100584000D03*
X135128000Y-98044000D03*
D20*
X116967000Y-50038000D03*
X119507000Y-50038000D03*
X122047000Y-50038000D03*
X124587000Y-50038000D03*
X127127000Y-50038000D03*
X129667000Y-50038000D03*
X132207000Y-50038000D03*
X134747000Y-50038000D03*
X137287000Y-50038000D03*
X139827000Y-50038000D03*
X142367000Y-50038000D03*
X144907000Y-50038000D03*
X147447000Y-50038000D03*
X149987000Y-50038000D03*
X152527000Y-50038000D03*
X155067000Y-50038000D03*
D21*
X125095000Y-79756000D03*
D22*
X127635000Y-79756000D03*
X130175000Y-79756000D03*
X132715000Y-79756000D03*
X135255000Y-79756000D03*
X137795000Y-79756000D03*
X140335000Y-79756000D03*
X142875000Y-79756000D03*
X145415000Y-79756000D03*
X147955000Y-79756000D03*
X150495000Y-79756000D03*
X153035000Y-79756000D03*
X155575000Y-79756000D03*
X158115000Y-79756000D03*
X160655000Y-79756000D03*
X163195000Y-79756000D03*
X165735000Y-79756000D03*
X168275000Y-79756000D03*
X170815000Y-79756000D03*
X173355000Y-79756000D03*
X173355000Y-64516000D03*
X170815000Y-64516000D03*
X168275000Y-64516000D03*
X165735000Y-64516000D03*
X163195000Y-64516000D03*
X160655000Y-64516000D03*
X158115000Y-64516000D03*
X155575000Y-64516000D03*
X153035000Y-64516000D03*
X150495000Y-64516000D03*
X147955000Y-64516000D03*
X145415000Y-64516000D03*
X142875000Y-64516000D03*
X140335000Y-64516000D03*
X137795000Y-64516000D03*
X135255000Y-64516000D03*
X132715000Y-64516000D03*
X130175000Y-64516000D03*
X127635000Y-64516000D03*
X125095000Y-64516000D03*
D23*
X140335000Y-102870000D03*
D24*
X142875000Y-102870000D03*
X145415000Y-102870000D03*
X147955000Y-102870000D03*
X150495000Y-102870000D03*
X153035000Y-102870000D03*
X155575000Y-102870000D03*
X158115000Y-102870000D03*
D23*
X163195000Y-39370000D03*
D24*
X165735000Y-39370000D03*
X168275000Y-39370000D03*
X170815000Y-39370000D03*
X173355000Y-39370000D03*
X175895000Y-39370000D03*
X178435000Y-39370000D03*
X180975000Y-39370000D03*
D23*
X140335000Y-39370000D03*
D24*
X142875000Y-39370000D03*
X145415000Y-39370000D03*
X147955000Y-39370000D03*
X150495000Y-39370000D03*
X153035000Y-39370000D03*
X155575000Y-39370000D03*
X158115000Y-39370000D03*
D23*
X163195000Y-102870000D03*
D24*
X165735000Y-102870000D03*
X168275000Y-102870000D03*
X170815000Y-102870000D03*
X173355000Y-102870000D03*
X175895000Y-102870000D03*
X178435000Y-102870000D03*
X180975000Y-102870000D03*
D19*
X113030000Y-78740000D03*
X110490000Y-78740000D03*
X113030000Y-76200000D03*
X110490000Y-76200000D03*
X113030000Y-73660000D03*
X110490000Y-73660000D03*
X113030000Y-71120000D03*
X110490000Y-71120000D03*
X113030000Y-68580000D03*
X110490000Y-68580000D03*
D25*
X134071360Y-85384640D03*
X136570720Y-90424000D03*
X131572000Y-90424000D03*
X145247360Y-85384640D03*
X147746720Y-90424000D03*
X142748000Y-90424000D03*
D11*
X186309000Y-89408000D03*
X191389000Y-89408000D03*
D26*
X114848640Y-59413140D03*
X114848640Y-58912760D03*
X114848640Y-58412380D03*
X114848640Y-57912000D03*
X114848640Y-57411620D03*
X114848640Y-56911240D03*
X114848640Y-56410860D03*
D27*
X115846860Y-55412640D03*
X116347240Y-55412640D03*
X116847620Y-55412640D03*
X117348000Y-55412640D03*
X117848380Y-55412640D03*
X118348760Y-55412640D03*
X118849140Y-55412640D03*
D26*
X119847360Y-56410860D03*
X119847360Y-56911240D03*
X119847360Y-57411620D03*
X119847360Y-57912000D03*
X119847360Y-58412380D03*
X119847360Y-58912760D03*
X119847360Y-59413140D03*
D27*
X118849140Y-60411360D03*
X118348760Y-60411360D03*
X117848380Y-60411360D03*
X117348000Y-60411360D03*
X116847620Y-60411360D03*
X116347240Y-60411360D03*
X115846860Y-60411360D03*
D28*
X117348000Y-57912000D03*
D29*
X115097560Y-55661560D03*
D30*
X118872000Y-90634820D03*
X121122440Y-90634820D03*
X116621560Y-90634820D03*
D31*
X118872000Y-84884260D03*
D11*
X161163000Y-73152000D03*
X156083000Y-73152000D03*
D32*
X141891000Y-74676000D03*
X145891000Y-74676000D03*
X141891000Y-71628000D03*
X145891000Y-71628000D03*
D33*
X107000000Y-101000000D03*
X107000000Y-42000000D03*
X189000000Y-42000000D03*
X189000000Y-101000000D03*
D11*
X161290000Y-89535000D03*
X166370000Y-89535000D03*
D34*
X125349000Y-59404000D03*
X125349000Y-55404000D03*
X129032000Y-55404000D03*
X129032000Y-59404000D03*
X132969000Y-55404000D03*
X132969000Y-59404000D03*
D32*
X141891000Y-68580000D03*
X145891000Y-68580000D03*
D34*
X111760000Y-102584000D03*
X111760000Y-98584000D03*
D35*
X190881000Y-82264000D03*
X190881000Y-78264000D03*
D36*
X121952000Y-94869000D03*
X125952000Y-94869000D03*
X179483000Y-95885000D03*
X183483000Y-95885000D03*
D35*
X151257000Y-95980000D03*
X151257000Y-91980000D03*
X155829000Y-95980000D03*
X155829000Y-91980000D03*
D36*
X179483000Y-90932000D03*
X183483000Y-90932000D03*
X179483000Y-86614000D03*
X183483000Y-86614000D03*
D35*
X137033000Y-59404000D03*
X137033000Y-55404000D03*
D32*
X151797000Y-68834000D03*
X155797000Y-68834000D03*
X162909000Y-68834000D03*
X158909000Y-68834000D03*
D37*
X108685000Y-52675000D03*
X108685000Y-53325000D03*
X108685000Y-53975000D03*
X108685000Y-54625000D03*
X108685000Y-55275000D03*
D38*
X107985000Y-49150000D03*
X104685000Y-49150000D03*
X107985000Y-58800000D03*
X104685000Y-58800000D03*
D39*
X151257000Y-89303860D03*
X151257000Y-86464140D03*
D40*
X115801140Y-94996000D03*
X118640860Y-94996000D03*
D39*
X155829000Y-89303860D03*
X155829000Y-86464140D03*
D40*
X187429140Y-95885000D03*
X190268860Y-95885000D03*
M02*
