G04 #@! TF.FileFunction,Copper,L1,Top,Signal*
%FSLAX46Y46*%
G04 Gerber Fmt 4.6, Leading zero omitted, Abs format (unit mm)*
G04 Created by KiCad (PCBNEW (2015-01-16 BZR 5376)-product) date 1/29/2016 4:56:34 PM*
%MOMM*%
G01*
G04 APERTURE LIST*
%ADD10C,0.150000*%
%ADD11C,0.254000*%
%ADD12C,2.000000*%
%ADD13C,4.800600*%
%ADD14R,4.800600X4.800600*%
%ADD15R,2.300000X2.300000*%
%ADD16C,2.500000*%
%ADD17O,1.651000X4.000000*%
%ADD18R,1.600200X3.599180*%
%ADD19R,1.800000X1.800000*%
%ADD20C,1.800000*%
%ADD21O,1.930400X3.860800*%
%ADD22R,1.574800X2.286000*%
%ADD23O,1.574800X2.286000*%
%ADD24R,1.500000X1.500000*%
%ADD25O,1.500000X2.000000*%
%ADD26C,2.499360*%
%ADD27R,1.000760X0.231140*%
%ADD28R,0.231140X1.000760*%
%ADD29R,1.501140X1.501140*%
%ADD30C,0.299720*%
%ADD31R,1.000760X2.499360*%
%ADD32R,2.999740X2.499360*%
%ADD33R,2.000000X1.600000*%
%ADD34C,4.064000*%
%ADD35R,1.600000X2.000000*%
%ADD36R,1.700000X2.000000*%
%ADD37R,2.000000X1.700000*%
%ADD38R,1.500000X0.400000*%
%ADD39R,3.000000X3.000000*%
%ADD40R,1.800860X1.597660*%
%ADD41R,1.597660X1.800860*%
%ADD42C,1.500000*%
%ADD43C,0.889000*%
%ADD44C,0.889000*%
%ADD45C,0.508000*%
%ADD46C,0.381000*%
%ADD47C,0.304800*%
%ADD48C,0.762000*%
%ADD49C,0.635000*%
G04 APERTURE END LIST*
D10*
X188000000Y-105000000D02*
G75*
G03X193000000Y-100000000I0J5000000D01*
G01*
X107500000Y-105000000D02*
X188000000Y-105000000D01*
X102500000Y-42500000D02*
X102500000Y-100000000D01*
X188000000Y-37500000D02*
X107500000Y-37500000D01*
X193000000Y-100000000D02*
X193000000Y-42500000D01*
X102500000Y-100000000D02*
G75*
G03X107500000Y-105000000I5000000J0D01*
G01*
X193000000Y-42500000D02*
G75*
G03X188000000Y-37500000I-5000000J0D01*
G01*
X107500000Y-37500000D02*
G75*
G03X102500000Y-42500000I0J-5000000D01*
G01*
D11*
X183478714Y-40159714D02*
X183430333Y-40231143D01*
X183285190Y-40302571D01*
X183188428Y-40302571D01*
X183043286Y-40231143D01*
X182946524Y-40088286D01*
X182898143Y-39945429D01*
X182849762Y-39659714D01*
X182849762Y-39445429D01*
X182898143Y-39159714D01*
X182946524Y-39016857D01*
X183043286Y-38874000D01*
X183188428Y-38802571D01*
X183285190Y-38802571D01*
X183430333Y-38874000D01*
X183478714Y-38945429D01*
X184107667Y-38802571D02*
X184301190Y-38802571D01*
X184397952Y-38874000D01*
X184494714Y-39016857D01*
X184543095Y-39302571D01*
X184543095Y-39802571D01*
X184494714Y-40088286D01*
X184397952Y-40231143D01*
X184301190Y-40302571D01*
X184107667Y-40302571D01*
X184010905Y-40231143D01*
X183914143Y-40088286D01*
X183865762Y-39802571D01*
X183865762Y-39302571D01*
X183914143Y-39016857D01*
X184010905Y-38874000D01*
X184107667Y-38802571D01*
X184978524Y-40302571D02*
X184978524Y-38802571D01*
X185317190Y-39874000D01*
X185655857Y-38802571D01*
X185655857Y-40302571D01*
X186139667Y-40302571D02*
X186139667Y-38802571D01*
X186526714Y-38802571D01*
X186623476Y-38874000D01*
X186671857Y-38945429D01*
X186720238Y-39088286D01*
X186720238Y-39302571D01*
X186671857Y-39445429D01*
X186623476Y-39516857D01*
X186526714Y-39588286D01*
X186139667Y-39588286D01*
X183478714Y-40159714D02*
X183430333Y-40231143D01*
X183285190Y-40302571D01*
X183188428Y-40302571D01*
X183043286Y-40231143D01*
X182946524Y-40088286D01*
X182898143Y-39945429D01*
X182849762Y-39659714D01*
X182849762Y-39445429D01*
X182898143Y-39159714D01*
X182946524Y-39016857D01*
X183043286Y-38874000D01*
X183188428Y-38802571D01*
X183285190Y-38802571D01*
X183430333Y-38874000D01*
X183478714Y-38945429D01*
X184107667Y-38802571D02*
X184301190Y-38802571D01*
X184397952Y-38874000D01*
X184494714Y-39016857D01*
X184543095Y-39302571D01*
X184543095Y-39802571D01*
X184494714Y-40088286D01*
X184397952Y-40231143D01*
X184301190Y-40302571D01*
X184107667Y-40302571D01*
X184010905Y-40231143D01*
X183914143Y-40088286D01*
X183865762Y-39802571D01*
X183865762Y-39302571D01*
X183914143Y-39016857D01*
X184010905Y-38874000D01*
X184107667Y-38802571D01*
X184978524Y-40302571D02*
X184978524Y-38802571D01*
X185317190Y-39874000D01*
X185655857Y-38802571D01*
X185655857Y-40302571D01*
X186139667Y-40302571D02*
X186139667Y-38802571D01*
X186526714Y-38802571D01*
X186623476Y-38874000D01*
X186671857Y-38945429D01*
X186720238Y-39088286D01*
X186720238Y-39302571D01*
X186671857Y-39445429D01*
X186623476Y-39516857D01*
X186526714Y-39588286D01*
X186139667Y-39588286D01*
D12*
X171450000Y-89535000D03*
X176530000Y-89535000D03*
D13*
X105664000Y-89408000D03*
D14*
X111760000Y-89408000D03*
D13*
X107950000Y-94488000D03*
D15*
X117396000Y-100584000D03*
D16*
X120396000Y-100584000D03*
X123396000Y-100584000D03*
D17*
X125796040Y-100584000D03*
X114995960Y-100584000D03*
D18*
X125984000Y-84625180D03*
X125984000Y-90126820D03*
D19*
X130048000Y-103124000D03*
D20*
X130048000Y-100584000D03*
X130048000Y-98044000D03*
D19*
X132588000Y-103124000D03*
D20*
X132588000Y-100584000D03*
X132588000Y-98044000D03*
D19*
X135128000Y-103124000D03*
D20*
X135128000Y-100584000D03*
X135128000Y-98044000D03*
D21*
X116967000Y-50038000D03*
X119507000Y-50038000D03*
X122047000Y-50038000D03*
X124587000Y-50038000D03*
X127127000Y-50038000D03*
X129667000Y-50038000D03*
X132207000Y-50038000D03*
X134747000Y-50038000D03*
X137287000Y-50038000D03*
X139827000Y-50038000D03*
X142367000Y-50038000D03*
X144907000Y-50038000D03*
X147447000Y-50038000D03*
X149987000Y-50038000D03*
X152527000Y-50038000D03*
X155067000Y-50038000D03*
D22*
X125095000Y-79756000D03*
D23*
X127635000Y-79756000D03*
X130175000Y-79756000D03*
X132715000Y-79756000D03*
X135255000Y-79756000D03*
X137795000Y-79756000D03*
X140335000Y-79756000D03*
X142875000Y-79756000D03*
X145415000Y-79756000D03*
X147955000Y-79756000D03*
X150495000Y-79756000D03*
X153035000Y-79756000D03*
X155575000Y-79756000D03*
X158115000Y-79756000D03*
X160655000Y-79756000D03*
X163195000Y-79756000D03*
X165735000Y-79756000D03*
X168275000Y-79756000D03*
X170815000Y-79756000D03*
X173355000Y-79756000D03*
X173355000Y-64516000D03*
X170815000Y-64516000D03*
X168275000Y-64516000D03*
X165735000Y-64516000D03*
X163195000Y-64516000D03*
X160655000Y-64516000D03*
X158115000Y-64516000D03*
X155575000Y-64516000D03*
X153035000Y-64516000D03*
X150495000Y-64516000D03*
X147955000Y-64516000D03*
X145415000Y-64516000D03*
X142875000Y-64516000D03*
X140335000Y-64516000D03*
X137795000Y-64516000D03*
X135255000Y-64516000D03*
X132715000Y-64516000D03*
X130175000Y-64516000D03*
X127635000Y-64516000D03*
X125095000Y-64516000D03*
D24*
X140335000Y-102870000D03*
D25*
X142875000Y-102870000D03*
X145415000Y-102870000D03*
X147955000Y-102870000D03*
X150495000Y-102870000D03*
X153035000Y-102870000D03*
X155575000Y-102870000D03*
X158115000Y-102870000D03*
D24*
X163195000Y-39370000D03*
D25*
X165735000Y-39370000D03*
X168275000Y-39370000D03*
X170815000Y-39370000D03*
X173355000Y-39370000D03*
X175895000Y-39370000D03*
X178435000Y-39370000D03*
X180975000Y-39370000D03*
D24*
X140335000Y-39370000D03*
D25*
X142875000Y-39370000D03*
X145415000Y-39370000D03*
X147955000Y-39370000D03*
X150495000Y-39370000D03*
X153035000Y-39370000D03*
X155575000Y-39370000D03*
X158115000Y-39370000D03*
D24*
X163195000Y-102870000D03*
D25*
X165735000Y-102870000D03*
X168275000Y-102870000D03*
X170815000Y-102870000D03*
X173355000Y-102870000D03*
X175895000Y-102870000D03*
X178435000Y-102870000D03*
X180975000Y-102870000D03*
D20*
X113030000Y-78740000D03*
X110490000Y-78740000D03*
X113030000Y-76200000D03*
X110490000Y-76200000D03*
X113030000Y-73660000D03*
X110490000Y-73660000D03*
X113030000Y-71120000D03*
X110490000Y-71120000D03*
X113030000Y-68580000D03*
X110490000Y-68580000D03*
D26*
X134071360Y-85384640D03*
X136570720Y-90424000D03*
X131572000Y-90424000D03*
X145247360Y-85384640D03*
X147746720Y-90424000D03*
X142748000Y-90424000D03*
D12*
X186309000Y-89408000D03*
X191389000Y-89408000D03*
D27*
X114848640Y-59413140D03*
X114848640Y-58912760D03*
X114848640Y-58412380D03*
X114848640Y-57912000D03*
X114848640Y-57411620D03*
X114848640Y-56911240D03*
X114848640Y-56410860D03*
D28*
X115846860Y-55412640D03*
X116347240Y-55412640D03*
X116847620Y-55412640D03*
X117348000Y-55412640D03*
X117848380Y-55412640D03*
X118348760Y-55412640D03*
X118849140Y-55412640D03*
D27*
X119847360Y-56410860D03*
X119847360Y-56911240D03*
X119847360Y-57411620D03*
X119847360Y-57912000D03*
X119847360Y-58412380D03*
X119847360Y-58912760D03*
X119847360Y-59413140D03*
D28*
X118849140Y-60411360D03*
X118348760Y-60411360D03*
X117848380Y-60411360D03*
X117348000Y-60411360D03*
X116847620Y-60411360D03*
X116347240Y-60411360D03*
X115846860Y-60411360D03*
D29*
X117348000Y-57912000D03*
D30*
X115097560Y-55661560D03*
D31*
X118872000Y-90634820D03*
X121122440Y-90634820D03*
X116621560Y-90634820D03*
D32*
X118872000Y-84884260D03*
D12*
X161163000Y-73152000D03*
X156083000Y-73152000D03*
D33*
X141891000Y-74676000D03*
X145891000Y-74676000D03*
X141891000Y-71628000D03*
X145891000Y-71628000D03*
D34*
X107000000Y-101000000D03*
X107000000Y-42000000D03*
X189000000Y-42000000D03*
X189000000Y-101000000D03*
D12*
X161290000Y-89535000D03*
X166370000Y-89535000D03*
D35*
X125349000Y-59404000D03*
X125349000Y-55404000D03*
X129032000Y-55404000D03*
X129032000Y-59404000D03*
X132969000Y-55404000D03*
X132969000Y-59404000D03*
D33*
X141891000Y-68580000D03*
X145891000Y-68580000D03*
D35*
X111760000Y-102584000D03*
X111760000Y-98584000D03*
D36*
X190881000Y-82264000D03*
X190881000Y-78264000D03*
D37*
X121952000Y-94869000D03*
X125952000Y-94869000D03*
X179483000Y-95885000D03*
X183483000Y-95885000D03*
D36*
X151257000Y-95980000D03*
X151257000Y-91980000D03*
X155829000Y-95980000D03*
X155829000Y-91980000D03*
D37*
X179483000Y-90932000D03*
X183483000Y-90932000D03*
X179483000Y-86614000D03*
X183483000Y-86614000D03*
D36*
X137033000Y-59404000D03*
X137033000Y-55404000D03*
D33*
X151797000Y-68834000D03*
X155797000Y-68834000D03*
X162909000Y-68834000D03*
X158909000Y-68834000D03*
D38*
X108685000Y-52675000D03*
X108685000Y-53325000D03*
X108685000Y-53975000D03*
X108685000Y-54625000D03*
X108685000Y-55275000D03*
D39*
X107985000Y-49150000D03*
X104685000Y-49150000D03*
X107985000Y-58800000D03*
X104685000Y-58800000D03*
D40*
X151257000Y-89303860D03*
X151257000Y-86464140D03*
D41*
X115801140Y-94996000D03*
X118640860Y-94996000D03*
D40*
X155829000Y-89303860D03*
X155829000Y-86464140D03*
D41*
X187429140Y-95885000D03*
X190268860Y-95885000D03*
D42*
X182753000Y-76517500D03*
X138239500Y-67119500D03*
X106997500Y-72009000D03*
X120967500Y-70548500D03*
X116967000Y-62865000D03*
X174752000Y-55372000D03*
X179324000Y-61785500D03*
X181229000Y-61912500D03*
X183197500Y-61912500D03*
X123444000Y-92202000D03*
X117475000Y-71628000D03*
X118999000Y-67437000D03*
X160274000Y-99822000D03*
X173736000Y-87884000D03*
X131635500Y-67945000D03*
X135509000Y-71945500D03*
X138303000Y-70993000D03*
X113411000Y-42862500D03*
X116332000Y-45339000D03*
X106045000Y-53784500D03*
X176276000Y-96329500D03*
X123444000Y-89281000D03*
X137795000Y-99060000D03*
D43*
X159194500Y-97663000D03*
D42*
X130937000Y-55118000D03*
X119126000Y-65151000D03*
X114935000Y-64389000D03*
X133985000Y-82677000D03*
X122809000Y-81661000D03*
X110744000Y-59055000D03*
X113030000Y-53213000D03*
X110744000Y-57277000D03*
X111760000Y-54610000D03*
D44*
X141891000Y-68580000D02*
X139700000Y-68580000D01*
X183483000Y-77247500D02*
X183483000Y-86614000D01*
X182753000Y-76517500D02*
X183483000Y-77247500D01*
X139700000Y-68580000D02*
X138239500Y-67119500D01*
X108331000Y-78740000D02*
X110490000Y-78740000D01*
X106997500Y-77406500D02*
X108331000Y-78740000D01*
X106997500Y-72009000D02*
X106997500Y-77406500D01*
X122364500Y-70040500D02*
X121475500Y-70040500D01*
X121475500Y-70040500D02*
X120967500Y-70548500D01*
X141891000Y-68580000D02*
X134429500Y-68580000D01*
X132969000Y-70040500D02*
X122364500Y-70040500D01*
X122364500Y-70040500D02*
X122301000Y-70040500D01*
X134429500Y-68580000D02*
X132969000Y-70040500D01*
D45*
X137033000Y-59404000D02*
X137033000Y-58864500D01*
X137033000Y-58864500D02*
X135509000Y-57340500D01*
X126492000Y-57340500D02*
X125349000Y-58483500D01*
X135509000Y-57340500D02*
X126492000Y-57340500D01*
X125349000Y-58483500D02*
X125349000Y-59404000D01*
D46*
X115846860Y-61595000D02*
X115846860Y-61744860D01*
X115846860Y-61744860D02*
X116967000Y-62865000D01*
D47*
X114848640Y-59413140D02*
X113433860Y-59413140D01*
X115846860Y-62588140D02*
X115846860Y-61595000D01*
X115846860Y-61595000D02*
X115846860Y-60411360D01*
X115443000Y-62992000D02*
X115846860Y-62588140D01*
X114046000Y-62992000D02*
X115443000Y-62992000D01*
X112649000Y-61595000D02*
X114046000Y-62992000D01*
X112649000Y-60198000D02*
X112649000Y-61595000D01*
X113433860Y-59413140D02*
X112649000Y-60198000D01*
D46*
X108685000Y-52675000D02*
X110393000Y-52675000D01*
X110393000Y-52675000D02*
X116332000Y-46736000D01*
X116332000Y-46736000D02*
X118618000Y-46736000D01*
X118618000Y-46736000D02*
X119507000Y-47625000D01*
X119507000Y-47625000D02*
X119507000Y-50038000D01*
D44*
X147746720Y-90424000D02*
X147746720Y-87584280D01*
X147955000Y-81788000D02*
X147955000Y-79756000D01*
X148717000Y-82550000D02*
X147955000Y-81788000D01*
X148717000Y-86614000D02*
X148717000Y-82550000D01*
X147746720Y-87584280D02*
X148717000Y-86614000D01*
X137033000Y-59404000D02*
X142462000Y-59404000D01*
X145415000Y-62357000D02*
X145415000Y-64516000D01*
X142462000Y-59404000D02*
X145415000Y-62357000D01*
X147955000Y-79756000D02*
X147955000Y-78359000D01*
X147955000Y-78359000D02*
X146304000Y-76708000D01*
X146304000Y-76708000D02*
X142875000Y-76708000D01*
X142875000Y-76708000D02*
X141891000Y-75724000D01*
X141891000Y-75724000D02*
X141891000Y-74676000D01*
X145415000Y-64516000D02*
X145415000Y-65278000D01*
X145415000Y-65278000D02*
X142113000Y-68580000D01*
X142113000Y-68580000D02*
X141891000Y-68580000D01*
X141891000Y-71628000D02*
X141891000Y-68580000D01*
X141891000Y-74676000D02*
X141891000Y-71628000D01*
D48*
X183483000Y-90932000D02*
X183483000Y-86614000D01*
X183483000Y-79788000D02*
X185007000Y-78264000D01*
X183483000Y-86614000D02*
X183483000Y-79788000D01*
X185007000Y-78264000D02*
X190881000Y-78264000D01*
D44*
X135128000Y-94615000D02*
X136570720Y-93172280D01*
X136570720Y-93172280D02*
X136570720Y-90424000D01*
X135128000Y-98044000D02*
X135128000Y-94615000D01*
X135128000Y-96837500D02*
X135128000Y-98044000D01*
X125305820Y-84625180D02*
X125984000Y-84625180D01*
X118872000Y-88900000D02*
X119888000Y-87884000D01*
X119888000Y-87884000D02*
X122047000Y-87884000D01*
X122047000Y-87884000D02*
X125305820Y-84625180D01*
X118872000Y-90634820D02*
X118872000Y-88900000D01*
X128397000Y-93345000D02*
X128397000Y-87038180D01*
X128397000Y-87038180D02*
X125984000Y-84625180D01*
X126873000Y-94869000D02*
X128397000Y-93345000D01*
X125952000Y-94869000D02*
X126873000Y-94869000D01*
X118872000Y-89027000D02*
X117729000Y-87884000D01*
X117729000Y-87884000D02*
X116713000Y-87884000D01*
X116713000Y-87884000D02*
X115570000Y-86741000D01*
X115570000Y-86741000D02*
X115570000Y-86614000D01*
X115570000Y-86614000D02*
X110490000Y-81534000D01*
X110490000Y-81534000D02*
X110490000Y-78740000D01*
X118872000Y-90634820D02*
X118872000Y-89027000D01*
D48*
X146812000Y-90424000D02*
X147746720Y-90424000D01*
X138049000Y-87757000D02*
X144145000Y-87757000D01*
X144145000Y-87757000D02*
X146812000Y-90424000D01*
X136570720Y-89235280D02*
X138049000Y-87757000D01*
X136570720Y-90424000D02*
X136570720Y-89235280D01*
X133477000Y-87884000D02*
X129242820Y-87884000D01*
X129242820Y-87884000D02*
X128397000Y-87038180D01*
X136017000Y-90424000D02*
X133477000Y-87884000D01*
X136570720Y-90424000D02*
X136017000Y-90424000D01*
D45*
X173355000Y-101092000D02*
X175831500Y-98615500D01*
X175831500Y-98615500D02*
X187007500Y-98615500D01*
X187007500Y-98615500D02*
X187769500Y-97853500D01*
X187769500Y-97853500D02*
X189611000Y-97853500D01*
X189611000Y-97853500D02*
X190500000Y-96964500D01*
X190500000Y-96964500D02*
X190500000Y-95885000D01*
X173355000Y-102870000D02*
X173355000Y-101092000D01*
D49*
X174752000Y-55372000D02*
X170180000Y-50800000D01*
X170180000Y-50800000D02*
X168656000Y-50800000D01*
D45*
X168656000Y-50800000D02*
X161798000Y-43942000D01*
X161798000Y-43942000D02*
X152908000Y-43942000D01*
X152908000Y-43942000D02*
X150495000Y-41529000D01*
D49*
X150495000Y-41529000D02*
X150495000Y-39370000D01*
D45*
X155194000Y-43180000D02*
X153035000Y-41021000D01*
X164465000Y-43180000D02*
X155194000Y-43180000D01*
X176657000Y-55372000D02*
X164465000Y-43180000D01*
X179387500Y-58102500D02*
X176657000Y-55372000D01*
X179387500Y-61849000D02*
X179387500Y-58102500D01*
X179324000Y-61785500D02*
X179387500Y-61849000D01*
X153035000Y-41021000D02*
X153035000Y-39370000D01*
X157099000Y-42418000D02*
X155575000Y-40894000D01*
X165481000Y-42418000D02*
X157099000Y-42418000D01*
X178562000Y-55499000D02*
X165481000Y-42418000D01*
X181292500Y-58229500D02*
X178562000Y-55499000D01*
X181292500Y-61849000D02*
X181292500Y-58229500D01*
X181229000Y-61912500D02*
X181292500Y-61849000D01*
X155575000Y-40894000D02*
X155575000Y-39370000D01*
X180594000Y-55626000D02*
X180562250Y-55594250D01*
X166497000Y-41529000D02*
X160274000Y-41529000D01*
X180562250Y-55594250D02*
X166497000Y-41529000D01*
X160274000Y-41529000D02*
X158115000Y-39370000D01*
X183197500Y-61912500D02*
X183197500Y-59690000D01*
X183197500Y-58229500D02*
X180562250Y-55594250D01*
X183197500Y-61912500D02*
X183197500Y-58229500D01*
D49*
X120396000Y-102489000D02*
X120396000Y-100584000D01*
X119253000Y-103632000D02*
X120396000Y-102489000D01*
X113157000Y-103632000D02*
X119253000Y-103632000D01*
X112109000Y-102584000D02*
X113157000Y-103632000D01*
X111760000Y-102584000D02*
X112109000Y-102584000D01*
D44*
X122689620Y-92202000D02*
X123444000Y-92202000D01*
X121122440Y-90634820D02*
X122689620Y-92202000D01*
D47*
X115846860Y-55412640D02*
X115846860Y-53444140D01*
X130270000Y-52705000D02*
X132969000Y-55404000D01*
X116586000Y-52705000D02*
X130270000Y-52705000D01*
X115846860Y-53444140D02*
X116586000Y-52705000D01*
D49*
X140335000Y-79756000D02*
X140335000Y-78232000D01*
X114808000Y-68580000D02*
X113030000Y-68580000D01*
X116078000Y-69850000D02*
X114808000Y-68580000D01*
X116078000Y-72898000D02*
X116078000Y-69850000D01*
X119126000Y-75946000D02*
X116078000Y-72898000D01*
X138049000Y-75946000D02*
X119126000Y-75946000D01*
X140335000Y-78232000D02*
X138049000Y-75946000D01*
X137795000Y-79756000D02*
X137795000Y-78486000D01*
X115951000Y-78740000D02*
X113030000Y-78740000D01*
X117475000Y-77216000D02*
X115951000Y-78740000D01*
X136525000Y-77216000D02*
X117475000Y-77216000D01*
X137795000Y-78486000D02*
X136525000Y-77216000D01*
D48*
X168275000Y-101727000D02*
X168275000Y-102870000D01*
X179070000Y-90932000D02*
X168275000Y-101727000D01*
X179483000Y-90932000D02*
X179070000Y-90932000D01*
X176530000Y-88328500D02*
X176530000Y-89535000D01*
X178244500Y-86614000D02*
X176530000Y-88328500D01*
X179483000Y-86614000D02*
X178244500Y-86614000D01*
X176530000Y-87693500D02*
X174307500Y-85471000D01*
X174307500Y-85471000D02*
X167767000Y-85471000D01*
X167767000Y-85471000D02*
X165735000Y-83439000D01*
X165735000Y-83439000D02*
X165735000Y-79756000D01*
X176530000Y-89535000D02*
X176530000Y-87693500D01*
D49*
X142875000Y-79756000D02*
X142875000Y-78994000D01*
X142875000Y-78994000D02*
X138557000Y-74676000D01*
X120523000Y-74676000D02*
X117475000Y-71628000D01*
X138557000Y-74676000D02*
X120523000Y-74676000D01*
D46*
X132969000Y-59404000D02*
X132969000Y-61214000D01*
X119380000Y-67437000D02*
X118999000Y-67437000D01*
X121285000Y-65532000D02*
X119380000Y-67437000D01*
X121285000Y-64135000D02*
X121285000Y-65532000D01*
X122936000Y-62484000D02*
X121285000Y-64135000D01*
X131699000Y-62484000D02*
X122936000Y-62484000D01*
X132969000Y-61214000D02*
X131699000Y-62484000D01*
D49*
X160274000Y-99822000D02*
X163322000Y-96774000D01*
X163322000Y-96774000D02*
X170307000Y-96774000D01*
X170307000Y-96774000D02*
X174244000Y-92837000D01*
X174244000Y-92837000D02*
X174244000Y-88392000D01*
X174244000Y-88392000D02*
X173736000Y-87884000D01*
D48*
X191071500Y-82454500D02*
X190881000Y-82264000D01*
X191071500Y-84645500D02*
X191071500Y-82454500D01*
X186309000Y-89408000D02*
X191071500Y-84645500D01*
D45*
X131635500Y-67945000D02*
X131127500Y-67437000D01*
X131127500Y-67437000D02*
X118999000Y-67437000D01*
D49*
X158115000Y-82613500D02*
X158115000Y-79756000D01*
X151257000Y-85725000D02*
X152908000Y-84074000D01*
X152908000Y-84074000D02*
X156654500Y-84074000D01*
X156654500Y-84074000D02*
X158115000Y-82613500D01*
X151257000Y-86233000D02*
X151257000Y-85725000D01*
D46*
X117602000Y-67627500D02*
X117602000Y-69215000D01*
X120332500Y-71945500D02*
X121793000Y-71945500D01*
X117602000Y-69215000D02*
X120332500Y-71945500D01*
D47*
X116847620Y-53967380D02*
X117475000Y-53340000D01*
X117475000Y-53340000D02*
X120269000Y-53340000D01*
D46*
X120269000Y-53340000D02*
X122428000Y-55499000D01*
D47*
X116847620Y-55412640D02*
X116847620Y-53967380D01*
D45*
X121793000Y-71945500D02*
X135509000Y-71945500D01*
D46*
X122428000Y-60198000D02*
X117602000Y-65024000D01*
X117602000Y-65024000D02*
X117602000Y-67627500D01*
X122428000Y-55499000D02*
X122428000Y-60198000D01*
X121793000Y-73406000D02*
X120840500Y-73406000D01*
D47*
X117348000Y-54356000D02*
X117856000Y-53848000D01*
X117856000Y-53848000D02*
X119761000Y-53848000D01*
X119761000Y-53848000D02*
X121602500Y-55689500D01*
X117348000Y-55412640D02*
X117348000Y-54356000D01*
D46*
X121602500Y-59880500D02*
X116840000Y-64643000D01*
X116840000Y-64643000D02*
X116840000Y-68453000D01*
X121602500Y-55689500D02*
X121602500Y-59880500D01*
D45*
X138303000Y-72707500D02*
X137604500Y-73406000D01*
X137604500Y-73406000D02*
X121793000Y-73406000D01*
X138303000Y-70993000D02*
X138303000Y-72707500D01*
D46*
X116840000Y-69405500D02*
X116840000Y-68453000D01*
X120840500Y-73406000D02*
X116840000Y-69405500D01*
D49*
X160655000Y-84074000D02*
X158496000Y-86233000D01*
X160655000Y-79756000D02*
X160655000Y-84074000D01*
X158496000Y-86233000D02*
X155829000Y-86233000D01*
D48*
X113855500Y-42862500D02*
X113411000Y-42862500D01*
X116332000Y-45339000D02*
X113855500Y-42862500D01*
D46*
X108685000Y-54625000D02*
X106885500Y-54625000D01*
X106885500Y-54625000D02*
X106045000Y-53784500D01*
D47*
X114848640Y-57411620D02*
X112529620Y-57411620D01*
X109743000Y-54625000D02*
X108685000Y-54625000D01*
D44*
X125349000Y-55404000D02*
X129032000Y-55404000D01*
X155067000Y-55626000D02*
X155067000Y-50038000D01*
X147955000Y-64516000D02*
X147955000Y-62738000D01*
X147955000Y-62738000D02*
X155067000Y-55626000D01*
X151797000Y-68834000D02*
X146145000Y-68834000D01*
X146145000Y-68834000D02*
X145891000Y-68580000D01*
X150495000Y-79756000D02*
X150495000Y-77343000D01*
X147828000Y-74676000D02*
X145891000Y-74676000D01*
X150495000Y-77343000D02*
X147828000Y-74676000D01*
X147955000Y-64516000D02*
X147955000Y-66516000D01*
X147955000Y-66516000D02*
X145891000Y-68580000D01*
X145891000Y-68580000D02*
X151543000Y-68580000D01*
X151543000Y-68580000D02*
X151797000Y-68834000D01*
X145891000Y-71628000D02*
X145891000Y-68580000D01*
X145891000Y-74676000D02*
X145891000Y-71628000D01*
D48*
X179483000Y-94710000D02*
X180657500Y-93535500D01*
X180657500Y-93535500D02*
X188849000Y-93535500D01*
X188849000Y-93535500D02*
X191389000Y-90995500D01*
X191389000Y-90995500D02*
X191389000Y-89408000D01*
X179483000Y-95885000D02*
X179483000Y-94710000D01*
D44*
X176720500Y-95885000D02*
X176276000Y-96329500D01*
X179483000Y-95885000D02*
X176720500Y-95885000D01*
X161290000Y-93472000D02*
X158782000Y-95980000D01*
X158782000Y-95980000D02*
X155829000Y-95980000D01*
X161290000Y-89535000D02*
X161290000Y-93472000D01*
X155829000Y-95980000D02*
X151257000Y-95980000D01*
X171450000Y-90741500D02*
X169862500Y-92329000D01*
X169862500Y-92329000D02*
X163258500Y-92329000D01*
X163258500Y-92329000D02*
X161290000Y-90360500D01*
X161290000Y-90360500D02*
X161290000Y-89535000D01*
X171450000Y-89535000D02*
X171450000Y-90741500D01*
X146970500Y-95980000D02*
X142748000Y-91757500D01*
X142748000Y-91757500D02*
X142748000Y-90424000D01*
X151257000Y-95980000D02*
X146970500Y-95980000D01*
X111760000Y-96901000D02*
X113665000Y-94996000D01*
X111760000Y-98298000D02*
X107950000Y-94488000D01*
X111760000Y-98584000D02*
X111760000Y-98298000D01*
X113665000Y-94996000D02*
X115570000Y-94996000D01*
X111760000Y-96901000D02*
X113665000Y-94996000D01*
X111760000Y-98584000D02*
X111760000Y-96901000D01*
X116621560Y-93944440D02*
X116621560Y-90634820D01*
X115570000Y-94996000D02*
X116621560Y-93944440D01*
X124289820Y-90126820D02*
X123444000Y-89281000D01*
X125984000Y-90126820D02*
X124289820Y-90126820D01*
X132588000Y-94488000D02*
X131572000Y-93472000D01*
X131572000Y-93472000D02*
X131572000Y-90424000D01*
X132588000Y-98044000D02*
X132588000Y-94488000D01*
D48*
X137795000Y-99060000D02*
X142748000Y-94107000D01*
X142748000Y-94107000D02*
X142748000Y-90424000D01*
D44*
X153702000Y-66929000D02*
X151797000Y-68834000D01*
X161290000Y-66929000D02*
X153702000Y-66929000D01*
X162909000Y-68548000D02*
X161290000Y-66929000D01*
X162909000Y-68834000D02*
X162909000Y-68548000D01*
X159194500Y-97663000D02*
X157511500Y-95980000D01*
X157511500Y-95980000D02*
X155829000Y-95980000D01*
D45*
X130651000Y-55404000D02*
X130937000Y-55118000D01*
X129032000Y-55404000D02*
X130651000Y-55404000D01*
D46*
X110363000Y-55245000D02*
X110236000Y-55245000D01*
X110393000Y-55275000D02*
X110363000Y-55245000D01*
X108685000Y-55275000D02*
X110393000Y-55275000D01*
X110124000Y-54625000D02*
X110490000Y-54991000D01*
X110490000Y-54991000D02*
X110490000Y-55178000D01*
X110490000Y-55178000D02*
X110393000Y-55275000D01*
X108685000Y-54625000D02*
X110124000Y-54625000D01*
D47*
X112529620Y-57411620D02*
X110236000Y-55118000D01*
D46*
X113093500Y-64198500D02*
X114744500Y-64198500D01*
X129032000Y-61214000D02*
X129032000Y-59404000D01*
X128524000Y-61722000D02*
X129032000Y-61214000D01*
X122555000Y-61722000D02*
X128524000Y-61722000D01*
X119126000Y-65151000D02*
X122555000Y-61722000D01*
X114744500Y-64198500D02*
X114935000Y-64389000D01*
D47*
X114848640Y-58912760D02*
X112537240Y-58912760D01*
X111506000Y-62611000D02*
X113093500Y-64198500D01*
X113093500Y-64198500D02*
X113157000Y-64262000D01*
X111506000Y-59944000D02*
X111506000Y-62611000D01*
X112537240Y-58912760D02*
X111506000Y-59944000D01*
D44*
X156083000Y-73152000D02*
X155702000Y-73152000D01*
X155702000Y-73152000D02*
X153035000Y-75819000D01*
X153035000Y-75819000D02*
X153035000Y-79756000D01*
X155797000Y-72866000D02*
X156083000Y-73152000D01*
X155797000Y-68834000D02*
X155797000Y-72866000D01*
X155575000Y-79756000D02*
X155575000Y-77470000D01*
X161163000Y-75057000D02*
X161163000Y-73152000D01*
X160401000Y-75819000D02*
X161163000Y-75057000D01*
X157226000Y-75819000D02*
X160401000Y-75819000D01*
X155575000Y-77470000D02*
X157226000Y-75819000D01*
X158909000Y-70898000D02*
X161163000Y-73152000D01*
X158909000Y-68834000D02*
X158909000Y-70898000D01*
D49*
X151257000Y-91980000D02*
X151257000Y-89535000D01*
D44*
X121825000Y-94996000D02*
X121952000Y-94869000D01*
X118872000Y-94996000D02*
X121825000Y-94996000D01*
D49*
X155829000Y-91980000D02*
X155829000Y-89535000D01*
D44*
X182933000Y-95885000D02*
X187198000Y-95885000D01*
D45*
X170815000Y-59309000D02*
X158496000Y-46990000D01*
X158496000Y-46990000D02*
X144526000Y-46990000D01*
X144526000Y-46990000D02*
X140335000Y-42799000D01*
D49*
X140335000Y-42799000D02*
X140335000Y-39370000D01*
X170815000Y-64516000D02*
X170815000Y-59309000D01*
X168275000Y-65659000D02*
X169418000Y-66802000D01*
X169418000Y-66802000D02*
X174244000Y-66802000D01*
X174244000Y-66802000D02*
X175260000Y-65786000D01*
X175260000Y-65786000D02*
X175260000Y-62230000D01*
D45*
X175260000Y-62230000D02*
X159258000Y-46228000D01*
X159258000Y-46228000D02*
X146558000Y-46228000D01*
X146558000Y-46228000D02*
X142875000Y-42545000D01*
D49*
X142875000Y-42545000D02*
X142875000Y-39370000D01*
X168275000Y-64516000D02*
X168275000Y-65659000D01*
D45*
X145415000Y-43307000D02*
X147574000Y-45466000D01*
X147574000Y-45466000D02*
X160020000Y-45466000D01*
X160020000Y-45466000D02*
X176530000Y-61976000D01*
D49*
X176530000Y-61976000D02*
X176530000Y-66040000D01*
X176530000Y-66040000D02*
X174752000Y-67818000D01*
X174752000Y-67818000D02*
X167386000Y-67818000D01*
X167386000Y-67818000D02*
X165735000Y-66167000D01*
X165735000Y-66167000D02*
X165735000Y-64516000D01*
X145415000Y-39370000D02*
X145415000Y-43307000D01*
X163195000Y-66167000D02*
X165862000Y-68834000D01*
X165862000Y-68834000D02*
X175260000Y-68834000D01*
X175260000Y-68834000D02*
X177546000Y-66548000D01*
X177546000Y-66548000D02*
X177546000Y-61468000D01*
D45*
X177546000Y-61468000D02*
X160782000Y-44704000D01*
X160782000Y-44704000D02*
X150114000Y-44704000D01*
X150114000Y-44704000D02*
X147955000Y-42545000D01*
D49*
X147955000Y-42545000D02*
X147955000Y-39370000D01*
X163195000Y-64516000D02*
X163195000Y-66167000D01*
D45*
X145247360Y-85384640D02*
X137835640Y-85384640D01*
X135128000Y-82677000D02*
X133985000Y-82677000D01*
X137835640Y-85384640D02*
X135128000Y-82677000D01*
D49*
X131104640Y-85384640D02*
X134071360Y-85384640D01*
X127635000Y-81915000D02*
X131104640Y-85384640D01*
X123063000Y-81915000D02*
X127635000Y-81915000D01*
X122809000Y-81661000D02*
X123063000Y-81915000D01*
D44*
X137033000Y-55404000D02*
X150336000Y-55404000D01*
X152527000Y-53213000D02*
X152527000Y-50038000D01*
X150336000Y-55404000D02*
X152527000Y-53213000D01*
D47*
X113665000Y-58412380D02*
X111386620Y-58412380D01*
X111386620Y-58412380D02*
X110744000Y-59055000D01*
X114848640Y-58412380D02*
X113665000Y-58412380D01*
X113665000Y-58412380D02*
X113545620Y-58412380D01*
X113030000Y-53213000D02*
X112918000Y-53325000D01*
X112918000Y-53325000D02*
X108685000Y-53325000D01*
X112141000Y-57912000D02*
X114848640Y-57912000D01*
X112141000Y-57912000D02*
X111379000Y-57912000D01*
X111379000Y-57912000D02*
X110744000Y-57277000D01*
X111760000Y-54610000D02*
X111125000Y-53975000D01*
X108685000Y-53975000D02*
X111125000Y-53975000D01*
M02*
